<?xml version="1.0" standalone="no"?>
<!DOCTYPE svg PUBLIC "-//W3C//DTD SVG 1.1//EN" "http://www.w3.org/Graphics/SVG/1.1/DTD/svg11.dtd" >
<svg xmlns="http://www.w3.org/2000/svg">
<metadata>Generated by IcoMoon</metadata>
<defs>
<font id="builder" horiz-adv-x="1024">
<font-face units-per-em="1024" ascent="960" descent="-64" />
<missing-glyph horiz-adv-x="1024" />
<glyph unicode="&#x20;" horiz-adv-x="512" d="" />
<glyph unicode="&#x21;" glyph-name="menu" d="M224 448h576c17.664 0 32 14.336 32 32s-14.336 32-32 32h-576c-17.664 0-32-14.336-32-32s14.336-32 32-32zM224 640h576c17.664 0 32 14.336 32 32s-14.336 32-32 32h-576c-17.664 0-32-14.336-32-32s14.336-32 32-32zM224 256h576c17.664 0 32 14.336 32 32s-14.336 32-32 32h-576c-17.664 0-32-14.336-32-32s14.336-32 32-32z" />
<glyph unicode="&#x22;" glyph-name="close" d="M321.6 193.6c12.48-12.48 32.768-12.48 45.248 0l177.152 177.152 177.152-177.152c12.48-12.48 32.768-12.48 45.248 0s12.48 32.768 0 45.248l-177.152 177.152 177.152 177.152c12.48 12.48 12.48 32.768 0 45.248s-32.768 12.48-45.248 0l-177.152-177.152-177.152 177.152c-12.48 12.48-32.768 12.48-45.248 0s-12.48-32.768 0-45.248l177.152-177.152-177.152-177.152c-12.48-12.48-12.48-32.768 0-45.248z" />
<glyph unicode="&#x23;" glyph-name="plus-box" d="M256 640v-448c0-35.328 28.672-64 64-64h448c35.328 0 64 28.672 64 64v448c0 35.328-28.672 64-64 64h-448c-35.328 0-64-28.672-64-64zM768 192h-448v448h448v-448zM416 384h96v-96c0-17.664 14.336-32 32-32s32 14.336 32 32v96h96c17.664 0 32 14.336 32 32s-14.336 32-32 32h-96v96c0 17.664-14.336 32-32 32s-32-14.336-32-32v-96h-96c-17.664 0-32-14.336-32-32s14.336-32 32-32z" />
<glyph unicode="&#x24;" glyph-name="folder-add" d="M960 864h-256c-35.328 0-64-28.672-64-64 0 0-8.32-58.688-64-64h-448c-35.328 0-64-28.672-64-64v-576c0-35.328 28.672-64 64-64h832c35.328 0 64 28.672 64 64v704c0 35.328-28.672 64-64 64zM736 352h-160v-160c0-17.664-14.336-32-32-32s-32 14.336-32 32v160h-160c-17.664 0-32 14.336-32 32s14.336 32 32 32h160v160c0 17.664 14.336 32 32 32s32-14.336 32-32v-160h160c17.664 0 32-14.336 32-32s-14.336-32-32-32z" />
<glyph unicode="&#x25;" glyph-name="close_alt" d="M544 896c-265.088 0-480-214.912-480-480s214.912-480 480-480 480 214.912 480 480-214.912 480-480 480zM766.4 593.152l-178.368-178.368 157.824-175.936c12.48-12.48 12.48-32.768 0-45.248s-32.768-12.48-45.248 0l-157.824 175.936-175.936-175.936c-12.48-12.48-32.768-12.48-45.248 0s-12.48 32.768 0 45.248l178.368 178.368-157.824 175.936c-12.48 12.48-12.48 32.768 0 45.248s32.768 12.48 45.248 0l157.824-175.936 175.936 175.936c12.48 12.48 32.768 12.48 45.248 0s12.48-32.768 0-45.248z" />
<glyph unicode="&#x26;" glyph-name="image" d="M960 960h-896c-35.346 0-64-28.654-64-64v0-896c0-35.346 28.654-64 64-64v0h896c35.346 0 64 28.654 64 64v0 896c0 35.346-28.654 64-64 64v0zM128 64v229.76l128 128 210.56-211.2c11.6-11.693 27.675-18.931 45.44-18.931s33.84 7.238 45.436 18.927l0.004 0.004 82.56 83.2 229.76-229.76zM896 218.24l-210.56 211.2c-11.6 11.693-27.675 18.931-45.44 18.931s-33.84-7.238-45.436-18.927l-0.004-0.004-82.56-83.2-210.56 211.2c-11.6 11.693-27.675 18.931-45.44 18.931s-33.84-7.238-45.436-18.927l-0.004-0.004-82.56-83.2v357.76h768zM768 640c0-35.346-28.654-64-64-64s-64 28.654-64 64c0 35.346 28.654 64 64 64s64-28.654 64-64z" />
<glyph unicode="&#x27;" glyph-name="images" d="M576 0c0-35.346-28.654-64-64-64s-64 28.654-64 64c0 35.346 28.654 64 64 64s64-28.654 64-64zM832 0c0-35.346-28.654-64-64-64s-64 28.654-64 64c0 35.346 28.654 64 64 64s64-28.654 64-64zM320 0c0-35.346-28.654-64-64-64s-64 28.654-64 64c0 35.346 28.654 64 64 64s64-28.654 64-64zM960 960h-896c-35.346 0-64-28.654-64-64v0-704c0-35.346 28.654-64 64-64v0h896c35.346 0 64 28.654 64 64v0 704c0 35.346-28.654 64-64 64v0zM128 256v229.76l128 128 210.56-211.2c11.6-11.693 27.675-18.931 45.44-18.931s33.84 7.238 45.436 18.927l0.004 0.004 82.56 83.2 229.76-229.76zM896 410.24l-210.56 211.2c-11.6 11.693-27.675 18.931-45.44 18.931s-33.84-7.238-45.436-18.927l-0.004-0.004-82.56-83.2-210.56 211.2c-11.6 11.693-27.675 18.931-45.44 18.931s-33.84-7.238-45.436-18.927l-0.004-0.004-82.56-83.2v165.76h768z" />
<glyph unicode="&#x28;" glyph-name="document_alt" d="M960 768v64c0 35.346-28.654 64-64 64v0h-768c-35.346 0-64-28.654-64-64v0-64c0-35.346 28.654-64 64-64s64 28.654 64 64v0h256v-640h-64c-35.346 0-64-28.654-64-64s28.654-64 64-64v0h256c35.346 0 64 28.654 64 64s-28.654 64-64 64v0h-64v640h256c0-35.346 28.654-64 64-64s64 28.654 64 64v0z" />
<glyph unicode="&#x29;" glyph-name="comment_alt" d="M384 512c0-35.346-28.654-64-64-64s-64 28.654-64 64c0 35.346 28.654 64 64 64s64-28.654 64-64zM576 512c0-35.346-28.654-64-64-64s-64 28.654-64 64c0 35.346 28.654 64 64 64s64-28.654 64-64zM768 512c0-35.346-28.654-64-64-64s-64 28.654-64 64c0 35.346 28.654 64 64 64s64-28.654 64-64zM320-64c-11.535 0.036-22.343 3.119-31.671 8.485l0.311-0.165c-19.592 11.166-32.598 31.9-32.64 55.674v128.006h-192c-35.346 0-64 28.654-64 64v0 640c0 35.346 28.654 64 64 64v0h896c35.346 0 64-28.654 64-64v0-640c0-35.346-28.654-64-64-64v0h-302.080l-305.28-183.040c-9.33-5.626-20.596-8.956-32.639-8.96h-0.001zM128 256h192c35.346 0 64-28.654 64-64v0-78.72l223.36 133.76c9.33 5.626 20.596 8.956 32.639 8.96h256.001v512h-768z" />
<glyph unicode="&#x2a;" glyph-name="quotations_alt2" d="M320 384v-19.2c-0.74-114.32-82.374-209.36-190.494-230.791l-1.506-0.249c-30.363-5.377-53.127-31.565-53.127-63.070 0-0.327 0.002-0.654 0.007-0.98l-0.001 0.049c-0.003-0.215-0.004-0.47-0.004-0.725 0-35.346 28.654-64 64-64 3.39 0 6.718 0.264 9.965 0.771l-0.361-0.046c171.905 34.726 299.522 184.567 299.522 364.214 0 0.431-0.001 0.862-0.002 1.292v-0.066 396.8c0 35.346-28.654 64-64 64v0h-320c-35.346 0-64-28.654-64-64v0-320c0-35.346 28.654-64 64-64v0zM128 704h192v-192h-192zM960 832h-320c-35.346 0-64-28.654-64-64v0-320c0-35.346 28.654-64 64-64v0h256v-19.2c-0.74-114.32-82.374-209.36-190.494-230.791l-1.506-0.249c-30.363-5.377-53.127-31.565-53.127-63.070 0-0.327 0.002-0.654 0.007-0.98l-0.001 0.049c-0.003-0.215-0.004-0.47-0.004-0.725 0-35.346 28.654-64 64-64 3.39 0 6.718 0.264 9.965 0.771l-0.361-0.046c171.905 34.726 299.522 184.567 299.522 364.214 0 0.431-0.001 0.862-0.002 1.292v-0.066 396.8c0 35.346-28.654 64-64 64v0zM896 512h-192v192h192z" />
<glyph unicode="&#x2b;" glyph-name="ribbon_alt" d="M167.488-59.136c7.936-3.264 16.256-4.864 24.512-4.864 16.64 0 33.024 6.528 45.248 18.752l274.752 274.752 274.752-274.752c12.224-12.224 28.608-18.752 45.248-18.752 8.256 0 16.576 1.6 24.448 4.864 23.936 9.92 39.552 33.28 39.552 59.136v896c0 35.328-28.672 64-64 64h-640c-35.328 0-64-28.672-64-64v-896c0-25.856 15.616-49.216 39.488-59.136zM512 320l-320-320v704h640v-704l-320 320zM832 896v-128h-640v128h640z" />
<glyph unicode="&#x2c;" glyph-name="tag_alt" d="M929.856 895.68c-0.576 0-1.152 0-1.728 0-0.512 0-0.96 0.064-1.472 0h-402.368c-9.792-0.448-32.064-15.744-34.944-18.624l-470.656-470.656c-24.96-24.96-24.96-65.408 0-90.368l361.344-361.344c12.544-12.48 28.864-18.688 45.184-18.688s32.704 6.208 45.184 18.688l470.656 470.656c2.88 2.88 18.944 22.656 18.944 34.944v403.648c0.896 17.856-12.608 31.744-30.144 31.744zM896 472.256c-0.96-1.472-1.92-3.008-2.816-4.224l-467.904-468.032-361.344 361.152 468.032 468.032c1.28 0.896 2.752 1.856 4.288 2.816h359.744v-359.744zM768 736c0-17.673 14.327-32 32-32s32 14.327 32 32c0 17.673-14.327 32-32 32s-32-14.327-32-32z" />
<glyph unicode="&#x2d;" glyph-name="social_rss" d="M0.384 960v-196.352c455.808 0 826.752-371.328 826.752-827.648h196.864c0 564.48-459.264 1024-1023.616 1024zM478.848-64h197.12c0.064 372.864-303.232 676.16-675.84 676.16v-196.288c127.808 0 247.936-49.984 338.432-140.544 90.368-90.304 140.288-211.008 140.288-339.328zM136.32-62.72c75.456 0 136.512 60.672 136.512 135.808-0.064 74.688-61.056 136.064-136.512 136.064-75.2 0-136.32-61.312-136.32-136.064 0-75.136 61.12-135.808 136.32-135.808z" />
<glyph unicode="&#x2e;" glyph-name="adjust-horiz" d="M864 768h-96c0 35.328-28.672 64-64 64h-64c-35.328 0-64-28.672-64-64h-416c-17.664 0-32-14.336-32-32s14.336-32 32-32h416c0-35.328 28.672-64 64-64h64c35.328 0 64 28.672 64 64h96c17.664 0 32 14.336 32 32s-14.336 32-32 32zM704 704h-64v64h64v-64zM864 512h-416c0 35.328-28.672 64-64 64h-64c-35.328 0-64-28.672-64-64h-96c-17.664 0-32-14.336-32-32s14.336-32 32-32h96c0-35.328 28.672-64 64-64h64c35.328 0 64 28.672 64 64h416c17.664 0 32 14.336 32 32s-14.336 32-32 32zM384 448h-64v64h64v-64zM864 256h-224c0 35.328-28.672 64-64 64h-64c-35.328 0-64-28.672-64-64h-288c-17.664 0-32-14.336-32-32s14.336-32 32-32h288c0-35.328 28.672-64 64-64h64c35.328 0 64 28.672 64 64h224c17.664 0 32 14.336 32 32s-14.336 32-32 32zM576 192h-64v64h64v-64z" />
<glyph unicode="&#x2f;" glyph-name="menu-square_alt2" d="M960 896h-832c-35.328 0-64-28.672-64-64v-832c0-35.328 28.672-64 64-64h832c35.328 0 64 28.672 64 64v832c0 35.328-28.672 64-64 64zM960 0h-832v832h832v-832zM288 384h512c17.664 0 32 14.336 32 32s-14.336 32-32 32h-512c-17.664 0-32-14.336-32-32s14.336-32 32-32zM288 576h512c17.664 0 32 14.336 32 32s-14.336 32-32 32h-512c-17.664 0-32-14.336-32-32s14.336-32 32-32zM288 192h512c17.664 0 32 14.336 32 32s-14.336 32-32 32h-512c-17.664 0-32-14.336-32-32s14.336-32 32-32z" />
<glyph unicode="&#x30;" glyph-name="cursor_alt" d="M314.496 948.608c-8.704 10.304-22.848 14.080-35.456 9.472s-21.056-16.64-21.056-30.080v-835.008c0-13.824 8.832-26.048 21.952-30.4 3.264-1.088 6.656-1.6 10.048-1.6 9.92 0 19.52 4.608 25.664 12.928l143.104 192.768 99.264-283.968c12.736-36.352 52.544-55.552 88.896-42.816s55.552 52.544 42.816 88.896l-97.408 278.592 223.872-43.328c13.376-2.688 26.816 3.52 33.664 15.168 6.848 11.712 5.632 26.432-3.136 36.8l-532.224 632.576zM494.4 391.616c-12.096 2.432-24.448-2.432-31.744-12.352l-140.608-189.44v650.432l417.536-496.128-245.184 47.488z" />
<glyph unicode="&#x31;" glyph-name="mail_alt" d="M960 832h-896c-35.346 0-64-28.654-64-64v0-640c0-35.346 28.654-64 64-64v0h896c35.346 0 64 28.654 64 64v0 640c0 35.346-28.654 64-64 64v0zM896 192h-768v286.72l359.040-153.6c7.365-3.204 15.945-5.068 24.96-5.068s17.595 1.864 25.375 5.227l-0.415-0.16 359.040 153.6zM896 618.24l-384-164.48-384 164.48v85.76h768z" />
<glyph unicode="&#x32;" glyph-name="ul" d="M352 448h512c17.664 0 32 14.336 32 32s-14.336 32-32 32h-512c-17.664 0-32-14.336-32-32s14.336-32 32-32zM352 704h512c17.664 0 32 14.336 32 32s-14.336 32-32 32h-512c-17.664 0-32-14.336-32-32s14.336-32 32-32zM352 192h512c17.664 0 32 14.336 32 32s-14.336 32-32 32h-512c-17.664 0-32-14.336-32-32s14.336-32 32-32zM128 736c0-17.673 14.327-32 32-32s32 14.327 32 32c0 17.673-14.327 32-32 32s-32-14.327-32-32zM128 480c0-17.673 14.327-32 32-32s32 14.327 32 32c0 17.673-14.327 32-32 32s-32-14.327-32-32zM128 224c0-17.673 14.327-32 32-32s32 14.327 32 32c0 17.673-14.327 32-32 32s-32-14.327-32-32z" />
<glyph unicode="&#x33;" glyph-name="post-content" d="M960 960h-896c-35.346 0-64-28.654-64-64v0-896c0-35.346 28.654-64 64-64v0h896c35.346 0 64 28.654 64 64v0 896c0 35.346-28.654 64-64 64v0zM896 832v-192h-768v192zM128 64v448h768v-448zM768 448h-512c-35.346 0-64-28.654-64-64s28.654-64 64-64v0h512c35.346 0 64 28.654 64 64s-28.654 64-64 64v0zM768 256h-512c-35.346 0-64-28.654-64-64s28.654-64 64-64v0h512c35.346 0 64 28.654 64 64s-28.654 64-64 64v0z" />
<glyph unicode="&#x34;" glyph-name="chat_alt" d="M768 407.040v-151.040h-128c-12.044-0.004-23.31-3.334-32.929-9.121l0.289 0.161-223.36-133.76v78.72c0 35.346-28.654 64-64 64v0h-192v448h343.040l128 128h-535.040c-35.346 0-64-28.654-64-64v0-576c0-35.346 28.654-64 64-64v0h192v-128c0.042-23.78 13.048-44.514 32.325-55.515l0.315-0.165c9.017-5.201 19.825-8.284 31.349-8.32h0.011c12.044 0.004 23.31 3.334 32.929 9.121l-0.289-0.161 305.28 183.040h174.080c35.346 0 64 28.654 64 64v0 343.040zM944 960c-0.974 0.041-2.117 0.065-3.266 0.065-21.189 0-40.499-8.044-55.042-21.246l0.068 0.061-353.92-354.56c-23.521-48.603-41.398-104.996-50.75-164.224l-0.45-3.456c62.684 9.802 119.077 27.679 171.341 52.785l-3.661-1.585 353.28 353.92c13.278 15.366 21.367 35.539 21.367 57.6s-8.089 42.234-21.463 57.713l0.095-0.113c-14.342 14.25-34.107 23.058-55.929 23.058-0.588 0-1.174-0.006-1.758-0.019l0.087 0.001z" />
<glyph unicode="&#x35;" glyph-name="grid-3x3" d="M128 640h128c35.328 0 64 28.672 64 64v128c0 35.328-28.672 64-64 64h-128c-35.328 0-64-28.672-64-64v-128c0-35.328 28.672-64 64-64zM448 640h128c35.328 0 64 28.672 64 64v128c0 35.328-28.672 64-64 64h-128c-35.328 0-64-28.672-64-64v-128c0-35.328 28.672-64 64-64zM768 640h128c35.328 0 64 28.672 64 64v128c0 35.328-28.672 64-64 64h-128c-35.328 0-64-28.672-64-64v-128c0-35.328 28.672-64 64-64zM64 384c0-35.328 28.672-64 64-64h128c35.328 0 64 28.672 64 64v128c0 35.328-28.672 64-64 64h-128c-35.328 0-64-28.672-64-64v-128zM384 384c0-35.328 28.672-64 64-64h128c35.328 0 64 28.672 64 64v128c0 35.328-28.672 64-64 64h-128c-35.328 0-64-28.672-64-64v-128zM704 384c0-35.328 28.672-64 64-64h128c35.328 0 64 28.672 64 64v128c0 35.328-28.672 64-64 64h-128c-35.328 0-64-28.672-64-64v-128zM64 64c0-35.328 28.672-64 64-64h128c35.328 0 64 28.672 64 64v128c0 35.328-28.672 64-64 64h-128c-35.328 0-64-28.672-64-64v-128zM384 64c0-35.328 28.672-64 64-64h128c35.328 0 64 28.672 64 64v128c0 35.328-28.672 64-64 64h-128c-35.328 0-64-28.672-64-64v-128zM704 64c0-35.328 28.672-64 64-64h128c35.328 0 64 28.672 64 64v128c0 35.328-28.672 64-64 64h-128c-35.328 0-64-28.672-64-64v-128z" />
<glyph unicode="&#x36;" glyph-name="grid-2x2" d="M192 512h192c35.328 0 64 28.672 64 64v192c0 35.328-28.672 64-64 64h-192c-35.328 0-64-28.672-64-64v-192c0-35.328 28.672-64 64-64zM640 512h192c35.328 0 64 28.672 64 64v192c0 35.328-28.672 64-64 64h-192c-35.328 0-64-28.672-64-64v-192c0-35.328 28.672-64 64-64zM128 128c0-35.328 28.672-64 64-64h192c35.328 0 64 28.672 64 64v192c0 35.328-28.672 64-64 64h-192c-35.328 0-64-28.672-64-64v-192zM576 128c0-35.328 28.672-64 64-64h192c35.328 0 64 28.672 64 64v192c0 35.328-28.672 64-64 64h-192c-35.328 0-64-28.672-64-64v-192z" />
<glyph unicode="&#x37;" glyph-name="cart_alt" d="M192 64c0-35.346 28.654-64 64-64s64 28.654 64 64c0 35.346-28.654 64-64 64s-64-28.654-64-64zM768 64c0-35.346 28.654-64 64-64s64 28.654 64 64c0 35.346-28.654 64-64 64s-64-28.654-64-64zM-1.856 864c0-17.664 14.336-32 32-32h66.496l39.744-169.984 55.616-278.016c0-2.304 1.088-4.288 1.344-6.528l-32.576-146.56c-2.112-9.472 0.192-19.392 6.272-26.944 6.080-7.616 15.232-11.968 24.96-11.968h726.016c17.664 0 32 14.336 32 32s-14.336 32-32 32h-686.080l14.656 65.92c3.2-0.512 6.080-1.92 9.408-1.92h583.36c35.328 0 56.64 6.976 73.664 48l103.936 318.848c18.048 57.152-21.568 81.152-56.96 81.152h-768c-4.992 0-9.344-1.728-14.016-2.816l-24.832 106.112c-3.392 14.464-16.256 24.704-31.168 24.704h-91.84c-17.728 0-32-14.336-32-32zM193.28 704h761.92l-102.144-313.536c-1.216-2.752-2.24-4.736-3.008-6.080-2.112-0.192-5.44-0.384-10.688-0.384h-583.36v6.336l-1.216 6.208-61.504 307.456z" />
<glyph unicode="&#x38;" glyph-name="pencil_alt" d="M960 960h-896c-35.328 0-64-28.672-64-64v-896c0-35.328 28.672-64 64-64h896c35.328 0 64 28.672 64 64v896c0 35.328-28.672 64-64 64zM178.368 666.496c-31.808 31.808-31.808 83.328 0 115.136s83.328 31.808 115.136 0l84.736-84.736-115.136-115.136-84.736 84.736zM659.84 185.024l-328.96 328.96 115.136 115.136 328.96-328.96 57.024-172.16-172.16 57.024z" />
<glyph unicode="&#x39;" glyph-name="drawer" d="M896 832c-17.984 40-50.624 64-86.016 64h-601.984c-35.328 0-64-24-80-64l-128-512v-289.024c0-17.664 14.336-32 32-32h960c17.664 0 32 14.336 32 32v285.056l-0.832 2.944-127.168 513.024zM188.48 810.688c2.944 6.592 10.432 21.312 19.52 21.312h601.984c8.768 0 18.88-9.024 25.984-22.784l112.704-458.048c0-0.128-0.192 0-0.192-0.128 0-17.664-14.336-32-32-32-0.064 0-0.064-0.064-0.128-0.064h-244.352c-17.664 0-32-14.336-32-32v-62.976c0-17.664-14.336-32-32-32-0.64 0-1.28-0.832-1.92-1.024h-188.992c-0.448 0.192-0.448 1.024-1.088 1.024-17.664 0-32 14.336-32 32v62.976c0 17.664-14.336 32-32 32h-244.352c-0.064 0-0.064 0.064-0.128 0.064-17.664 0-32.512 14.336-32.512 32 0 0.448-0.512 0.128-0.64 0.448l114.112 459.2z" />
<glyph unicode="&#x3a;" glyph-name="documents" d="M128 64h64v-64c0-35.328 28.672-64 64-64h640c35.328 0 64 28.672 64 64v768c0 35.328-28.672 64-64 64h-64v64c0 35.328-28.672 64-64 64h-640c-35.328 0-64-28.672-64-64v-768c0-35.328 28.672-64 64-64zM896 768v-768h-640v64h512c35.328 0 64 28.672 64 64v640h64zM672 832c17.664 0 32-14.336 32-32s-14.336-32-32-32h-258.688c-17.664 0-32 14.336-32 32s14.336 32 32 32h258.688zM221.312 640h450.688c17.664 0 32-14.336 32-32s-14.336-32-32-32h-450.688c-17.664 0-32 14.336-32 32s14.336 32 32 32zM221.312 448h450.688c17.664 0 32-14.336 32-32s-14.336-32-32-32h-450.688c-17.664 0-32 14.336-32 32s14.336 32 32 32zM221.312 256h450.688c17.664 0 32-14.336 32-32s-14.336-32-32-32h-450.688c-17.664 0-32 14.336-32 32s14.336 32 32 32z" />
<glyph unicode="&#x3b;" glyph-name="plus-box-small" d="M910.222 910.222h-796.444c-62.805 0-113.778-50.972-113.778-113.778v-796.444c0-62.805 50.972-113.778 113.778-113.778h796.444c62.805 0 113.778 50.972 113.778 113.778v796.444c0 62.805-50.972 113.778-113.778 113.778zM910.222 0h-796.444v796.444h796.444v-796.444zM284.444 341.333h170.667v-170.667c0-31.403 25.486-56.889 56.889-56.889s56.889 25.486 56.889 56.889v170.667h170.667c31.403 0 56.889 25.486 56.889 56.889s-25.486 56.889-56.889 56.889h-170.667v170.667c0 31.403-25.486 56.889-56.889 56.889s-56.889-25.486-56.889-56.889v-170.667h-170.667c-31.403 0-56.889-25.486-56.889-56.889s25.486-56.889 56.889-56.889z" />
<glyph unicode="&#x3c;" glyph-name="D" d="M504.448 640c27.648 0 51.968-4.544 72.256-13.44 20.032-8.832 36.992-21.248 50.496-36.864 14.208-16.448 25.216-36.48 32.768-59.52 8-24.256 12.032-51.648 12.032-81.344 0-29.312-3.968-56.512-11.712-80.896-7.424-23.168-18.24-43.328-32.192-59.968-13.376-15.936-30.464-28.672-50.688-37.952-20.416-9.28-44.928-14.016-72.96-14.016h-88.448v384h88.448zM504.448 704h-120.448c-17.664 0-32-14.336-32-32v-448c0-17.6 14.4-32 32-32h120.448c37.184 0 70.656 6.656 99.52 19.84 28.928 13.248 53.504 31.68 73.088 54.976 19.392 23.040 34.24 50.56 44.16 81.664 9.792 30.72 14.784 64.448 14.784 100.352 0 36.544-5.12 70.592-15.232 101.312-10.24 31.104-25.408 58.432-45.12 81.344-19.84 22.912-44.416 40.96-73.088 53.632-28.48 12.48-61.504 18.88-98.112 18.88v0zM512 896c247.040 0 448-200.96 448-448s-200.96-448-448-448-448 200.96-448 448 200.96 448 448 448zM512 960c-282.752 0-512-229.248-512-512s229.248-512 512-512 512 229.248 512 512-229.248 512-512 512v0z" />
<glyph unicode="&#x3d;" glyph-name="D2" d="M480 576h-32v-256h32c136 0 136 92.992 136 128 0 31.616 0 128-136 128zM512 768c-176.704 0-320-143.296-320-320s143.296-320 320-320 320 143.296 320 320c0 176.704-143.296 320-320 320zM480 256h-64c-17.664 0-32 15.296-32 34.112v315.776c0 18.816 14.336 34.112 32 34.112 0 0 48.512 0 64 0 79.424 0 200-32.64 200-192 0-161.344-120.576-192-200-192z" />
<glyph unicode="&#x3f;" glyph-name="eyedropper" d="M960 576c22.912 22.976 4.288 31.68-18.624 54.656l-38.592 38.72 99.84 100.16c31.040 31.104 27.904 84.736-7.040 119.68l-42.112 42.24c-34.88 35.008-88.32 38.144-119.296 7.040l-99.84-100.096-41.856 41.984c-22.912 22.976-60.032 22.976-82.944 0l-103.744-104.064 63.872-64-414.848-416.128c-18.752-18.816-34.752-49.92-42.432-82.176l-0.32 0.192c0 0-0.064-0.896-0.256-2.56-0.96-4.16-1.728-8.32-2.368-12.48-4.544-19.776-17.472-56.448-54.784-93.888v0l-25.856-25.984c-31.488-31.616-38.144-76.16-14.848-99.52l29.76-29.824c9.28-9.408 22.080-13.952 36.096-13.952 20.8 0 44.224 9.984 63.040 28.864l25.92 25.984c33.024 33.152 70.592 46.016 92.672 51.072 5.504 0.704 11.008 1.728 16.512 3.008 1.6 0.192 2.56 0.256 2.56 0.256l-0.192 0.32c32.192 7.744 63.168 23.808 81.92 42.624l414.848 416.128 54.912-56.256 128 128zM300.032 150.528c-4.8-4.864-20.032-14.336-40.192-19.136l-0.384-0.064-0.896-0.256c-2.816-0.64-5.632-1.216-8.448-1.536l-4.16-0.512-4.032-1.024c-8.064-1.856-16.896-4.224-26.368-7.424l-37.12-8.96 11.776 49.216c2.048 6.592 3.712 12.736 5.056 18.432l0.704 3.2 0.512 3.2c0.32 2.176 0.768 4.288 1.216 6.464l0.192 0.896 0.064 0.384c4.8 20.224 14.272 35.456 19.072 40.256l414.848 416.128 82.944-83.2-414.784-416.064z" />
<glyph unicode="&#x40;" glyph-name="floppy_alt" d="M768 960h-704c-35.328 0-64-28.672-64-64v-896c0-35.328 28.672-64 64-64h896c35.328 0 64 28.672 64 64v768l-192 192h-64zM704 640v256h64v-256c0-35.328-28.672-64-64-64h-384c-35.328 0-64 28.672-64 64v256h256v-256h192zM192 384c0 35.328 28.672 64 64 64h512c35.328 0 64-28.672 64-64v-384h-640v384z" />
<glyph unicode="&#x41;" glyph-name="box-empty" d="M832 832h-640c-35.328 0-64-28.672-64-64v-640c0-35.328 28.672-64 64-64h640c35.328 0 64 28.672 64 64v640c0 35.328-28.672 64-64 64zM832 128h-640v640h640v-640z" />
<glyph unicode="&#x42;" glyph-name="pencil-edit" d="M672.294 287.706l-56.585 170.836-326.43 326.43-114.251-114.251 326.43-326.43zM23.688 936.312c-31.563-31.563-31.563-82.687 0-114.251l84.084-84.084 114.251 114.251-84.084 84.084c-31.563 31.563-82.687 31.563-114.251 0zM952.617 769.477h-450.207l63.508-63.508h386.699v-698.586h-698.586v386.699l-63.508 63.508v-450.207c0-35.056 28.451-63.508 63.508-63.508h698.586c35.056 0 63.508 28.451 63.508 63.508v698.586c0 35.056-28.451 63.508-63.508 63.508z" />
<glyph unicode="&#x43;" glyph-name="duplicate" d="M704 416v256c0 19.2-12.8 32-32 32h-448c-19.2 0-32-12.8-32-32v-256c0-19.2 12.8-32 32-32h448c19.2 0 32 12.8 32 32zM640 448h-384v192h384v-192zM800 576c-19.2 0-32-12.8-32-32v-224h-416c-19.2 0-32-12.8-32-32s12.8-32 32-32h448c19.2 0 32 12.8 32 32v256c0 19.2-12.8 32-32 32z" />
<glyph unicode="&#x44;" glyph-name="images2" d="M960 768h-64v128c0 35.328-28.672 64-64 64h-768c-35.328 0-64-28.672-64-64v-704c0-35.328 28.672-64 64-64h64v-128c0-35.328 28.672-64 64-64h768c35.328 0 64 28.672 64 64v704c0 35.328-28.672 64-64 64zM64 192v704h768v-704h-768zM960 0h-768v128h64v-64h640v640h64v-704zM473.28 697.984c0-49.167 39.857-89.024 89.024-89.024s89.024 39.857 89.024 89.024c0 49.167-39.857 89.024-89.024 89.024s-89.024-39.857-89.024-89.024zM320 640l-192-128v-256h640v320l-256-128z" />
<glyph unicode="&#x45;" glyph-name="key" d="M992 960h-128c-7.744 0-15.232-2.816-21.12-7.936l-441.728-387.264c-22.848 4.8-58.176 11.2-81.152 11.2-176.448 0-320-143.552-320-320s143.552-320 320-320 320 143.552 320 320c0 52.416-9.984 87.552-21.312 116.736l108.928 36.992c13.248 4.48 22.016 17.088 21.696 31.040l-2.688 121.472 122.24 8.512c16.384 1.152 29.248 14.528 29.76 30.912l4.544 145.856 95.744 21.248c14.656 3.2 25.088 16.256 25.088 31.232v128c0 17.664-14.336 32-32 32zM224 256c38.4 0 71.552-22.592 86.912-55.168 5.824-12.416 9.088-26.24 9.088-40.832 0-52.992-43.008-96-96-96s-96 43.008-96 96 43.008 96 96 96z" />
<glyph unicode="&#x46;" glyph-name="pin" d="M488.704-46.656c5.376-5.952 10.56-9.792 15.552-12.48 0.064-0.064 0.192-0.064 0.256-0.128 3.456-1.792 6.848-3.136 10.048-3.136s6.592 1.344 10.048 3.136c0.064 0.064 0.192 0.064 0.256 0.128 4.992 2.688 10.176 6.528 15.552 12.48 0 0 297.472 323.52 327.36 603.84 1.792 14.464 3.008 29.12 3.008 44.032 0 198.144-160.64 358.784-358.784 358.784s-358.784-160.64-358.784-358.784c0-15.168 1.216-29.952 3.072-44.608 30.656-280.192 332.416-603.264 332.416-603.264zM512 832c127.232 0 230.784-103.552 230.784-230.784s-103.552-230.784-230.784-230.784-230.784 103.552-230.784 230.784c0 127.232 103.552 230.784 230.784 230.784z" />
<glyph unicode="&#x47;" glyph-name="profile" d="M704 768c0 102.784-89.216 192-192 192s-192-89.216-192-192c0-102.784 89.216-192 192-192s192 89.216 192 192zM512 512c-168.192 0-320-181.44-320-406.912s640-225.472 640 0-151.808 406.912-320 406.912z" />
<glyph unicode="&#x48;" glyph-name="piechart" d="M1010.88 590.464c-40.832 175.68-180.736 315.584-356.416 356.416-4.8 1.152-9.6 1.664-14.464 1.664-14.336 0-28.352-4.8-39.808-13.888-15.296-12.096-24.192-30.592-24.192-50.112v-372.544h372.544c19.52 0 37.952 8.896 50.112 24.192s16.64 35.264 12.224 54.272zM640 576v308.544c152.768-35.456 273.088-155.776 308.544-308.544h-308.544zM894.784 448h-382.784v382.784c0 17.856-7.424 34.88-20.48 46.976-11.904 11.008-27.456 17.024-43.52 17.024-1.6 0-3.264-0.064-4.864-0.192-248.512-19.008-443.136-229.248-443.136-478.592 0-264.64 215.36-480 480-480 249.344 0 459.584 194.624 478.656 443.136 1.344 17.728-4.8 35.264-16.896 48.384-12.096 13.056-29.12 20.48-46.976 20.48zM480 0c-229.376 0-416 186.624-416 416 0 218.624 169.472 398.4 384 414.784v-446.784h446.784c-16.384-214.528-196.16-384-414.784-384z" />
<glyph unicode="&#x49;" glyph-name="countdown" d="M869.12 725.76c-18.977-11.338-31.488-31.771-31.488-55.127 0-11.231 2.893-21.787 7.974-30.962l-0.167 0.328c32.343-55.077 51.446-121.307 51.446-191.999 0-212.077-171.923-384-384-384s-384 171.923-384 384c0 211.766 171.418 383.495 383.066 383.999h0.048c35.346 0 64 28.654 64 64s-28.654 64-64 64v0c-282.445-0.43-511.245-229.495-511.245-511.999 0-282.77 229.23-512 512-512s512 229.23 512 512c0 94.257-25.47 182.564-69.903 258.416l1.308-2.417c-11.442 18.474-31.601 30.596-54.591 30.596-11.965 0-23.163-3.283-32.742-8.998l0.293 0.162zM512 768c-35.346 0-64-28.654-64-64v0-256c-0.001-0.11-0.001-0.24-0.001-0.37 0-17.581 7.089-33.507 18.565-45.074l127.996-127.996c11.6-11.693 27.675-18.931 45.44-18.931s33.84 7.238 45.436 18.927l0.004 0.004c11.693 11.6 18.931 27.675 18.931 45.44s-7.238 33.84-18.927 45.436l-0.004 0.004-109.44 108.8v229.76c0 35.346-28.654 64-64 64v0z" />
<glyph unicode="&#x4a;" glyph-name="lock" d="M768 544h-64v32c0 106.048-85.952 192-192 192s-192-85.952-192-192v-32h-64c-17.664 0-32-14.336-32-32v-352c0-8.832 3.584-16.832 9.344-22.656 5.824-5.76 13.824-9.344 22.656-9.344h512c8.832 0 16.832 3.584 22.656 9.344 5.76 5.76 9.344 13.76 9.344 22.656v352c0 17.664-14.336 32-32 32zM384 576c0 70.72 57.28 128 128 128s128-57.28 128-128v-32h-256v32zM736 192h-448v288h448v-288zM512 256c17.664 0 32 14.336 32 32v96c0 17.664-14.336 32-32 32s-32-14.336-32-32v-96c0-17.664 14.336-32 32-32z" />
<glyph unicode="&#x4b;" glyph-name="history" d="M0 31.616v-31.616h31.68c-17.472 0-31.68 14.144-31.68 31.616zM31.68 960h-31.68v-31.616c0 17.408 14.208 31.616 31.68 31.616zM320 31.68v128.64c0 17.472-14.144 31.68-31.68 31.68h-256.64c-17.472 0-31.68-14.208-31.68-31.616v-128.768c0-17.472 14.208-31.616 31.68-31.616h256.64c17.536 0 31.68 14.208 31.68 31.68zM31.68 384h256.64c17.536 0 31.68 14.208 31.68 31.68v128.64c0 17.472-14.144 31.68-31.68 31.68h-256.64c-17.472 0-31.68-14.208-31.68-31.616v-128.768c0-17.472 14.208-31.616 31.68-31.616zM31.68 768h256.64c17.536 0 31.68 14.208 31.68 31.68v128.64c0 17.472-14.144 31.68-31.68 31.68h-256.64c-17.472 0-31.68-14.208-31.68-31.616v-128.768c0-17.472 14.208-31.616 31.68-31.616zM512 896v-320c0-35.328 28.672-64 64-64l107.008 107.008c40.96-48 73.856-102.464 73.856-171.968 0-160.704-60.48-243.904-214.144-253.376-17.024-1.024-30.72-14.464-30.72-31.488v-128.704c0-17.856 15.040-32.832 32.96-31.936 262.464 12.544 418.048 176.896 418.24 445.056v0.768c-0.064 131.52-53.248 244.672-135.552 316.288l132.352 132.352c0 35.328-28.672 64-64 64h-320c-35.328 0-64-28.672-64-64z" />
<glyph unicode="&#x4c;" glyph-name="redo" d="M896.064 960l-113.92-113.984c-80.32 61.952-181.504 96.128-292.864 97.792-246.080 3.648-460.48-167.936-485.76-412.864-29.696-287.808 195.264-531.008 476.928-531.008 124.16 0 236.928 47.104 322.048 124.48 18.368 16.704 19.648 45.184 2.048 62.656l-75.776 75.2c-15.808 15.744-41.216 16.64-57.728 1.664-50.624-46.080-117.056-75.648-190.592-75.648-170.944 0-307.072 144.512-285.44 320.576 17.472 142.016 147.136 245.184 290.176 243.136 58.112-0.832 111.488-17.408 156.16-46.912l-128.896-128.896c0-35.328 28.608-63.936 63.936-63.936h319.68c35.328-0.064 63.936 28.608 63.936 63.936v319.808c0 35.328-28.608 64-63.936 64z" />
<glyph unicode="&#x4d;" glyph-name="undo" d="M470.72 943.808c-111.36-1.664-212.544-35.776-292.864-97.792l-113.92 113.984c-35.328 0-63.936-28.672-63.936-64v-319.872c0-35.328 28.608-63.936 63.936-63.936h319.68c35.328 0 63.936 28.672 63.936 63.936l-128.896 129.024c44.672 29.504 98.048 46.080 156.16 46.912 143.040 2.048 272.704-101.12 290.176-243.136 21.632-176.064-114.496-320.576-285.44-320.576-73.536 0-139.904 29.568-190.592 75.648-16.512 15.040-41.92 14.080-57.728-1.664l-75.776-75.2c-17.6-17.472-16.32-45.952 2.048-62.656 85.056-77.44 197.888-124.48 322.048-124.48 281.664 0 506.56 243.2 476.928 531.008-25.28 244.864-239.68 416.448-485.76 412.8z" />
<glyph unicode="&#x4e;" glyph-name="check" d="M949.312 945.92c-17.536 22.848-50.368 27.264-73.344 9.856-119.936-90.688-449.984-456.064-527.296-543.872l-270.336 144.192c-18.176 9.664-41.216 8.32-58.368-5.248-22.912-18.176-26.688-51.456-8.32-74.176 0 0 294.144-365.248 297.984-368.512 104.384-90.88 185.088 5.12 208.832 53.184 92.608 187.328 217.536 396.032 428.224 718.528l0.768 0.832c15.68 18.176 17.088 45.376 1.856 65.216z" />
<glyph unicode="&#x4f;" glyph-name="responsive_icon2" d="M204.8 153.6c11.8-15.614 30.334-25.6 51.2-25.6v0c14.48 0 27.837 4.809 38.561 12.917l-0.161-0.117c15.614 11.8 25.6 30.334 25.6 51.2 0 14.48-4.809 27.837-12.917 38.561l0.117-0.161-163.2 217.6 163.2 217.6c7.991 10.563 12.8 23.92 12.8 38.4 0 35.346-28.654 64-64 64-20.866 0-39.4-9.986-51.083-25.439l-0.117-0.161-192-256c-7.991-10.563-12.8-23.92-12.8-38.4s4.809-27.837 12.917-38.561l-0.117 0.161zM819.2 742.4c-11.8 15.614-30.334 25.6-51.2 25.6-35.346 0-64-28.654-64-64 0-14.48 4.809-27.837 12.917-38.561l-0.117 0.161 163.2-217.6-163.2-217.6c-7.991-10.563-12.8-23.92-12.8-38.4 0-20.866 9.986-39.4 25.439-51.083l0.161-0.117c10.563-7.991 23.92-12.8 38.4-12.8v0c20.866 0 39.4 9.986 51.083 25.439l0.117 0.161 192 256c7.991 10.563 12.8 23.92 12.8 38.4s-4.809 27.837-12.917 38.561l0.117-0.161zM704 448c0-35.346-28.654-64-64-64s-64 28.654-64 64c0 35.346 28.654 64 64 64s64-28.654 64-64zM448 448c0-35.346-28.654-64-64-64s-64 28.654-64 64c0 35.346 28.654 64 64 64s64-28.654 64-64z" />
<glyph unicode="&#x50;" glyph-name="toggle" d="M960 960c-35.346 0-64-28.654-64-64v0-64h-768v64c0 35.346-28.654 64-64 64s-64-28.654-64-64v0-128c0-35.346 28.654-64 64-64v0h896c35.346 0 64 28.654 64 64v0 128c0 35.346-28.654 64-64 64v0zM960 640h-896c-35.346 0-64-28.654-64-64v0-256c0-35.346 28.654-64 64-64v0h896c35.346 0 64 28.654 64 64v0 256c0 35.346-28.654 64-64 64v0zM896 384h-768v128h768zM960 192h-896c-35.346 0-64-28.654-64-64v0-128c0-35.346 28.654-64 64-64s64 28.654 64 64v0 64h768v-64c0-35.346 28.654-64 64-64s64 28.654 64 64v0 128c0 35.346-28.654 64-64 64v0z" />
<glyph unicode="&#x51;" glyph-name="tabs" d="M960 896h-896c-35.346 0-64-28.654-64-64v0-768c0-35.346 28.654-64 64-64v0h896c35.346 0 64 28.654 64 64v0 768c0 35.346-28.654 64-64 64v0zM512 768h128v-128h-128zM896 128h-768v640h256v-192c0-35.346 28.654-64 64-64v0h448zM896 640h-128v128h128z" />
<glyph unicode="&#x52;" glyph-name="subscribe" d="M960 832h-896c-35.346 0-64-28.654-64-64v0-640c0-35.346 28.654-64 64-64v0h896c35.346 0 64 28.654 64 64v0 640c0 35.346-28.654 64-64 64v0zM896 192h-768v286.72l359.040-153.6c7.365-3.204 15.945-5.068 24.96-5.068s17.595 1.864 25.375 5.227l-0.415-0.16 359.040 153.6zM896 618.24l-384-164.48-384 164.48v85.76h768z" />
<glyph unicode="&#x53;" glyph-name="slider" d="M576 0c0-35.346-28.654-64-64-64s-64 28.654-64 64c0 35.346 28.654 64 64 64s64-28.654 64-64zM832 0c0-35.346-28.654-64-64-64s-64 28.654-64 64c0 35.346 28.654 64 64 64s64-28.654 64-64zM320 0c0-35.346-28.654-64-64-64s-64 28.654-64 64c0 35.346 28.654 64 64 64s64-28.654 64-64zM960 960h-896c-35.346 0-64-28.654-64-64v0-704c0-35.346 28.654-64 64-64v0h896c35.346 0 64 28.654 64 64v0 704c0 35.346-28.654 64-64 64v0zM896 256h-768v576h768zM320 576h384c35.346 0 64 28.654 64 64s-28.654 64-64 64v0h-384c-35.346 0-64-28.654-64-64s28.654-64 64-64v0zM320 384h128c35.346 0 64 28.654 64 64s-28.654 64-64 64v0h-128c-35.346 0-64-28.654-64-64s28.654-64 64-64v0z" />
<glyph unicode="&#x54;" glyph-name="sidebar" d="M960 960h-896c-35.346 0-64-28.654-64-64v0-896c0-35.346 28.654-64 64-64v0h896c35.346 0 64 28.654 64 64v0 896c0 35.346-28.654 64-64 64v0zM576 64h-448v768h448zM896 64h-192v768h192z" />
<glyph unicode="&#x56;" glyph-name="pricing-table" d="M960 832h-128v64c0 35.346-28.654 64-64 64v0h-512c-35.346 0-64-28.654-64-64v0-64h-128c-35.346 0-64-28.654-64-64v0-640c0-35.346 28.654-64 64-64v0h128v-64c0-35.346 28.654-64 64-64v0h512c35.346 0 64 28.654 64 64v0 64h128c35.346 0 64 28.654 64 64v0 640c0 35.346-28.654 64-64 64v0zM192 192h-64v320h64zM192 640h-64v64h64zM704 128v-64h-384v512h384zM704 768v-64h-384v128h384zM896 192h-64v320h64zM896 640h-64v64h64z" />
<glyph unicode="&#x57;" glyph-name="portfolio" d="M960 832h-896c-35.346 0-64-28.654-64-64v0-640c0-35.346 28.654-64 64-64v0h896c35.346 0 64 28.654 64 64v0 640c0 35.346-28.654 64-64 64v0zM448 192h-320v192h320zM448 512h-320v192h320zM896 192h-320v192h320zM896 512h-320v192h320z" />
<glyph unicode="&#x58;" glyph-name="number-counter" d="M960 704h-148.48l20.48 117.76c0.518 3.078 0.814 6.625 0.814 10.24 0 35.796-29.018 64.814-64.814 64.814-32.18 0-58.883-23.452-63.949-54.198l-0.051-0.376-22.4-138.24h-256l22.4 117.76c0.518 3.078 0.814 6.625 0.814 10.24 0 35.796-29.018 64.814-64.814 64.814-32.18 0-58.883-23.452-63.949-54.198l-0.051-0.376-22.4-138.24h-169.6c-35.346 0-64-28.654-64-64s28.654-64 64-64v0h148.48l-42.88-256h-169.6c-35.346 0-64-28.654-64-64s28.654-64 64-64v0h148.48l-20.48-117.76c-0.597-3.283-0.938-7.061-0.938-10.92 0-32.064 23.58-58.621 54.345-63.276l0.354-0.044h10.24c0.245-0.003 0.534-0.005 0.824-0.005 31.732 0 58.071 23.094 63.125 53.391l0.052 0.374 22.4 138.24h256l-22.4-117.76c-0.597-3.283-0.938-7.061-0.938-10.92 0-32.064 23.58-58.621 54.345-63.276l0.354-0.044h10.24c0.245-0.003 0.534-0.005 0.824-0.005 31.732 0 58.071 23.094 63.125 53.391l0.052 0.374 22.4 138.24h169.6c35.346 0 64 28.654 64 64s-28.654 64-64 64v0h-148.48l42.88 256h169.6c35.346 0 64 28.654 64 64s-28.654 64-64 64v0zM617.6 320h-256l42.88 256h256z" />
<glyph unicode="&#x59;" glyph-name="map" d="M988.8 824.96l-256 128h-45.44l-362.24-115.84-232.32 115.84c-9.179 5.391-20.218 8.574-32 8.574s-22.821-3.184-32.302-8.738l0.302 0.164c-17.507-11.609-28.893-31.231-28.893-53.512 0-1.213 0.034-2.418 0.1-3.614l-0.007 0.166v-768c0.077-24.767 14.212-46.215 34.84-56.792l0.36-0.168 256-128c8.409-4.156 18.269-6.72 28.693-7.037l0.107-0.003c2.789-0.463 6.004-0.728 9.28-0.728s6.491 0.265 9.623 0.774l-0.343-0.046 358.4 119.68 232.32-115.84c6.841-2.722 14.767-4.3 23.063-4.3 2.699 0 5.359 0.167 7.97 0.491l-0.312-0.032c0.061 0 0.133 0 0.205 0 12.485 0 24.134 3.575 33.981 9.757l-0.267-0.156c18.182 11.498 30.080 31.495 30.080 54.272 0 0.045 0 0.090 0 0.135v-0.007 768c-0.077 24.767-14.212 46.215-34.84 56.792l-0.36 0.168zM256 103.68l-128 64v624.64l128-64zM640 174.080l-256-85.12v632.96l256 85.12zM896 103.68l-128 64v624.64l128-64z" />
<glyph unicode="&#x5a;" glyph-name="eye" d="M1015.424 485.632c-98.112 202.688-329.792 346.368-504.128 346.368-172.288 0-400.512-140.288-500.608-339.264-14.272-28.416-14.272-61.184 0-89.536 100.096-198.912 328.32-339.2 500.608-339.2 174.336 0 406.016 143.68 504.128 346.496 11.392 23.488 11.392 51.584 0 75.136zM512 256c-106.048 0-192 85.952-192 192s85.952 192 192 192c25.152 0 49.024-5.12 71.040-13.952-41.92-20.992-71.040-63.936-71.040-114.048 0-70.72 57.28-128 128-128 20.416 0 39.424 5.184 56.512 13.696-22.208-81.536-95.936-141.696-184.512-141.696z" />
<glyph unicode="&#x5b;" glyph-name="person" d="M21.76 18.56c-2.557-6.647-4.038-14.336-4.038-22.372 0-35.346 28.654-64 64-64 30.114 0 55.37 20.798 62.188 48.814l0.090 0.438c48.778 159.952 195.034 274.31 368 274.31s319.222-114.358 367.285-271.589l0.715-2.721c8.2-26.545 32.52-45.498 61.267-45.498 0.961 0 1.917 0.021 2.868 0.063l-0.135-0.005c2.404-0.355 5.178-0.558 8-0.558s5.596 0.203 8.31 0.595l-0.31-0.037c26.632 8.146 45.667 32.509 45.667 61.318 0 6.666-1.019 13.093-2.91 19.135l0.122-0.453c-50.372 163.289-175.79 289.551-334.934 340.125l-3.626 0.995c100.973 55.157 168.32 160.598 168.32 281.768 0 176.731-143.269 320-320 320s-320-143.269-320-320c0-121.17 67.347-226.611 166.651-280.932l1.669-0.836c-162.502-50.906-287.995-176.189-338.21-334.933l-0.99-3.627zM320 640c0 106.039 85.961 192 192 192s192-85.961 192-192c0-106.039-85.961-192-192-192v0c-106.039 0-192 85.961-192 192v0z" />
<glyph unicode="&#x5c;" glyph-name="phone" horiz-adv-x="614" d="M614.4 51.149v819.302c0 56.525-45.824 102.349-102.349 102.349h-409.702c-56.525 0-102.349-45.824-102.349-102.349v-819.302c0-56.525 45.824-102.349 102.349-102.349h409.702c56.525 0 102.349 45.824 102.349 102.349zM358.4 0h-102.4v102.4h102.4v-102.4zM512 153.6h-409.6v614.4h409.6v-614.4z" />
<glyph unicode="&#x5d;" glyph-name="tablet" horiz-adv-x="768" d="M768-42.666v938.667c0 23.552-19.115 42.667-42.667 42.667h-682.667c-23.552 0-42.667-19.115-42.667-42.667v-938.667c0-23.552 19.115-42.667 42.667-42.667h682.667c23.552 0 42.667 19.115 42.667 42.667zM426.667-42.666h-85.333v85.333h85.333v-85.333zM682.667 85.334h-597.333v682.667h597.333v-682.667z" />
<glyph unicode="&#x5e;" glyph-name="desktop" horiz-adv-x="1260" d="M512.591 118.154c-0.433-61.519-6.302-118.154-39.975-118.154h-78.769c-21.74 0-39.385-17.644-39.385-39.385s17.644-39.385 39.385-39.385h472.615c21.74 0 39.385 17.644 39.385 39.385s-17.644 39.385-39.385 39.385h-78.769c-33.556 0-39.463 56.95-39.975 118.154h433.822c43.481 0 78.769 35.289 78.769 78.769v669.538c0 43.52-35.289 78.769-78.769 78.769h-1102.769c-43.481 0-78.769-35.249-78.769-78.769v-669.538c0-43.481 35.289-78.769 78.769-78.769h433.822zM1181.538 275.693h-1102.769v590.769h1102.769v-590.769z" />
<glyph unicode="&#x60;" glyph-name="login" d="M512 832c56.163-0.505 106.495-25.047 141.282-63.821l0.158-0.179c11.765-12.865 28.624-20.903 47.36-20.903 35.403 0 64.103 28.7 64.103 64.103 0 16.667-6.361 31.848-16.787 43.249l0.044-0.049c-58.715 64.056-142.767 104.068-236.164 104.068-176.192 0-319.126-142.397-319.996-318.385v-0.083h-64c-35.346 0-64-28.654-64-64v0-576c0-35.346 28.654-64 64-64v0h768c35.346 0 64 28.654 64 64v0 576c0 35.346-28.654 64-64 64v0h-576c0 106.039 85.961 192 192 192v0zM832 512v-448h-640v448zM512 192c35.346 0 64 28.654 64 64v0 64c0 35.346-28.654 64-64 64s-64-28.654-64-64v0-64c0-35.346 28.654-64 64-64v0z" />
<glyph unicode="&#x61;" glyph-name="header" d="M960 960h-896c-35.346 0-64-28.654-64-64v0-896c0-35.346 28.654-64 64-64v0h896c35.346 0 64 28.654 64 64v0 896c0 35.346-28.654 64-64 64v0zM896 64h-768v384h768zM896 576h-768v256h768zM320 640h384c35.346 0 64 28.654 64 64s-28.654 64-64 64v0h-384c-35.346 0-64-28.654-64-64s28.654-64 64-64v0z" />
<glyph unicode="&#x62;" glyph-name="follow" d="M64-64c2.693-0.446 5.797-0.701 8.96-0.701s6.267 0.255 9.291 0.745l-0.331-0.044c0.815-0.037 1.772-0.058 2.733-0.058 28.747 0 53.067 18.953 61.146 45.045l0.121 0.453c48.501 159.445 193.831 273.636 365.972 274.56h0.108c0.192 0 0.419 0.001 0.646 0.001 37.87 0 74.429-5.613 108.89-16.052l-2.656 0.692c5.317-1.594 11.427-2.511 17.751-2.511 29.176 0 53.793 19.524 61.498 46.219l0.112 0.452c1.402 4.998 2.208 10.738 2.208 16.666 0 25.704-15.153 47.869-37.014 58.049l-0.394 0.165c101.151 55.107 168.64 160.642 168.64 281.94 0 176.731-143.269 320-320 320s-320-143.269-320-320c0-121.298 67.489-226.833 166.965-281.104l1.675-0.836c-162.77-51.569-288.188-177.831-337.593-337.492l-0.967-3.628c-2.287-6.311-3.609-13.595-3.609-21.188 0-28.876 19.123-53.285 45.396-61.254l0.453-0.118zM320 640c0 106.039 85.961 192 192 192s192-85.961 192-192c0-106.039-85.961-192-192-192v0c-106.039 0-192 85.961-192 192v0zM960 192h-64v64c0 35.346-28.654 64-64 64s-64-28.654-64-64v0-64h-64c-35.346 0-64-28.654-64-64s28.654-64 64-64v0h64v-64c0-35.346 28.654-64 64-64s64 28.654 64 64v0 64h64c35.346 0 64 28.654 64 64s-28.654 64-64 64v0z" />
<glyph unicode="&#x63;" glyph-name="filtered-portfolio" d="M960 704h-896c-35.346 0-64-28.654-64-64v0-640c0-35.346 28.654-64 64-64v0h896c35.346 0 64 28.654 64 64v0 640c0 35.346-28.654 64-64 64v0zM448 64h-320v192h320zM448 384h-320v192h320zM896 64h-320v192h320zM896 384h-320v192h320zM64 832h128c35.346 0 64 28.654 64 64s-28.654 64-64 64v0h-128c-35.346 0-64-28.654-64-64s28.654-64 64-64v0zM512 832c35.346 0 64 28.654 64 64s-28.654 64-64 64v0h-128c-35.346 0-64-28.654-64-64s28.654-64 64-64v0zM832 832c35.346 0 64 28.654 64 64s-28.654 64-64 64v0h-128c-35.346 0-64-28.654-64-64s28.654-64 64-64v0z" />
<glyph unicode="&#x64;" glyph-name="divider" d="M64 384h384v-229.76l-18.56 19.2c-11.629 11.629-27.695 18.822-45.44 18.822-35.491 0-64.262-28.771-64.262-64.262 0-17.745 7.193-33.811 18.822-45.44l128-128c5.905-5.66 12.923-10.212 20.687-13.289l0.433-0.151c7.156-3.244 15.517-5.135 24.32-5.135s17.164 1.891 24.699 5.288l-0.379-0.153c8.197 3.228 15.215 7.78 21.143 13.462l-0.023-0.022 128 128c11.629 11.629 18.822 27.695 18.822 45.44 0 35.491-28.771 64.262-64.262 64.262-17.745 0-33.811-7.193-45.44-18.822v0l-18.56-19.2v229.76h384c35.346 0 64 28.654 64 64s-28.654 64-64 64v0h-384v229.76l18.56-19.2c11.6-11.693 27.675-18.931 45.44-18.931s33.84 7.238 45.436 18.927l0.004 0.004c11.693 11.6 18.931 27.675 18.931 45.44s-7.238 33.84-18.927 45.436l-128.004 128.004c-5.905 5.66-12.923 10.212-20.687 13.289l-0.433 0.151c-7.19 3.036-15.549 4.801-24.32 4.801s-17.13-1.764-24.742-4.958l0.422 0.157c-8.197-3.228-15.215-7.78-21.143-13.462l0.023 0.022-128-128c-11.629-11.629-18.822-27.695-18.822-45.44 0-35.491 28.771-64.262 64.262-64.262 17.745 0 33.811 7.193 45.44 18.822v0l18.56 19.2v-229.76h-384c-35.346 0-64-28.654-64-64s28.654-64 64-64v0z" />
<glyph unicode="&#x65;" glyph-name="cta" d="M896 668.8v99.2c0.018 0.559 0.028 1.217 0.028 1.877 0 35.346-28.654 64-64 64-5.464 0-10.768-0.685-15.83-1.973l0.443 0.096-504.32-128h-120.32c-106.039 0-192-85.961-192-192v0-128c0-106.039 85.961-192 192-192v0h64v-192c0-35.346 28.654-64 64-64s64 28.654 64 64v0 174.080l432.64-110.080h15.36c35.346 0 64 28.654 64 64v0 99.2c76.189 45.287 126.449 127.174 126.449 220.8s-50.26 175.512-125.272 220.151l-1.177 0.649zM256 320h-64c-35.346 0-64 28.654-64 64v0 128c0 35.346 28.654 64 64 64v0h64zM768 209.92l-384 96v284.16l384 96z" />
<glyph unicode="&#x66;" glyph-name="circle-counter" d="M512 960c-35.346 0-64-28.654-64-64s28.654-64 64-64v0c211.696-0.504 383.114-172.233 383.114-383.999 0-212.077-171.923-384-384-384s-384 171.923-384 384c0 70.692 19.102 136.922 52.427 193.811l-0.981-1.812c5.249 9.083 8.345 19.98 8.345 31.6 0 23.574-12.746 44.172-31.723 55.277l-0.303 0.164c-9.265 5.519-20.43 8.782-32.357 8.782-23.492 0-44.028-12.657-55.16-31.524l-0.163-0.298c-43.124-73.435-68.594-161.742-68.594-255.998 0-282.77 229.23-512 512-512s512 229.23 512 512c0 282.28-228.436 511.205-510.53 511.998h-0.076zM448 640c0-35.346-28.654-64-64-64s-64 28.654-64 64c0 35.346 28.654 64 64 64s64-28.654 64-64zM704 256c0-35.346-28.654-64-64-64s-64 28.654-64 64c0 35.346 28.654 64 64 64s64-28.654 64-64zM586.88 675.2l-256-384c-6.58-9.894-10.499-22.051-10.499-35.123 0-22.081 11.182-41.55 28.193-53.053l0.226-0.144c9.617-6.809 21.589-10.884 34.512-10.884 0.242 0 0.483 0.001 0.725 0.004h-0.037c22.116 0.118 41.563 11.435 52.973 28.566l0.147 0.234 256 384c6.58 9.894 10.499 22.051 10.499 35.123 0 22.081-11.182 41.55-28.193 53.053l-0.226 0.144c-9.894 6.58-22.051 10.499-35.123 10.499-22.081 0-41.55-11.182-53.053-28.193l-0.144-0.226z" />
<glyph unicode="&#x67;" glyph-name="blurb" d="M256 512c0-35.346 28.654-64 64-64v0h384c35.346 0 64 28.654 64 64s-28.654 64-64 64v0h-384c-35.346 0-64-28.654-64-64v0zM320-64c-11.535 0.036-22.343 3.119-31.671 8.485l0.311-0.165c-19.592 11.166-32.598 31.9-32.64 55.674v128.006h-192c-35.346 0-64 28.654-64 64v0 640c0 35.346 28.654 64 64 64v0h896c35.346 0 64-28.654 64-64v0-640c0-35.346-28.654-64-64-64v0h-302.080l-305.28-183.040c-9.33-5.626-20.596-8.956-32.639-8.96h-0.001zM128 256h192c35.346 0 64-28.654 64-64v0-78.72l223.36 133.76c9.33 5.626 20.596 8.956 32.639 8.96h256.001v512h-768z" />
<glyph unicode="&#x68;" glyph-name="bar-counters" d="M64 640h896c35.346 0 64 28.654 64 64s-28.654 64-64 64v0h-896c-35.346 0-64-28.654-64-64s28.654-64 64-64v0zM64 384h640c35.346 0 64 28.654 64 64s-28.654 64-64 64v0h-640c-35.346 0-64-28.654-64-64s28.654-64 64-64v0zM64 128h832c35.346 0 64 28.654 64 64s-28.654 64-64 64v0h-832c-35.346 0-64-28.654-64-64s28.654-64 64-64v0z" />
<glyph unicode="&#x69;" glyph-name="audio" d="M192 192h320l284.8-192c9.617-6.809 21.589-10.884 34.512-10.884 0.242 0 0.483 0.001 0.725 0.004h-0.037c35.346 0 64 28.654 64 64v0 787.2c0 35.346-28.654 64-64 64v0c-0.204 0.003-0.446 0.004-0.688 0.004-12.924 0-24.895-4.075-34.7-11.010l0.188 0.126-284.8-189.44h-320c-35.346 0-64-28.654-64-64v0-384c0-35.346 28.654-64 64-64v0zM256 576h256c26.506 0.076 51.1 8.196 71.487 22.046l-0.447-0.286 184.96 122.88v-545.28l-184.96 122.88c-19.94 13.564-44.534 21.684-71.021 21.76h-256.019z" />
<glyph unicode="&#x6a;" glyph-name="posts_carousel_module" d="M1024 640c0 35.346-28.654 64-64 64v0h-64c-35.346 0-64-28.654-64-64v0-384c0-35.346 28.654-64 64-64v0h64c35.346 0 64 28.654 64 64s-28.654 64-64 64v0 256c35.346 0 64 28.654 64 64v0zM768 256v384c0 35.346-28.654 64-64 64v0h-384c-35.346 0-64-28.654-64-64v0-384c0-35.346 28.654-64 64-64v0h384c35.346 0 64 28.654 64 64v0zM640 320h-256v256h256zM192 640c0 35.346-28.654 64-64 64v0h-64c-35.346 0-64-28.654-64-64s28.654-64 64-64v0-256c-35.346 0-64-28.654-64-64s28.654-64 64-64v0h64c35.346 0 64 28.654 64 64v0zM576 64c0-35.346-28.654-64-64-64s-64 28.654-64 64c0 35.346 28.654 64 64 64s64-28.654 64-64zM832 64c0-35.346-28.654-64-64-64s-64 28.654-64 64c0 35.346 28.654 64 64 64s64-28.654 64-64zM320 64c0-35.346-28.654-64-64-64s-64 28.654-64 64c0 35.346 28.654 64 64 64s64-28.654 64-64z" />
<glyph unicode="&#x6b;" glyph-name="posts_slider_module" d="M576 0c0-35.346-28.654-64-64-64s-64 28.654-64 64c0 35.346 28.654 64 64 64s64-28.654 64-64zM832 0c0-35.346-28.654-64-64-64s-64 28.654-64 64c0 35.346 28.654 64 64 64s64-28.654 64-64zM320 0c0-35.346-28.654-64-64-64s-64 28.654-64 64c0 35.346 28.654 64 64 64s64-28.654 64-64zM960 960h-896c-35.346 0-64-28.654-64-64v0-704c0-35.346 28.654-64 64-64v0h896c35.346 0 64 28.654 64 64v0 704c0 35.346-28.654 64-64 64v0zM896 256h-768v576h768zM320 576h384c35.346 0 64 28.654 64 64s-28.654 64-64 64v0h-384c-35.346 0-64-28.654-64-64s28.654-64 64-64v0zM320 384h128c35.346 0 64 28.654 64 64s-28.654 64-64 64v0h-128c-35.346 0-64-28.654-64-64s28.654-64 64-64v0z" />
<glyph unicode="&#x6c;" glyph-name="blogfeed_masonry_module" d="M384 960h-320c-35.346 0-64-28.654-64-64v0-192c0-35.346 28.654-64 64-64v0h320c35.346 0 64 28.654 64 64v0 192c0 35.346-28.654 64-64 64v0zM320 768h-192v64h192zM960 960h-320c-35.346 0-64-28.654-64-64v0-448c0-35.346 28.654-64 64-64v0h320c35.346 0 64 28.654 64 64v0 448c0 35.346-28.654 64-64 64v0zM896 512h-192v320h192zM384 512h-320c-35.346 0-64-28.654-64-64v0-448c0-35.346 28.654-64 64-64v0h320c35.346 0 64 28.654 64 64v0 448c0 35.346-28.654 64-64 64v0zM320 64h-192v320h192zM960 256h-320c-35.346 0-64-28.654-64-64v0-192c0-35.346 28.654-64 64-64v0h320c35.346 0 64 28.654 64 64v0 192c0 35.346-28.654 64-64 64v0zM896 64h-192v64h192z" />
<glyph unicode="&#x6d;" glyph-name="blogfeed_standard_module" d="M960 960c-35.346 0-64-28.654-64-64v0-64h-768v64c0 35.346-28.654 64-64 64s-64-28.654-64-64v0-128c0-35.346 28.654-64 64-64v0h896c35.346 0 64 28.654 64 64v0 128c0 35.346-28.654 64-64 64v0zM960 640h-896c-35.346 0-64-28.654-64-64v0-256c0-35.346 28.654-64 64-64v0h896c35.346 0 64 28.654 64 64v0 256c0 35.346-28.654 64-64 64v0zM896 384h-768v128h768zM960 192h-896c-35.346 0-64-28.654-64-64v0-128c0-35.346 28.654-64 64-64s64 28.654 64 64v0 64h768v-64c0-35.346 28.654-64 64-64s64 28.654 64 64v0 128c0 35.346-28.654 64-64 64v0z" />
<glyph unicode="&#x6e;" glyph-name="tabbed_posts_module" d="M960 896h-896c-35.346 0-64-28.654-64-64v0-768c0-35.346 28.654-64 64-64v0h896c35.346 0 64 28.654 64 64v0 768c0 35.346-28.654 64-64 64v0zM512 768h128v-128h-128zM896 128h-768v640h256v-192c0-35.346 28.654-64 64-64v0h448zM896 640h-128v128h128z" />
<glyph unicode="&#x6f;" glyph-name="responsive_icon" d="M192 832.38v-768.76c0-70.371 57.297-127.62 127.975-127.62h384.049c71.18 0 127.975 57.137 127.975 127.62v768.76c0 70.371-57.297 127.62-127.975 127.62h-384.049c-71.18 0-127.975-57.137-127.975-127.62zM448 64h128v-64h-128v64zM320 768h384v-640h-384v640z" />
<glyph unicode="&#x70;" glyph-name="accordion" d="M960 704h-896c-35.346 0-64-28.654-64-64v0-384c0-35.346 28.654-64 64-64v0h896c35.346 0 64 28.654 64 64v0 384c0 35.346-28.654 64-64 64v0zM896 320h-768v256h768zM960 960h-896c-35.346 0-64-28.654-64-64s28.654-64 64-64v0h896c35.346 0 64 28.654 64 64s-28.654 64-64 64v0zM960 64h-896c-35.346 0-64-28.654-64-64s28.654-64 64-64v0h896c35.346 0 64 28.654 64 64s-28.654 64-64 64v0z" />
<glyph unicode="&#x71;" glyph-name="video" d="M433.92 268.16l229.76 152.96c8.862 5.788 14.637 15.66 14.637 26.88s-5.775 21.092-14.515 26.805l-0.122 0.075-229.76 152.96c-5.025 3.438-11.234 5.49-17.922 5.49-17.673 0-32-14.327-32-32 0-0.13 0.001-0.26 0.002-0.389v0.020-305.92c-0.001-0.11-0.002-0.24-0.002-0.37 0-17.673 14.327-32 32-32 6.688 0 12.897 2.052 18.032 5.561l-0.11-0.071zM960 960h-896c-35.346 0-64-28.654-64-64v0-896c0-35.346 28.654-64 64-64v0h896c35.346 0 64 28.654 64 64v0 896c0 35.346-28.654 64-64 64v0zM896 64h-768v768h768z" />
<glyph unicode="&#x72;" glyph-name="video-gallery" d="M576 0c0-35.346-28.654-64-64-64s-64 28.654-64 64c0 35.346 28.654 64 64 64s64-28.654 64-64zM832 0c0-35.346-28.654-64-64-64s-64 28.654-64 64c0 35.346 28.654 64 64 64s64-28.654 64-64zM320 0c0-35.346-28.654-64-64-64s-64 28.654-64 64c0 35.346 28.654 64 64 64s64-28.654 64-64zM960 960h-896c-35.346 0-64-28.654-64-64v0-704c0-35.346 28.654-64 64-64v0h896c35.346 0 64 28.654 64 64v0 704c0 35.346-28.654 64-64 64v0zM896 256h-768v576h768zM432 380.8l226.56 135.68c9.13 5.889 15.090 16.008 15.090 27.52s-5.959 21.631-14.961 27.442l-0.128 0.078-226.56 132.48c-4.63 2.757-10.21 4.386-16.17 4.386-16.513 0-30.105-12.508-31.818-28.566l-0.012-0.14v-271.36c0.109-17.59 14.394-31.808 31.999-31.808 5.891 0 11.411 1.592 16.152 4.369l-0.151-0.082z" />
<glyph unicode="&#x73;" glyph-name="columns" d="M800 672h-576c-17.664 0-32-14.336-32-32v-384c0-17.664 14.336-32 32-32h576c17.664 0 32 14.336 32 32v384c0 17.664-14.336 32-32 32zM448 608h128v-320h-128v320zM384 288h-128v320h128v-320zM640 608h128v-320h-128v320z" />
<glyph unicode="&#x74;" glyph-name="code" d="M210.56 210.56c11.6-11.693 27.675-18.931 45.44-18.931s33.84 7.238 45.436 18.927l0.004 0.004c11.693 11.6 18.931 27.675 18.931 45.44s-7.238 33.84-18.927 45.436l-0.004 0.004-147.2 146.56 147.2 146.56c11.629 11.629 18.822 27.695 18.822 45.44 0 35.491-28.771 64.262-64.262 64.262-17.745 0-33.811-7.193-45.44-18.822l-192-192c-11.693-11.6-18.931-27.675-18.931-45.44s7.238-33.84 18.927-45.436l0.004-0.004zM813.44 685.44c-11.629 11.629-27.695 18.822-45.44 18.822-35.491 0-64.262-28.771-64.262-64.262 0-17.745 7.193-33.811 18.822-45.44v0l147.2-146.56-147.2-146.56c-11.693-11.6-18.931-27.675-18.931-45.44s7.238-33.84 18.927-45.436l0.004-0.004c11.6-11.693 27.675-18.931 45.44-18.931s33.84 7.238 45.436 18.927l192.004 192.004c11.693 11.6 18.931 27.675 18.931 45.44s-7.238 33.84-18.927 45.436l-0.004 0.004zM435.2 64h12.8c0.384-0.008 0.837-0.013 1.29-0.013 30.82 0 56.552 21.785 62.636 50.796l0.073 0.417 128 640c0.806 3.848 1.267 8.27 1.267 12.8 0 36.046-29.221 65.267-65.267 65.267-31.516 0-57.815-22.338-63.928-52.046l-0.072-0.422-128-640c-0.958-4.149-1.506-8.912-1.506-13.804 0-31.355 22.547-57.443 52.313-62.935l0.394-0.060z" />
<glyph unicode="&#x75;" glyph-name="arrow_carrot-down" d="M729.024 518.4l-185.024-185.024-185.024 185.024c-12.48 12.48-32.768 12.48-45.248 0s-12.48-32.768 0-45.248l207.552-207.552c6.272-6.272 14.528-9.408 22.72-9.344 8.256 0 16.448 3.072 22.72 9.344l207.552 207.552c12.48 12.48 12.48 32.768 0 45.248s-32.768 12.48-45.248 0z" />
<glyph unicode="&#x76;" glyph-name="underline" d="M712 733.76h-48c-13.248 0-24-10.752-24-24v-310.912c0-66.88-48.896-126.528-115.392-132.928-4.288-0.448-8.448-0.64-12.608-0.64-70.72 0-128 57.28-128 128v316.48c0 13.248-10.752 24-24 24h-48c-13.248 0-24-10.752-24-24v-314.048c0-122.624 94.528-229.632 217.088-233.28 2.304-0.128 4.608-0.192 6.912-0.192 123.712 0 224 100.288 224 224v323.52c0 13.248-10.752 24-24 24v0zM256 56.32v15.36c0 13.44 10.88 24.32 24.32 24.32h463.36c13.44 0 24.32-10.88 24.32-24.32v-15.36c0-13.44-10.88-24.32-24.32-24.32h-463.36c-13.44 0-24.32 10.88-24.32 24.32z" />
<glyph unicode="&#x77;" glyph-name="bold" d="M512 640c35.264 0 64-28.736 64-64s-28.736-64-64-64h-96v128h96zM512 736h-168c-13.248 0-24-10.752-24-24v-296h192c88.384 0 160 71.616 160 160s-71.616 160-160 160v0zM536 416c39.68 0 72-32.32 72-72v-16c0-39.68-32.32-72-72-72h-120v160h120zM536 512h-216v-328c0-13.248 10.752-24 24-24h192c92.416 0 168 75.584 168 168v16c0 92.416-75.584 168-168 168v0z" />
<glyph unicode="&#x78;" glyph-name="italic" d="M404.16 671.040l14.656 48c3.136 10.048 12.416 16.96 22.976 16.96h301.824c16.128 0 27.648-15.616 22.976-31.040l-14.656-48c-3.136-10.048-12.416-16.96-22.976-16.96h-301.824c-16.128 0-27.648 15.616-22.976 31.040zM257.408 191.040l14.656 48c3.136 10.048 12.416 16.96 22.976 16.96h301.824c16.128 0 27.648-15.616 22.976-31.040l-14.656-48c-3.136-10.048-12.416-16.96-22.976-16.96h-301.824c-16.128 0-27.648 15.616-22.976 31.040zM460.608 160h-52.224c-16.128 0-27.648 15.616-22.976 31.040l161.408 528c3.136 10.048 12.416 16.96 22.976 16.96h52.224c16.128 0 27.648-15.616 22.976-31.040l-161.472-528c-3.072-10.048-12.416-16.96-22.912-16.96z" />
<glyph unicode="&#x79;" glyph-name="uppercase" d="M128 664.32v47.36c0 13.44 10.88 24.32 24.32 24.32h303.36c13.44 0 24.32-10.88 24.32-24.32v-47.36c0-13.44-10.88-24.32-24.32-24.32h-303.36c-13.44 0-24.32 10.88-24.32 24.32zM327.68 160h-47.36c-13.44 0-24.32 10.88-24.32 24.32v527.36c0 13.44 10.88 24.32 24.32 24.32h47.36c13.44 0 24.32-10.88 24.32-24.32v-527.36c0-13.44-10.88-24.32-24.32-24.32zM544 661.632v52.736c0 11.968 9.664 21.632 21.632 21.632h308.736c11.968 0 21.632-9.664 21.632-21.632v-52.736c0-11.968-9.664-21.632-21.632-21.632h-308.736c-11.968 0-21.632 9.664-21.632 21.632zM743.68 160h-47.36c-13.44 0-24.32 10.88-24.32 24.32v527.36c0 13.44 10.88 24.32 24.32 24.32h47.36c13.44 0 24.32-10.88 24.32-24.32v-527.36c0-13.44-10.88-24.32-24.32-24.32z" />
<glyph unicode="&#x7a;" glyph-name="comments_module" d="M384 512c0-35.346-28.654-64-64-64s-64 28.654-64 64c0 35.346 28.654 64 64 64s64-28.654 64-64zM576 512c0-35.346-28.654-64-64-64s-64 28.654-64 64c0 35.346 28.654 64 64 64s64-28.654 64-64zM768 512c0-35.346-28.654-64-64-64s-64 28.654-64 64c0 35.346 28.654 64 64 64s64-28.654 64-64zM320-64c-11.535 0.036-22.343 3.119-31.671 8.485l0.311-0.165c-19.592 11.166-32.598 31.9-32.64 55.674v128.006h-192c-35.346 0-64 28.654-64 64v0 640c0 35.346 28.654 64 64 64v0h896c35.346 0 64-28.654 64-64v0-640c0-35.346-28.654-64-64-64v0h-302.080l-305.28-183.040c-9.33-5.626-20.596-8.956-32.639-8.96h-0.001zM128 256h192c35.346 0 64-28.654 64-64v0-78.72l223.36 133.76c9.33 5.626 20.596 8.956 32.639 8.96h256.001v512h-768z" />
<glyph unicode="&#x7b;" glyph-name="posts_module" d="M896 960h-768c-35.346 0-64-28.654-64-64v0-896c0-35.346 28.654-64 64-64v0h768c35.346 0 64 28.654 64 64v0 896c0 35.346-28.654 64-64 64v0zM832 64h-640v64h640zM832 256h-640v64h640zM832 448h-640v384h640z" />
<glyph unicode="&#x7c;" glyph-name="button_module" d="M960 832h-896c-35.346 0-64-28.654-64-64v0-512c0-35.346 28.654-64 64-64v0h384v128h-320v384h768v-208.64l118.4-111.36c3.84-3.84 6.4-8.32 9.6-12.16v396.16c0 35.346-28.654 64-64 64v0zM926.080 289.92l-286.080 273.28c-6.784 6.564-16.041 10.609-26.242 10.609-20.854 0-37.76-16.906-37.76-37.76 0-0.13 0.001-0.259 0.002-0.389v0.020-401.92c0-20.854 16.906-37.76 37.76-37.76v0c0.344-0.012 0.749-0.019 1.156-0.019 5.381 0 10.486 1.186 15.066 3.311l-0.221-0.092 86.4 39.040 51.84-117.76 8.32-20.48c8.696-20.108 28.361-33.923 51.253-33.923 0.206 0 0.412 0.001 0.618 0.003h-0.031c30.729 0.030 55.628 24.947 55.628 55.68 0 7.86-1.629 15.34-4.567 22.12l0.139-0.36-11.52 20.48-49.28 118.4 96.64 43.52c13.985 5.946 23.613 19.568 23.613 35.439 0 11.324-4.901 21.503-12.698 28.531l-0.034 0.030z" />
<glyph unicode="&#x7d;" glyph-name="search_module" d="M448 896c-0.394 0.001-0.861 0.002-1.327 0.002-212.077 0-384-171.923-384-384s171.923-384 384-384c83.833 0 161.392 26.864 224.537 72.454l-1.129-0.776 180.48-181.12c11.6-11.693 27.675-18.931 45.44-18.931s33.84 7.238 45.436 18.927l0.004 0.004c11.693 11.6 18.931 27.675 18.931 45.44s-7.238 33.84-18.927 45.436l-180.484 180.484c44.234 61.749 70.733 138.82 70.733 222.080 0 211.969-171.748 383.825-383.676 384h-0.016zM448 256c-141.385 0-256 114.615-256 256s114.615 256 256 256c141.385 0 256-114.615 256-256v0c0-141.385-114.615-256-256-256v0z" />
<glyph unicode="&#x2200;" glyph-name="ab_test_icon" d="M768 832.38c0 70.483 56.815 127.62 128 127.62 70.692 0 128-57.249 128-127.62v-768.76c0-70.483-56.815-127.62-128-127.62-70.692 0-128 57.249-128 127.62v768.76zM384 575.454c0 70.994 56.815 128.546 128 128.546 70.692 0 128-57.725 128-128.546v-510.908c0-70.994-56.815-128.546-128-128.546-70.692 0-128 57.725-128 128.546v510.908zM0 320.122c0 70.625 56.815 127.878 128 127.878 70.692 0 128-56.749 128-127.878v-256.243c0-70.625-56.815-127.878-128-127.878-70.692 0-128 56.749-128 127.878v256.243z" />
<glyph unicode="&#xe900;" glyph-name="import_export" d="M819.2 260.425l65.147 69.098c19.398 20.575 51.802 21.528 72.376 2.131s21.528-51.802 2.131-72.376l-144.815-153.6c-12.246-12.988-29.674-18.158-46.038-15.324-16.364-2.834-33.792 2.335-46.038 15.324l-144.815 153.6c-19.398 20.575-18.444 52.979 2.131 72.376s52.979 18.444 72.376-2.131l65.147-69.098v341.175c0 28.277 22.923 51.2 51.2 51.2s51.2-22.923 51.2-51.2v-341.175zM307.2 635.575l65.147-69.098c19.398-20.575 51.802-21.528 72.376-2.131s21.528 51.802 2.131 72.376l-144.815 153.6c-12.246 12.988-29.674 18.157-46.038 15.324-16.364 2.834-33.792-2.335-46.038-15.324l-144.815-153.6c-19.398-20.575-18.444-52.979 2.131-72.376s52.979-18.444 72.376 2.131l65.147 69.098v-366.775c0-28.277 22.923-51.2 51.2-51.2s51.2 22.923 51.2 51.2v366.775z" />
<glyph unicode="&#xe901;" glyph-name="page_views" d="M367.957 412.318c0.59 2.093 1.193 4.148 1.809 6.162 0.472-0.63 0.948-1.256 1.426-1.877-1.023-1.408-2.102-2.841-3.235-4.285zM548.411 810.896c0.086 1.502 0.179 3.060 0.28 4.676 2.5 39.827 8.060 53.872 19.204 74.694 25.073 46.848 74.742 69.734 117.2 69.734s92.128-22.886 117.2-69.734c11.144-20.822 16.704-34.867 19.204-74.694 1.378-21.949 1.237-33.004 0.833-42.853 15.847-1.554 24.204-12.688 13.526-56.412-6.873-28.141-16.364-43.413-24.483-51.266-8.072-30.633-20.692-57.649-36.839-78.899 6.174-8.6 14.624-18.256 24.934-24.912 22.875-14.769 141.825-49.231 183-103.385 29.627-38.966 40.305-159.496 43.964-224.038 1.426-25.157-37.999-41.808-37.999-41.808h-152.194c-7.29 35.011-16.991 65.308-29.881 82.051-46.322 60.171-180.141 98.462-205.875 114.872-11.598 7.396-21.105 18.124-28.050 27.68 18.165 23.612 32.362 53.629 41.444 87.666 9.133 8.725 19.811 25.694 27.543 56.962 12.013 48.582 2.612 60.953-15.217 62.68 0.455 10.943 0.613 23.226-0.937 47.614-2.813 44.252-9.068 59.858-21.604 82.993-13.431 24.786-33.137 43.536-55.253 56.378zM43.138-64c0 0-42.36 19.304-40.668 48.267 4.214 72.135 16.303 204.185 49.354 247.118 46.322 60.171 180.141 98.462 205.875 114.872 11.598 7.396 21.105 18.124 28.050 27.68-18.165 23.612-32.362 53.629-41.444 87.666-9.133 8.725-19.811 25.694-27.543 56.962-12.013 48.582-2.612 60.953 15.217 62.68-0.455 10.943-0.613 23.226 0.937 47.614 2.813 44.252 9.068 59.858 21.604 82.993 28.207 52.053 84.084 77.482 131.85 77.482s103.644-25.429 131.85-77.482c12.536-23.135 18.792-38.741 21.604-82.993 1.55-24.388 1.392-36.671 0.937-47.614 17.828-1.727 27.23-14.097 15.217-62.68-7.732-31.268-18.41-48.237-27.543-56.962-9.081-34.036-23.278-64.054-41.444-87.666 6.945-9.555 16.452-20.284 28.050-27.68 25.734-16.41 159.553-54.701 205.875-114.872 33.331-43.296 45.343-177.218 49.459-248.932 1.604-27.952-42.749-46.453-42.749-46.453z" />
<glyph unicode="&#xe902;" glyph-name="sync" d="M889.6 499.2c-6.4 51.2-70.4 70.4-108.8 38.4v0c-12.8-12.8-19.2-32-12.8-57.6 0-12.8 0-25.6 0-32 0-140.8-115.2-256-256-256v64c0 25.6-32 38.4-51.2 25.6l-172.8-128c-19.2-12.8-19.2-38.4 0-51.2l172.8-128c19.2-12.8 51.2 0 51.2 25.6v64c211.2 0 384 172.8 384 384 0 19.2 0 38.4-6.4 51.2zM256 448c0 140.8 115.2 256 256 256v-64c0-25.6 32-38.4 51.2-25.6l172.8 128c19.2 12.8 19.2 38.4 0 51.2l-172.8 128c-19.2 12.8-51.2 0-51.2-25.6v-64c-211.2 0-384-172.8-384-384 0-19.2 0-38.4 6.4-51.2 6.4-57.6 70.4-76.8 108.8-38.4v0c12.8 12.8 19.2 32 12.8 57.6 0 6.4 0 19.2 0 32z" />
<glyph unicode="&#xe903;" glyph-name="woo-add-to-cart" d="M968.96 960c-2.853 0.451-6.144 0.708-9.494 0.708-32.437 0-59.238-24.131-63.43-55.42l-0.036-0.328-55.68-392.96h-656.64l-55.68 392.96c-4.553 31.628-31.47 55.664-64 55.664-35.691 0-64.624-28.933-64.624-64.624 0-3.16 0.227-6.268 0.665-9.307l-0.041 0.347 64-443.52v-251.52c0-35.346 28.654-64 64-64v0h704c35.346 0 64 28.654 64 64v0 0c0 35.346-28.654 64-64 64v0h-640v128h704c0.187-0.002 0.408-0.003 0.63-0.003 32.187 0 58.824 23.76 63.329 54.697l0.041 0.346 64 448c0.451 2.853 0.708 6.144 0.708 9.494 0 32.437-24.131 59.238-55.42 63.43l-0.328 0.036zM512 960c-35.346 0-64-28.654-64-64v0-64h-64c-35.346 0-64-28.654-64-64s28.654-64 64-64v0h64v-64c0-35.346 28.654-64 64-64s64 28.654 64 64v0 64h64c35.346 0 64 28.654 64 64s-28.654 64-64 64v0h-64v64c0 35.346-28.654 64-64 64v0zM256 0c0-35.346-28.654-64-64-64s-64 28.654-64 64c0 35.346 28.654 64 64 64s64-28.654 64-64zM832 0c0-35.346-28.654-64-64-64s-64 28.654-64 64c0 35.346 28.654 64 64 64s64-28.654 64-64z" />
<glyph unicode="&#xe904;" glyph-name="woo-breadcrumbs" d="M141.44 802.56c-11.541 17.789-31.29 29.401-53.754 29.44h-23.686c-35.346 0-64-28.654-64-64v0-640c0-35.346 28.654-64 64-64v0h23.68c22.469 0.039 42.218 11.65 53.609 29.191l0.151 0.249 205.44 320c6.355 9.771 10.133 21.724 10.133 34.56s-3.779 24.79-10.285 34.809l0.151-0.249zM960 832h-535.68c-0.038 0-0.083 0-0.128 0-35.346 0-64-28.654-64-64 0-12.57 3.624-24.293 9.883-34.183l-0.155 0.262 179.84-286.080-179.84-286.080c-6.105-9.627-9.728-21.35-9.728-33.92 0-35.346 28.654-64 64-64 0.045 0 0.090 0 0.135 0h535.673c35.346 0 64 28.654 64 64v0 640c0 35.346-28.654 64-64 64v0zM896 192h-355.84l139.52 222.080c6.105 9.627 9.728 21.35 9.728 33.92s-3.624 24.293-9.883 34.182l0.155-0.262-139.52 222.080h355.84z" />
<glyph unicode="&#xe905;" glyph-name="woo-images" d="M960 960h-896c-35.346 0-64-28.654-64-64v0-640c0-35.346 28.654-64 64-64v0h896c8.1 0.15 15.777 1.781 22.829 4.633l-0.429-0.153h5.76c5.257 2.109 9.735 5.149 13.431 8.951l0.009 0.009 5.12 3.84c4.385 5.017 8.221 10.694 11.307 16.814l0.213 0.466c3.774 7.112 5.99 15.55 5.99 24.505 0 1.738-0.083 3.456-0.247 5.151l0.017-0.216s0 0 0 0v640c0 35.346-28.654 64-64 64v0zM128 320v165.76l128 128 210.56-211.2c11.6-11.693 27.675-18.931 45.44-18.931s33.84 7.238 45.436 18.927l0.004 0.004 82.56 83.2 165.76-165.76zM896 410.24l-210.56 211.2c-11.6 11.693-27.675 18.931-45.44 18.931s-33.84-7.238-45.436-18.927l-0.004-0.004-82.56-83.2-210.56 211.2c-11.6 11.693-27.675 18.931-45.44 18.931s-33.84-7.238-45.436-18.927l-0.004-0.004-82.56-83.2v165.76h768zM64-64h128c35.346 0 64 28.654 64 64s-28.654 64-64 64v0h-128c-35.346 0-64-28.654-64-64s28.654-64 64-64v0zM576-64c35.346 0 64 28.654 64 64s-28.654 64-64 64v0h-128c-35.346 0-64-28.654-64-64s28.654-64 64-64v0zM960 64h-128c-35.346 0-64-28.654-64-64s28.654-64 64-64v0h128c35.346 0 64 28.654 64 64s-28.654 64-64 64v0z" />
<glyph unicode="&#xe906;" glyph-name="woo-meta" d="M960 832c-35.346 0-64-28.654-64-64v0-640c0-35.346 28.654-64 64-64s64 28.654 64 64v0 640c0 35.346-28.654 64-64 64v0zM512 768c-35.346 0-64-28.654-64-64v0-384c0-35.346 28.654-64 64-64s64 28.654 64 64v0 384c0 35.346-28.654 64-64 64v0zM64 832c-35.346 0-64-28.654-64-64v0-640c0-35.346 28.654-64 64-64s64 28.654 64 64v0 640c0 35.346-28.654 64-64 64v0zM704 768h64c35.346 0 64-28.654 64-64v-384c0-35.346-28.654-64-64-64h-64c-35.346 0-64 28.654-64 64v384c0 35.346 28.654 64 64 64zM256 768h64c35.346 0 64-28.654 64-64v-384c0-35.346-28.654-64-64-64h-64c-35.346 0-64 28.654-64 64v384c0 35.346 28.654 64 64 64z" />
<glyph unicode="&#xe907;" glyph-name="woo-price" d="M832 704c0-35.346-28.654-64-64-64s-64 28.654-64 64c0 35.346 28.654 64 64 64s64-28.654 64-64zM960 960h-398.72c-0.11 0.001-0.24 0.001-0.37 0.001-17.581 0-33.507-7.089-45.074-18.565l0.004 0.004-483.84-480c-11.472-11.563-18.561-27.489-18.561-45.070 0-0.13 0-0.26 0.001-0.39v0.020c-0.001-0.11-0.001-0.24-0.001-0.37 0-17.581 7.089-33.507 18.565-45.074l402.556-402.556c11.563-11.472 27.489-18.561 45.070-18.561 0.13 0 0.26 0 0.39 0.001h-0.020c17.802 0.076 33.876 7.409 45.43 19.19l0.010 0.010 480 488.32c11.41 11.501 18.484 27.317 18.56 44.785v394.255c0 35.346-28.654 64-64 64v0zM896 528l-416.64-423.68-311.040 311.68 419.2 416h308.48z" />
<glyph unicode="&#xe908;" glyph-name="woo-ratings" d="M787.2 41.6c16.282 11.753 26.756 30.677 26.756 52.047 0 2.86-0.188 5.676-0.551 8.437l0.035-0.324-30.080 229.76 159.36 167.68c10.745 11.421 17.347 26.846 17.347 43.812 0 7.221-1.196 14.163-3.401 20.638l0.133-0.451c-7.454 22.082-26.026 38.526-48.883 42.818l-0.397 0.062-227.2 42.24-110.72 203.52c-11.041 20.16-32.111 33.602-56.32 33.602s-45.279-13.442-56.153-33.269l-0.167-0.333-110.080-203.52-227.84-42.24c-23.254-4.354-41.826-20.798-49.147-42.429l-0.133-0.451c-1.968-5.88-3.103-12.651-3.103-19.686 0-17.21 6.793-32.833 17.843-44.335l-0.020 0.021 158.72-167.68-29.44-229.76c-0.364-2.564-0.572-5.526-0.572-8.536 0-21.116 10.227-39.844 25.997-51.501l0.174-0.123c10.395-7.6 23.431-12.16 37.532-12.16 0.080 0 0.16 0 0.24 0h-0.012c10.023 0.061 19.481 2.417 27.895 6.567l-0.375-0.167 207.36 99.2 209.28-99.2c8.227-4.127 17.927-6.543 28.191-6.543 14.187 0 27.295 4.616 37.906 12.428l-0.177-0.124zM540.8 263.68c-7.72 4.039-16.862 6.408-26.558 6.408-0.338 0-0.676-0.003-1.013-0.009l0.051 0.001c-10.023-0.061-19.481-2.417-27.895-6.567l0.375 0.167-128-64 18.56 142.72c0.335 2.458 0.526 5.299 0.526 8.185 0 17.201-6.786 32.817-17.826 44.317l0.021-0.022-103.040 106.88 142.080 26.88c19.399 3.531 35.475 15.399 44.634 31.679l0.166 0.321 69.12 126.72 69.12-128c9.197-16.462 25.016-28.287 43.756-31.935l0.404-0.065 142.72-25.6-98.56-104.32c-11.020-11.478-17.806-27.094-17.806-44.295 0-2.886 0.191-5.727 0.561-8.511l-0.035 0.326 19.2-142.72z" />
<glyph unicode="&#xe909;" glyph-name="woo-related-products" d="M800 441.6c-3.641 0.301-7.88 0.472-12.16 0.472s-8.519-0.171-12.712-0.508l0.552 0.036-93.44 160c29.51 36.817 47.36 84.088 47.36 135.529 0 120.177-97.423 217.6-217.6 217.6s-217.6-97.423-217.6-217.6c0-51.44 17.85-98.712 47.693-135.959l-0.333 0.43-93.44-162.56c-3.641 0.301-7.88 0.472-12.16 0.472s-8.519-0.171-12.712-0.508l0.552 0.036c-0.971 0.016-2.118 0.025-3.267 0.025-120.177 0-217.6-97.423-217.6-217.6s97.423-217.6 217.6-217.6c85.211 0 158.982 48.978 194.697 120.319l0.57 1.257h189.44c36.285-72.597 110.056-121.575 195.267-121.575 120.177 0 217.6 97.423 217.6 217.6s-97.423 217.6-217.6 217.6c-1.149 0-2.295-0.009-3.44-0.027l0.173 0.002zM224 121.6c-56.554 0-102.4 45.846-102.4 102.4s45.846 102.4 102.4 102.4c56.554 0 102.4-45.846 102.4-102.4v0c0-56.554-45.846-102.4-102.4-102.4v0zM512 838.4c56.554 0 102.4-45.846 102.4-102.4s-45.846-102.4-102.4-102.4c-56.554 0-102.4 45.846-102.4 102.4v0c0 56.554 45.846 102.4 102.4 102.4v0zM585.6 256h-147.2c-8.713 51.597-34.847 95.946-72.028 127.756l-0.292 0.244 81.92 145.28c19.043-6.559 40.999-10.513 63.826-10.878l0.174-0.002c23.002 0.367 44.957 4.321 65.501 11.324l-1.501-0.444 81.92-145.28c-37.473-32.054-63.607-76.403-72.143-126.74l-0.177-1.26zM800 121.6c-56.554 0-102.4 45.846-102.4 102.4s45.846 102.4 102.4 102.4c56.554 0 102.4-45.846 102.4-102.4v0c0-56.554-45.846-102.4-102.4-102.4v0z" />
<glyph unicode="&#xe90a;" glyph-name="woo-reviews" d="M388.48 352l124.8 59.52 124.8-59.52-17.92 136.96 95.36 100.48-136.32 24.96-65.92 121.6-65.92-121.6-135.68-24.96 94.72-100.48-17.92-136.96zM320-64c-11.535 0.036-22.343 3.119-31.671 8.485l0.311-0.165c-19.592 11.166-32.598 31.9-32.64 55.674v128.006h-192c-35.346 0-64 28.654-64 64v0 704c0 35.346 28.654 64 64 64v0h896c35.346 0 64-28.654 64-64v0-704c0-35.346-28.654-64-64-64v0h-302.080l-305.28-183.040c-9.33-5.626-20.596-8.956-32.639-8.96h-0.001zM128 256h192c35.346 0 64-28.654 64-64v0-78.72l223.36 133.76c9.33 5.626 20.596 8.956 32.639 8.96h256.001v576h-768z" />
<glyph unicode="&#xe90b;" glyph-name="woo-stock" d="M960 680.32c-1.553 8.89-4.453 16.843-8.514 24.055l0.194-0.375c-3.981 6.873-9.121 12.625-15.212 17.174l-0.148 0.106h-4.48l-3.84 3.2-384 222.080c-9.179 5.391-20.218 8.574-32 8.574s-22.821-3.184-32.302-8.738l0.302 0.164-384-221.44-3.84-3.2h-5.12c-5.892-4.994-10.804-10.926-14.554-17.598l-0.166-0.322c-3.867-6.837-6.767-14.79-8.254-23.23l-0.066-0.45s0-3.84 0-5.76 0 0 0-5.12v-442.88c0-0.075-0.001-0.165-0.001-0.254 0-23.564 12.735-44.154 31.698-55.262l0.302-0.164 368.64-212.48c11.751-12.894 28.614-20.953 47.36-20.953s35.609 8.059 47.314 20.902l0.046 0.051 368.64 212.48c19.265 11.272 32.001 31.862 32.001 55.426 0 0.089 0 0.179-0.001 0.268v-0.014 442.88s0 3.84 0 5.12 0 3.84 0 5.76zM448 115.2l-256 147.84v295.68l256-147.84zM512 521.6l-256 147.84 256 147.84 256-147.84zM832 265.6l-256-150.4v295.68l256 147.84z" />
<glyph unicode="&#xe90c;" glyph-name="woo-upsells" d="M256 0c0-35.346-28.654-64-64-64s-64 28.654-64 64c0 35.346 28.654 64 64 64s64-28.654 64-64zM832 0c0-35.346-28.654-64-64-64s-64 28.654-64 64c0 35.346 28.654 64 64 64s64-28.654 64-64zM968.96 960c-2.853 0.451-6.144 0.708-9.494 0.708-32.437 0-59.238-24.131-63.43-55.42l-0.036-0.328-55.68-392.96h-264.32v229.76l18.56-19.2c11.6-11.693 27.675-18.931 45.44-18.931s33.84 7.238 45.436 18.927l0.004 0.004c11.693 11.6 18.931 27.675 18.931 45.44s-7.238 33.84-18.927 45.436l-128.004 128.004c-5.905 5.66-12.923 10.212-20.687 13.289l-0.433 0.151c-7.19 3.036-15.549 4.801-24.32 4.801s-17.13-1.764-24.742-4.958l0.422 0.157c-8.197-3.228-15.215-7.78-21.143-13.462l0.023 0.022-128-128c-11.629-11.629-18.822-27.695-18.822-45.44 0-35.491 28.771-64.262 64.262-64.262 17.745 0 33.811 7.193 45.44 18.822v0l18.56 19.2v-229.76h-264.32l-55.68 392.96c-4.553 31.628-31.47 55.664-64 55.664-35.691 0-64.624-28.933-64.624-64.624 0-3.16 0.227-6.268 0.665-9.307l-0.041 0.347 64-443.52v-251.52c0-35.346 28.654-64 64-64v0h704c35.346 0 64 28.654 64 64s-28.654 64-64 64v0h-640v128h704c0.187-0.002 0.408-0.003 0.63-0.003 32.187 0 58.824 23.76 63.329 54.697l0.041 0.346 64 448c0.451 2.853 0.708 6.144 0.708 9.494 0 32.437-24.131 59.238-55.42 63.43l-0.328 0.036z" />
<glyph unicode="&#xe90d;" glyph-name="divi-module-icons-50" d="M576 512h-256c-35.346 0-64-28.654-64-64s28.654-64 64-64v0h256c35.346 0 64 28.654 64 64s-28.654 64-64 64v0zM960 0c-9.021 0.018-17.598 1.9-25.373 5.28l0.413-0.16-286.72 122.88h-584.32c-35.346 0-64 28.654-64 64v0 512c0 35.346 28.654 64 64 64v0h768c35.346 0 64-28.654 64-64v0-307.84l123.52-308.48c2.874-7.013 4.542-15.152 4.542-23.68 0-35.346-28.654-64-64-64-0.022 0-0.044 0-0.065 0h0.003zM128 256h533.12c9.249-0.104 18.032-1.975 26.068-5.291l-0.468 0.171 156.16-67.2-70.4 176.64c-2.838 6.741-4.486 14.576-4.486 22.797 0 0.311 0.002 0.621 0.007 0.93l-0.001-0.047v256h-640z" />
<glyph unicode="&#xe90e;" glyph-name="divi-module-icons-28" d="M64 0c0-35.346 28.654-64 64-64v0h768c35.346 0 64 28.654 64 64v0 576c0 35.346-28.654 64-64 64v0h-128v64c-0.090 64.306-24.361 122.926-64.204 167.271l0.204-0.231c0.057 0.861 0.089 1.867 0.089 2.88s-0.032 2.019-0.096 3.016l0.007-0.136s0 0-4.48 4.48-14.080 12.8-21.76 18.56c-5.068 4.864-10.493 9.477-16.186 13.754l-0.454 0.326c-9.252 5.746-20.176 11.52-31.495 16.569l-1.785 0.711-14.080 7.68c-11.952 5.28-26.064 9.906-40.696 13.152l-1.544 0.288c-1.057 0.137-2.279 0.216-3.52 0.216s-2.463-0.078-3.662-0.231l0.142 0.015c-15.561 4.285-33.555 7.048-52.092 7.67l-0.388 0.010c-141.385 0-256-114.615-256-256v0-64h-128c-35.346 0-64-28.654-64-64v0zM384 704c0 70.692 57.308 128 128 128v0c3.842 0.467 8.29 0.734 12.8 0.734s8.958-0.267 13.329-0.785l-0.529 0.051 16.64-5.12h7.68c5.268-3.69 9.876-7.689 14.037-12.114l0.043-0.046 8.96-5.12 10.24-8.32 9.6-8.96c21.793-22.906 35.2-53.967 35.2-88.16 0-0.056 0-0.113 0-0.169v0.009-64h-256zM192 512h64v-128c0-35.346 28.654-64 64-64s64 28.654 64 64v0 128h256v-128c0-35.346 28.654-64 64-64s64 28.654 64 64v0 128h64v-448h-640z" />
<glyph unicode="&#xe90f;" glyph-name="row" horiz-adv-x="1600" d="M64 960h320c35.346 0 64-28.654 64-64v-896c0-35.346-28.654-64-64-64h-320c-35.346 0-64 28.654-64 64v896c0 35.346 28.654 64 64 64zM640 960h320c35.346 0 64-28.654 64-64v-896c0-35.346-28.654-64-64-64h-320c-35.346 0-64 28.654-64 64v896c0 35.346 28.654 64 64 64zM1216 960h320c35.346 0 64-28.654 64-64v-896c0-35.346-28.654-64-64-64h-320c-35.346 0-64 28.654-64 64v896c0 35.346 28.654 64 64 64z" />
<glyph unicode="&#xe910;" glyph-name="layout" horiz-adv-x="1600" d="M60.8 960h774.4c33.579 0 60.8-27.221 60.8-60.8v-134.4c0-33.579-27.221-60.8-60.8-60.8h-774.4c-33.579 0-60.8 27.221-60.8 60.8v134.4c0 33.579 27.221 60.8 60.8 60.8zM1083.52 960h456.96c32.872 0 59.52-26.648 59.52-59.52v-136.96c0-32.872-26.648-59.52-59.52-59.52h-456.96c-32.872 0-59.52 26.648-59.52 59.52v136.96c0 32.872 26.648 59.52 59.52 59.52zM60.8 576h1478.4c33.579 0 60.8-27.221 60.8-60.8v-134.4c0-33.579-27.221-60.8-60.8-60.8h-1478.4c-33.579 0-60.8 27.221-60.8 60.8v134.4c0 33.579 27.221 60.8 60.8 60.8zM63.36 192h257.28c34.993 0 63.36-28.367 63.36-63.36v-129.28c0-34.993-28.367-63.36-63.36-63.36h-257.28c-34.993 0-63.36 28.367-63.36 63.36v129.28c0 34.993 28.367 63.36 63.36 63.36zM571.52 192h968.96c32.872 0 59.52-26.648 59.52-59.52v-136.96c0-32.872-26.648-59.52-59.52-59.52h-968.96c-32.872 0-59.52 26.648-59.52 59.52v136.96c0 32.872 26.648 59.52 59.52 59.52z" />
<glyph unicode="&#xe911;" glyph-name="woo-billing" d="M956.16 673.28c0.115 0.865 0.181 1.865 0.181 2.88s-0.066 2.015-0.193 2.996l0.012-0.116c-3.259 7.357-7.337 13.69-12.234 19.287l0.074-0.087-256 256c-5.432 5.003-11.792 9.104-18.776 12.004l-0.424 0.156h-5.12c-5.925 3.26-12.856 5.528-20.219 6.376l-0.261 0.024h-515.2c-35.346 0-64-28.654-64-64v0-896c0-35.346 28.654-64 64-64v0h768c35.346 0 64 28.654 64 64v0 640s0 0 0 3.84c-1.056 6.485-2.392 12.094-4.082 17.547l0.242-0.907zM741.76 716.8h-37.76v37.76zM192 76.8v768h384v-192c0-35.346 28.654-64 64-64v0h192v-512zM768 396.8c0-35.346-28.654-64-64-64v0h-192c-35.346 0-64 28.654-64 64s28.654 64 64 64v0h192c35.346 0 64-28.654 64-64v0zM256 652.8c0 35.346 28.654 64 64 64v0h128c35.346 0 64-28.654 64-64s-28.654-64-64-64v0h-128c-35.346 0-64 28.654-64 64v0zM378.88 421.12c3.243-6.716 5.138-14.604 5.138-22.935 0-0.487-0.006-0.972-0.019-1.456l0.002 0.071c0.003-0.224 0.004-0.488 0.004-0.752 0-35.346-28.654-64-64-64s-64 28.654-64 64c0 9.058 1.882 17.676 5.276 25.486l-0.16-0.413c3.228 8.197 7.78 15.215 13.462 21.143l-0.022-0.023c11.6 11.693 27.675 18.931 45.44 18.931s33.84-7.238 45.436-18.927l0.004-0.004c5.66-5.905 10.212-12.923 13.289-20.687l0.151-0.433zM365.44 250.24c11.283-11.816 18.307-27.784 18.559-45.39l0.001-0.050c-0.076-17.483-7.15-33.299-18.564-44.804l0.004 0.004c-11.6-11.693-27.675-18.931-45.44-18.931s-33.84 7.238-45.436 18.927l-0.004 0.004c-11.41 11.501-18.484 27.317-18.56 44.785v0.015c-0.001 0.11-0.001 0.24-0.001 0.37 0 17.581 7.089 33.507 18.565 45.074l-0.004-0.004c11.551 11.402 27.429 18.444 44.952 18.444 8.957 0 17.485-1.84 25.225-5.163l-0.416 0.159c8.132-3.447 15.118-7.97 21.179-13.493l-0.059 0.053zM768 204.8c0-35.346-28.654-64-64-64v0h-192c-35.346 0-64 28.654-64 64s28.654 64 64 64v0h192c35.346 0 64-28.654 64-64v0z" />
<glyph unicode="&#xe912;" glyph-name="woo-cart" d="M192 396.8v-128h704c35.346 0 64-28.654 64-64s-28.654-64-64-64v0h-768c-35.346 0-64 28.654-64 64v0 251.52l-64 443.52c-0.397 2.692-0.624 5.8-0.624 8.96 0 35.691 28.933 64.624 64.624 64.624 32.53 0 59.447-24.036 63.959-55.317l0.041-0.347 55.68-392.96h656.64l55.68 392.96c4.228 31.617 31.029 55.748 63.466 55.748 3.351 0 6.641-0.257 9.852-0.754l-0.358 0.046c31.617-4.228 55.748-31.029 55.748-63.466 0-3.351-0.257-6.641-0.754-9.852l0.046 0.358-64-448c-4.546-31.283-31.183-55.043-63.37-55.043-0.221 0-0.443 0.001-0.664 0.003h0.034zM192 76.8c-35.346 0-64-28.654-64-64s28.654-64 64-64c35.346 0 64 28.654 64 64v0c0 35.346-28.654 64-64 64v0zM768 76.8c-35.346 0-64-28.654-64-64s28.654-64 64-64c35.346 0 64 28.654 64 64v0c0 35.346-28.654 64-64 64v0zM352 588.8c53.019 0 96 42.981 96 96s-42.981 96-96 96c-53.019 0-96-42.981-96-96v0c0-53.019 42.981-96 96-96v0zM672 588.8c53.019 0 96 42.981 96 96s-42.981 96-96 96c-53.019 0-96-42.981-96-96v0c0-53.019 42.981-96 96-96v0zM480 780.8c53.019 0 96 42.981 96 96s-42.981 96-96 96c-53.019 0-96-42.981-96-96v0c0-53.019 42.981-96 96-96v0z" />
<glyph unicode="&#xe913;" glyph-name="woo-details" d="M768 460.8c0-35.346-28.654-64-64-64v0h-192c-35.346 0-64 28.654-64 64s28.654 64 64 64v0h192c35.346 0 64-28.654 64-64v0zM704 332.8h-192c-35.346 0-64-28.654-64-64s28.654-64 64-64v0h192c35.346 0 64 28.654 64 64s-28.654 64-64 64v0zM960 908.8v-896c0-35.346-28.654-64-64-64v0h-768c-35.346 0-64 28.654-64 64v0 896c0.136 26.448 16.294 49.089 39.258 58.723l0.422 0.157c7.324 3.164 15.851 5.004 24.808 5.004 17.523 0 33.401-7.042 44.958-18.451l-0.007 0.007 82.56-83.2 82.56 83.2c11.6 11.693 27.675 18.931 45.44 18.931s33.84-7.238 45.436-18.927l0.004-0.004 82.56-83.2 82.56 83.2c11.6 11.693 27.675 18.931 45.44 18.931s33.84-7.238 45.436-18.927l0.004-0.004 82.56-83.2 82.56 83.2c11.551 11.402 27.429 18.444 44.952 18.444 8.957 0 17.485-1.84 25.225-5.163l-0.416 0.159c23.386-9.791 39.544-32.432 39.68-58.863v-0.017zM832 754.56l-18.56-19.2c-11.6-11.693-27.675-18.931-45.44-18.931s-33.84 7.238-45.436 18.927l-0.004 0.004-82.56 83.2-82.56-83.2c-11.6-11.693-27.675-18.931-45.44-18.931s-33.84 7.238-45.436 18.927l-0.004 0.004-82.56 83.2-82.56-83.2c-11.6-11.693-27.675-18.931-45.44-18.931s-33.84 7.238-45.436 18.927l-0.004 0.004-18.56 19.2v-677.76h640v677.76zM274.56 506.24c-11.283-11.816-18.307-27.784-18.559-45.39l-0.001-0.050c-0.011-0.412-0.018-0.898-0.018-1.385 0-8.331 1.895-16.219 5.278-23.258l-0.14 0.323c3.447-8.132 7.97-15.118 13.493-21.179l-0.053 0.059c11.6-11.693 27.675-18.931 45.44-18.931s33.84 7.238 45.436 18.927l0.004 0.004c5.47 6.002 9.993 12.988 13.258 20.639l0.182 0.481c3.138 7.167 5.010 15.511 5.12 24.279v0.041c-0.253 17.656-7.277 33.624-18.585 45.466l0.025-0.026c-11.6 11.693-27.675 18.931-45.44 18.931s-33.84-7.238-45.436-18.927l-0.004-0.004zM365.44 314.24c-11.6 11.693-27.675 18.931-45.44 18.931s-33.84-7.238-45.436-18.927l-0.004-0.004c-5.66-5.905-10.212-12.923-13.289-20.687l-0.151-0.433c-3.243-6.716-5.138-14.604-5.138-22.935 0-0.487 0.006-0.972 0.019-1.456l-0.002 0.071c-0.001-0.11-0.001-0.24-0.001-0.37 0-17.581 7.089-33.507 18.565-45.074l-0.004 0.004c6.002-5.47 12.988-9.993 20.639-13.258l0.481-0.182c6.716-3.243 14.604-5.138 22.935-5.138 0.487 0 0.972 0.006 1.456 0.019l-0.071-0.002c0.11-0.001 0.24-0.001 0.37-0.001 17.581 0 33.507 7.089 45.074 18.565l-0.004-0.004c5.47 6.002 9.993 12.988 13.258 20.639l0.182 0.481c3.244 7.156 5.135 15.517 5.135 24.32s-1.891 17.164-5.288 24.699l0.153-0.379c-3.447 8.132-7.97 15.118-13.493 21.179l0.053-0.059z" />
<glyph unicode="&#xe914;" glyph-name="woo-payment" d="M896 844.8h-768c-70.692 0-128-57.308-128-128v0-512c0-70.692 57.308-128 128-128v0h768c70.692 0 128 57.308 128 128v0 512c0 70.692-57.308 128-128 128v0zM896 716.8v-64h-768v64zM128 204.8v320h768v-320zM640 332.8c0-35.346-28.654-64-64-64v0h-320c-35.346 0-64 28.654-64 64s28.654 64 64 64v0h320c35.346 0 64-28.654 64-64v0zM832 332.8c0.001-0.11 0.001-0.24 0.001-0.37 0-17.581-7.089-33.507-18.565-45.074l0.004 0.004c-11.6-11.693-27.675-18.931-45.44-18.931s-33.84 7.238-45.436 18.927l-0.004 0.004c-11.472 11.563-18.561 27.489-18.561 45.070 0 0.13 0 0.26 0.001 0.39v-0.020c0.253 17.656 7.277 33.624 18.585 45.466l-0.025-0.026c11.559 11.451 27.471 18.526 45.034 18.526 4.447 0 8.788-0.454 12.979-1.317l-0.413 0.071c4.538-0.649 8.635-1.997 12.373-3.941l-0.213 0.101 11.52-5.76 9.6-7.68c11.283-11.816 18.307-27.784 18.559-45.39l0.001-0.050z" />
<glyph unicode="&#xe915;" glyph-name="woo-shipping" d="M806.4 588.8h-102.4v192c0 35.346-28.654 64-64 64v0h-576c-35.346 0-64-28.654-64-64v0-576c0-35.346 28.654-64 64-64v0h64c0-70.692 57.308-128 128-128s128 57.308 128 128v0h256c0-70.692 57.308-128 128-128s128 57.308 128 128v0h64c35.346 0 64 28.654 64 64v0 166.4c-0.363 120.031-97.569 217.237-217.565 217.6h-0.035zM128 268.8v448h448v-448zM896 268.8h-192v192h102.4c49.485 0 89.6-40.115 89.6-89.6v0z" />
<glyph unicode="&#xe916;" glyph-name="woo-total" d="M960 204.8c0-35.346-28.654-64-64-64v0h-768c-35.346 0-64 28.654-64 64v0 251.52l-64 443.52c-0.397 2.692-0.624 5.8-0.624 8.96 0 35.691 28.933 64.624 64.624 64.624 32.53 0 59.447-24.036 63.959-55.317l0.041-0.347 55.68-392.96h656.64l55.68 392.96c4.228 31.617 31.029 55.748 63.466 55.748 3.351 0 6.641-0.257 9.852-0.754l-0.358 0.046c31.617-4.228 55.748-31.029 55.748-63.466 0-3.351-0.257-6.641-0.754-9.852l0.046 0.358-64-448c-4.546-31.283-31.183-55.043-63.37-55.043-0.221 0-0.443 0.001-0.664 0.003h-703.966v-128h704c35.346 0 64-28.654 64-64v0zM192 76.8c-35.346 0-64-28.654-64-64s28.654-64 64-64c35.346 0 64 28.654 64 64v0c0 35.346-28.654 64-64 64v0zM768 76.8c-35.346 0-64-28.654-64-64s28.654-64 64-64c35.346 0 64 28.654 64 64v0c0 35.346-28.654 64-64 64v0zM384 844.8h256c35.346 0 64 28.654 64 64s-28.654 64-64 64v0h-256c-35.346 0-64-28.654-64-64s28.654-64 64-64v0zM384 652.8h256c35.346 0 64 28.654 64 64s-28.654 64-64 64v0h-256c-35.346 0-64-28.654-64-64s28.654-64 64-64v0z" />
<glyph unicode="&#xe917;" glyph-name="woo" d="M928 716.8h-832c-53.019 0-96-42.981-96-96v0-320c0-53.019 42.981-96 96-96v0h398.72l176-96.64-39.68 96.64h296.96c53.019 0 96 42.981 96 96v0 320c0 53.019-42.981 96-96 96v0zM424.32 296.96c0.136-1.373 0.213-2.968 0.213-4.582 0-8.136-1.971-15.811-5.463-22.574l0.129 0.276c-4.272-8.114-12.264-13.768-21.645-14.711l-0.115-0.009c-0.243-0.005-0.529-0.008-0.816-0.008-12.277 0-23.348 5.159-31.165 13.428l-0.019 0.020c-42.984 47.864-75 106.462-91.547 171.248l-0.613 2.832c-26.24-52.48-46.72-91.52-59.52-117.76-24.96-46.080-45.44-69.76-64-71.040s-21.76 8.32-28.16 28.16c-29.225 88.393-53.203 193.34-67.5 301.342l-0.98 9.058c-0.38 1.941-0.597 4.174-0.597 6.457 0 7.939 2.628 15.264 7.062 21.153l-0.065-0.090c5.606 8.069 14.595 13.448 24.868 14.076l0.092 0.004c2.082 0.526 4.472 0.828 6.932 0.828 14.288 0 26.199-10.179 28.877-23.681l0.031-0.187c0.135-0.961 0.211-2.072 0.211-3.2s-0.077-2.239-0.226-3.326l0.014 0.126c12.202-86.13 26.963-159.605 45.424-231.598l-3.184 14.638 93.44 170.24c5.325 13.141 17.010 22.701 31.132 24.93l0.228 0.030c18.56 0 30.080-10.24 33.92-34.56 10.241-53.66 23.966-100.655 41.587-145.696l-1.907 5.536c4.2 82.655 23.811 159.721 56.002 229.811l-1.602-3.891c4.975 10.101 14.647 17.223 26.086 18.545l0.154 0.015c0.887 0.081 1.919 0.127 2.961 0.127 8.679 0 16.611-3.199 22.68-8.483l-0.042 0.036c7.429-5.271 12.472-13.484 13.429-22.905l0.011-0.135c0.042-0.659 0.067-1.428 0.067-2.203 0-6.472-1.685-12.551-4.641-17.82l0.095 0.184c-19.899-42.511-34.13-91.846-40.111-143.693l-0.209-2.227c-7.652-39.549-12.030-85.030-12.030-131.535 0-9.561 0.185-19.078 0.552-28.549l-0.042 1.363zM680.32 360.96c-18.296-36.288-55.245-60.753-97.914-60.8h-0.006c-3.356-0.313-7.257-0.491-11.2-0.491s-7.844 0.178-11.696 0.527l0.496-0.036c-27.685 6.506-50.409 23.997-63.745 47.511l-0.255 0.489c-12.911 22.18-20.533 48.816-20.533 77.233 0 1.423 0.019 2.842 0.057 4.256l-0.004-0.209c0.174 42.63 12.297 82.392 33.19 116.155l-0.55-0.955c18.359 36.822 54.978 62.093 97.676 63.991l0.244 0.009c3.356 0.313 7.257 0.491 11.2 0.491s7.844-0.178 11.696-0.527l-0.496 0.036c27.788-6.268 50.595-23.836 63.748-47.507l0.252-0.493c12.902-21.895 20.523-48.238 20.523-76.361 0-1.279-0.016-2.555-0.047-3.827l0.004 0.188c-0.055-43.145-12.44-83.385-33.82-117.401l0.54 0.921zM940.8 360.96c-18.31-36.33-55.318-60.815-98.044-60.815-0.631 0-1.261 0.005-1.89 0.016l0.095-0.001c-3.355-0.302-7.257-0.474-11.2-0.474s-7.845 0.172-11.7 0.51l0.5-0.035c-27.685 6.506-50.409 23.997-63.745 47.511l-0.255 0.489c-12.531 21.972-19.919 48.282-19.919 76.317 0 1.745 0.029 3.484 0.085 5.215l-0.007-0.252c-0.007 0.635-0.011 1.385-0.011 2.136 0 41.844 11.916 80.905 32.54 113.974l-0.529-0.911c18.464 36.732 55.023 61.949 97.658 63.99l0.262 0.010c3.356 0.313 7.257 0.491 11.2 0.491s7.844-0.178 11.696-0.527l-0.496 0.036c27.859-6.103 50.725-23.725 63.751-47.504l0.249-0.496c12.952-20.952 20.627-46.355 20.627-73.55 0-2.269-0.053-4.525-0.159-6.768l0.012 0.317c0.016-1.002 0.026-2.183 0.026-3.367 0-41.781-11.672-80.836-31.934-114.081l0.548 0.968zM896 512c4.354-10.804 6.929-23.325 7.040-36.435v-0.045c0.589-4.611 0.925-9.946 0.925-15.36s-0.336-10.749-0.988-15.985l0.064 0.625c-3.927-23.805-15.181-44.48-31.332-60.133l-0.028-0.027c-7.841-8.333-18.942-13.523-31.255-13.523-0.938 0-1.868 0.030-2.791 0.089l0.126-0.006c-13.026 3.363-23.249 12.953-27.439 25.325l-0.081 0.275c-4.354 10.804-6.929 23.325-7.040 36.435v0.045c-0.453 4.509-0.711 9.744-0.711 15.040s0.258 10.531 0.763 15.695l-0.052-0.655c4.258 18.587 12.030 34.904 22.635 48.965l-0.235-0.325c13.44 19.84 28.16 28.16 42.88 25.6 13.026-3.363 23.249-12.953 27.439-25.325l0.081-0.275zM634.88 512c4.354-10.804 6.929-23.325 7.040-36.435v-0.045c0.589-4.611 0.925-9.946 0.925-15.36s-0.336-10.749-0.988-15.985l0.064 0.625c-3.927-23.805-15.181-44.48-31.332-60.133l-0.028-0.027c-7.844-8.358-18.961-13.565-31.294-13.565-1.15 0-2.288 0.045-3.415 0.134l0.149-0.009c-10.24 0-17.92 10.88-24.32 26.88-4.841 10.738-7.667 23.277-7.68 36.475v0.005c-0.453 4.509-0.711 9.744-0.711 15.040s0.258 10.531 0.763 15.695l-0.052-0.655c4.612 18.544 12.339 34.805 22.68 49.045l-0.28-0.405c13.44 19.84 28.16 28.16 43.52 25.6s18.56-14.080 24.96-26.88z" />
<glyph unicode="&#xe918;" glyph-name="icon" d="M512 972.8c-282.77 0-512-229.23-512-512s229.23-512 512-512c282.77 0 512 229.23 512 512v0c0 282.77-229.23 512-512 512v0zM512 76.8c-212.077 0-384 171.923-384 384s171.923 384 384 384c212.077 0 384-171.923 384-384v0c0-212.077-171.923-384-384-384v0zM579.2 552.32l-65.92 121.6-65.92-121.6-135.68-25.6 94.72-99.84-17.92-136.96 124.8 58.88 124.8-58.88-17.92 136.96 95.36 99.84-136.32 25.6z" />
<glyph unicode="&#xe919;" glyph-name="thumbnail" horiz-adv-x="1600" d="M1536 972.8h-1472c-35.346 0-64-28.654-64-64v0-896c0-35.346 28.654-64 64-64v0h1472c35.346 0 64 28.654 64 64v0 896c0 35.346-28.654 64-64 64v0zM1472 76.8h-1344v768h1344zM640 620.8c0-53.019-42.981-96-96-96s-96 42.981-96 96c0 53.019 42.981 96 96 96s96-42.981 96-96zM270.080 140.8h1137.92v228.48c-0.076 17.483-7.15 33.299-18.564 44.804l0.004-0.004-277.76 278.4c-11.568 11.501-27.514 18.611-45.12 18.611s-33.552-7.109-45.123-18.614l0.003 0.003-407.68-408.32-91.52 91.52c-11.568 11.501-27.514 18.611-45.12 18.611s-33.552-7.109-45.123-18.614l0.003 0.003-184.32-179.84c-6.042-5.829-9.793-13.997-9.793-23.041 0-17.673 14.327-32 32-32 0.068 0 0.136 0 0.204 0.001h-0.010z" />
<glyph unicode="&#xe91a;" glyph-name="theme-builder-template" horiz-adv-x="1600" d="M32 960c-17.92 0-32-14.080-32-32v-64c0-17.92 14.080-32 32-32h1536c17.92 0 32 14.080 32 32v64c0 17.92-14.080 32-32 32h-1536zM32 768c-17.92 0-32-14.080-32-32v-512c0-17.92 14.080-32 32-32h1152c17.92 0 32 14.080 32 32v512c0 17.92-14.080 32-32 32h-1152zM1280 736c0 17.92 14.080 32 32 32h256c17.92 0 32-14.080 32-32v-512c0-17.92-14.080-32-32-32h-256c-17.92 0-32 14.080-32 32v512zM32 128c-17.92 0-32-14.080-32-32v-128c0-17.92 14.080-32 32-32h1536c17.92 0 32 14.080 32 32v128c0 17.92-14.080 32-32 32h-1536z" />
<glyph unicode="&#xe91b;" glyph-name="theme-builder-set" horiz-adv-x="1600" d="M384 896v-896h832v896h-832zM320 0v64h-256c-35.2 0-64 28.8-64 64v640c0 35.2 28.8 64 64 64h256v64c0 35.2 28.8 64 64 64h832c35.2 0 64-28.8 64-64v-64h256c35.2 0 64-28.8 64-64v-640c0-35.2-28.8-64-64-64h-256v-64c0-35.2-28.8-64-64-64h-832c-35.2 0-64 28.8-64 64zM1280 128h256v640h-256v-64h160c17.92 0 32-14.080 32-32s-14.080-32-32-32h-160v-64h160c17.92 0 32-14.080 32-32v-128c0-17.92-14.080-32-32-32h-160v-64h160c17.92 0 32-14.080 32-32v-64c0-17.92-14.080-32-32-32h-160v-64zM320 192h-160c-17.92 0-32 14.080-32 32v64c0 17.92 14.080 32 32 32h160v64h-160c-17.92 0-32 14.080-32 32v128c0 17.92 14.080 32 32 32h160v64h-160c-17.92 0-32 14.080-32 32s14.080 32 32 32h160v64h-256v-640h256v64zM480 832c-17.92 0-32-14.080-32-32s14.080-32 32-32h640c17.92 0 32 14.080 32 32s-14.080 32-32 32h-640zM448 224c0 17.92 14.080 32 32 32h640c17.92 0 32-14.080 32-32v-128c0-17.92-14.080-32-32-32h-640c-17.92 0-32 14.080-32 32v128zM480 704c-17.92 0-32-14.080-32-32v-320c0-17.92 14.080-32 32-32h448c17.92 0 32 14.080 32 32v320c0 17.92-14.080 32-32 32h-448zM1024 672c0 17.92 14.080 32 32 32h64c17.92 0 32-14.080 32-32v-320c0-17.92-14.080-32-32-32h-64c-17.92 0-32 14.080-32 32v320z" />
<glyph unicode="&#x1f324;" glyph-name="conversion_rate" d="M1006.006 606.853c-1.905-28.078-34.335-41.559-54.817-22.983l-53.757 48.966-240.317-278.739c-11.566-13.533-27.96-21.621-45.433-22.77l-225.409-14.455c-18.132-1.126-35.077-9.871-46.672-24.215l-212.357-260.907c-11.726-14.339-32.529-16.319-46.506-4.33l-50.653 43.309c-13.976 11.99-15.873 33.3-4.147 47.639l248.789 305.776c11.59 14.209 28.535 22.954 46.54 24.219l227.656 14.512c17.473 1.149 33.871 9.371 45.433 22.77l204.517 236.825-58.364 53.186c-20.731 18.991-10.789 54.095 16.576 58.688l226.782 38.628c20.992 3.597 39.791-13.974 38.24-35.704z" />
<glyph unicode="&#x1f3b0;" glyph-name="conversions" d="M864.355 295.104l99.34-88.39c38.483 71.892 60.305 154.040 60.305 241.286 0 282.77-229.23 512-512 512s-512-229.23-512-512c0-238.571 163.171-439.032 384-495.87v133.72c-149.145 52.715-256 194.954-256 362.15 0 212.077 171.923 384 384 384s384-171.923 384-384c0-54.341-11.287-106.045-31.645-152.896zM603.722 537.281l196.984-166.058c6.498 24.499 9.961 50.233 9.961 76.777 0 164.949-133.718 298.667-298.667 298.667s-298.667-133.718-298.667-298.667c0-119.142 69.762-221.991 170.667-269.925v288.629c0 52.419 38.91 91.824 88.262 104.756 12.323 3.223 25.031 4.716 37.666 4.524 0.69 0.011 1.38 0.016 2.073 0.016 35.967 0 68.47-14.835 91.722-38.719zM509.805 484.367c-6.24 5.59-16.315 7.8-25.474 5.243-8.987-2.513-14.998-8.97-14.998-16.249v-452.249c0-7.626 6.24-14.213 15.628-16.596l7.156-0.867c7.156 0 14.139 2.557 18.605 6.976l102.182 104.429 71.098-153.696c9.159-19.802 37.552-30.159 63.713-23.182 25.932 6.76 39.842 28.425 30.626 48.054l-69.724 150.966 160.113-23.529c9.789-1.343 19.177 2.037 24.1 8.32 4.923 6.24 4.064 14.213-2.233 19.802l-380.791 342.578z" />
</font>
</defs>
</svg>
