<?xml version="1.0" encoding="UTF-8"?>
<svg width="32px" height="32px" viewBox="0 0 32 32" version="1.1" xmlns="http://www.w3.org/2000/svg" xmlns:xlink="http://www.w3.org/1999/xlink">
    <title>migrate</title>
    <defs>
        <linearGradient x1="0%" y1="13.2653061%" x2="100%" y2="86.7346939%" id="linearGradient-1">
            <stop stop-color="#FF928B" offset="0%"></stop>
            <stop stop-color="#FFF2EA" offset="100%"></stop>
        </linearGradient>
        <linearGradient x1="20.7358511%" y1="3.24918714%" x2="50%" y2="100%" id="linearGradient-2">
            <stop stop-color="#FFE6B9" offset="0%"></stop>
            <stop stop-color="#F79B1C" offset="100%"></stop>
        </linearGradient>
    </defs>
    <g id="migrate" stroke="none" stroke-width="1" fill="none" fill-rule="evenodd">
        <path d="M2.66666667,0 L18.3333333,0 C19.8060927,-2.705415e-16 21,1.19390733 21,2.66666667 L21,15.3333333 C21,16.8060927 19.8060927,18 18.3333333,18 L2.66666667,18 C1.19390733,18 -7.07817419e-16,16.8060927 0,15.3333333 L0,2.66666667 C-1.80361e-16,1.19390733 1.19390733,-1.06172613e-15 2.66666667,0 Z" id="Rectangle" fill="url(#linearGradient-1)" fill-rule="nonzero"></path>
        <path d="M13.6666667,14 L29.3333333,14 C30.8060927,14 32,15.1939073 32,16.6666667 L32,29.3333333 C32,30.8060927 30.8060927,32 29.3333333,32 L13.6666667,32 C12.1939073,32 11,30.8060927 11,29.3333333 L11,16.6666667 C11,15.1939073 12.1939073,14 13.6666667,14 Z" id="Rectangle" fill="#FF4C00" fill-rule="nonzero"></path>
        <path d="M30.9483075,8.38953752 L28.3084629,11.8398078 C28.1496305,12.0533974 27.8166771,12.0533974 27.6578448,11.8398078 L25.0180001,8.38953752 C24.871059,8.19293804 25.0528243,8.00082397 25.3433092,8.00082397 L26.8823692,8.00082397 C26.7995336,6.55723873 26.0034654,5.64859567 24.4941645,5.45840786 L24.3096248,5.43859347 C24.1341807,5.4229066 24,5.28110013 24,5.11137083 L24,3.29831266 C24,3.15418009 24.1061338,3.0339263 24.2472246,3.00611492 L24.3096248,3.00000217 C27.1312348,2.98716785 29.4304818,5.31638883 29.4304818,8.00082397 L30.6229985,8.00082397 C30.9134833,8.00082397 31.0943993,8.19293804 30.9483075,8.38953752 Z" id="Path" fill="url(#linearGradient-2)" fill-rule="nonzero"></path>
    </g>
</svg>