<?xml version="1.0" encoding="UTF-8"?>
<svg width="32px" height="32px" viewBox="0 0 32 32" version="1.1" xmlns="http://www.w3.org/2000/svg" xmlns:xlink="http://www.w3.org/1999/xlink">
    <title>security</title>
    <defs>
        <linearGradient x1="26.4667756%" y1="7.69127155%" x2="73.0010882%" y2="89.1974531%" id="linearGradient-1">
            <stop stop-color="#82D6EE" offset="0%"></stop>
            <stop stop-color="#F7FEFF" offset="100%"></stop>
        </linearGradient>
    </defs>
    <g id="security" stroke="none" stroke-width="1" fill="none" fill-rule="evenodd">
        <path d="M5.00703937,0 L26.9930572,0 C28.0976267,-1.27683729e-15 28.9930572,0.8954305 28.9930572,2 C28.9930572,2.0433163 28.9916499,2.08662117 28.9888377,2.12984609 L27.5326176,24.5124665 C27.4712435,25.4558096 26.9150181,26.2961527 26.0706369,26.7212213 L16.3175323,31.6310164 C15.7227869,31.9304162 15.0180409,31.9141948 14.4377009,31.5877475 L5.82635873,26.7437772 C5.04049364,26.3017198 4.53123862,25.4924764 4.47269982,24.5927143 L3.01125882,2.12984609 C2.93954681,1.02760693 3.77495413,0.0759314657 4.87719329,0.00421945247 C4.9204182,0.00140722637 4.96372307,4.52046285e-16 5.00703937,0 Z" id="Rectangle" fill="url(#linearGradient-1)" fill-rule="nonzero"></path>
        <path d="M21.1742471,10.8216583 C21.063829,10.6985598 20.9107923,10.6289001 20.7507729,10.6289001 C20.5907535,10.6289001 20.4377168,10.6985598 20.3272987,10.8216583 L15.3925285,16.241115 L12.9294646,13.5313867 C12.8192988,13.4078013 12.666168,13.3377988 12.5059904,13.3377988 C12.3458129,13.3377988 12.1926821,13.4078013 12.0825163,13.5313867 L10.8034515,14.9303413 C10.5700251,15.191603 10.5700251,15.6014099 10.8034515,15.8626716 L14.9690544,20.4361418 C15.0794725,20.5592404 15.2325091,20.6289001 15.3925285,20.6289001 C15.552548,20.6289001 15.7055846,20.5592404 15.8160027,20.4361418 L22.4533118,13.1547803 C22.6867383,12.8935187 22.6867383,12.4837118 22.4533118,12.2224501 L21.1742471,10.8216583 L21.1742471,10.8216583 Z" id="icon" fill="#3776FF" fill-rule="nonzero"></path>
    </g>
</svg>