<?xml version="1.0" encoding="UTF-8"?>
<svg width="32px" height="32px" viewBox="0 0 32 32" version="1.1" xmlns="http://www.w3.org/2000/svg" xmlns:xlink="http://www.w3.org/1999/xlink">
    <title>server</title>
    <defs>
        <linearGradient x1="26.5984195%" y1="27.1388964%" x2="127.471633%" y2="97.9683433%" id="linearGradient-1">
            <stop stop-color="#46E097" stop-opacity="0.974732299" offset="0%"></stop>
            <stop stop-color="#FFFFFF" offset="100%"></stop>
        </linearGradient>
    </defs>
    <g id="server" stroke="none" stroke-width="1" fill="none" fill-rule="evenodd">
        <path d="M16,0 C20.8533333,0 24.8933333,3.723125 25.8,8.6825 C29.2666667,8.94125 32,12.0175 32,15.8125 C32,19.78 29.0133333,23 25.3333333,23 L25.3333333,23 L8,23 C3.58666667,23 0,19.133125 0,14.375 C0,9.933125 3.12,6.2675 7.13333333,5.8075 C8.8,2.3575 12.1466667,0 16,0 Z M24.6666667,14 L7.33333333,14 C6.59695367,14 6,14.5969537 6,15.3333333 L6,15.3333333 L6,18.6666667 C6,19.4030463 6.59695367,20 7.33333333,20 L7.33333333,20 L24.6666667,20 C25.4030463,20 26,19.4030463 26,18.6666667 L26,18.6666667 L26,15.3333333 C26,14.5969537 25.4030463,14 24.6666667,14 L24.6666667,14 Z" id="Combined-Shape" fill="url(#linearGradient-1)" fill-rule="nonzero"></path>
        <path d="M24.6666667,26 C25.4030463,26 26,26.5969537 26,27.3333333 L26,30.6666667 C26,31.4030463 25.4030463,32 24.6666667,32 L7.33333333,32 C6.59695367,32 6,31.4030463 6,30.6666667 L6,27.3333333 C6,26.5969537 6.59695367,26 7.33333333,26 L24.6666667,26 Z M23,28 C22.4477153,28 22,28.4477153 22,29 C22,29.5522847 22.4477153,30 23,30 C23.5522847,30 24,29.5522847 24,29 C24,28.4477153 23.5522847,28 23,28 Z M20,28 C19.4477153,28 19,28.4477153 19,29 C19,29.5522847 19.4477153,30 20,30 C20.5522847,30 21,29.5522847 21,29 C21,28.4477153 20.5522847,28 20,28 Z M17,28 C16.4477153,28 16,28.4477153 16,29 C16,29.5522847 16.4477153,30 17,30 C17.5522847,30 18,29.5522847 18,29 C18,28.4477153 17.5522847,28 17,28 Z" id="Combined-Shape" fill="#46E097" fill-rule="nonzero"></path>
        <circle id="Oval" fill="#46E097" fill-rule="nonzero" cx="23" cy="17" r="1"></circle>
        <circle id="Oval" fill="#46E097" fill-rule="nonzero" cx="20" cy="17" r="1"></circle>
        <circle id="Oval" fill="#46E097" fill-rule="nonzero" cx="17" cy="17" r="1"></circle>
    </g>
</svg>