<?xml version="1.0" encoding="UTF-8"?>
<svg width="32px" height="32px" viewBox="0 0 32 32" version="1.1" xmlns="http://www.w3.org/2000/svg" xmlns:xlink="http://www.w3.org/1999/xlink">
    <title>speed</title>
    <defs>
        <linearGradient x1="1.62459357%" y1="3.24918714%" x2="50%" y2="100%" id="linearGradient-1">
            <stop stop-color="#FFE6B9" offset="0%"></stop>
            <stop stop-color="#F79B1C" offset="100%"></stop>
        </linearGradient>
    </defs>
    <g id="speed" stroke="none" stroke-width="1" fill="none" fill-rule="evenodd">
        <path d="M16,0 C7.163444,0 0,7.163444 0,16 C0,24.836556 7.163444,32 16,32 C24.836556,32 32,24.836556 32,16 C32,11.7565362 30.3142906,7.68687356 27.3137085,4.6862915 C24.3131264,1.68570945 20.2434638,0 16,0 Z M16,29 C8.82029825,29 3,23.1797017 3,16 C3,8.82029825 8.82029825,3 16,3 C23.1797017,3 29,8.82029825 29,16 C29,19.4478144 27.6303611,22.7544152 25.1923882,25.1923882 C22.7544152,27.6303611 19.4478144,29 16,29 Z" id="Shape" fill="url(#linearGradient-1)" fill-rule="nonzero"></path>
        <path d="M21.3222969,10.2249331 L22.8501194,18.5168021 C23.0723109,19.7226898 22.2748675,20.8803766 21.0689799,21.1025681 C20.9362711,21.1270204 20.8016094,21.1393229 20.6666667,21.1393229 C19.4404799,21.1393229 18.4464591,20.1453021 18.4464591,18.9191153 C18.4464591,18.7841726 18.4587616,18.6495109 18.4832139,18.5168021 L20.0110365,10.2249331 C20.0777544,9.86283857 20.4253756,9.62338848 20.7874701,9.6901064 C21.0594105,9.7402129 21.2721904,9.95299281 21.3222969,10.2249331 Z" id="Triangle" fill="#FF7B2B" fill-rule="nonzero" transform="translate(20.666667, 13.902995) rotate(65.000000) translate(-20.666667, -13.902995) "></path>
    </g>
</svg>