<?xml version="1.0" encoding="UTF-8"?>
<svg width="32px" height="32px" viewBox="0 0 32 32" version="1.1" xmlns="http://www.w3.org/2000/svg" xmlns:xlink="http://www.w3.org/1999/xlink">
    <title>staging</title>
    <defs>
        <linearGradient x1="26.5984195%" y1="5.74712644%" x2="86.6199713%" y2="90.9437859%" id="linearGradient-1">
            <stop stop-color="#4A42EC" offset="0%"></stop>
            <stop stop-color="#FBF4FF" offset="100%"></stop>
        </linearGradient>
    </defs>
    <g id="staging" stroke="none" stroke-width="1" fill="none" fill-rule="evenodd">
        <rect id="Rectangle" fill="url(#linearGradient-1)" fill-rule="nonzero" x="0" y="0" width="22" height="22" rx="2.66666667"></rect>
        <path d="M30.0005417,15.1048082 C29.9825403,14.5142197 30.4154246,14.0198397 30.9674159,14.0005796 C31.5194072,13.9813194 31.9814776,14.4444726 31.999479,15.0350611 C32.0010224,15.0949314 32.0010224,15.0949314 32.0014516,15.1576031 L32.0014516,17.9300732 C32.0014516,18.5209756 31.5537394,19 31.0014546,19 C30.4491699,19 30.0014532,18.5209822 30.0014516,17.9300797 L30.0014465,15.160186 C30.001253,15.1323953 30.001253,15.1323953 30.0005417,15.1048082 Z" id="Path" fill="#4A42EC" fill-rule="nonzero"></path>
        <path d="M10.0005417,15.1048082 C9.98254028,14.5142197 10.4154246,14.0198397 10.9674159,14.0005796 C11.5194072,13.9813194 11.9814776,14.4444726 11.999479,15.0350611 C12.0010224,15.0949314 12.0010224,15.0949314 12.0014516,15.1576031 L12.0014516,17.9300732 C12.0014516,18.5209756 11.5537394,19 11.0014546,19 C10.4491699,19 10.0014532,18.5209822 10.0014516,17.9300797 L10.0014465,15.160186 C10.001253,15.1323953 10.001253,15.1323953 10.0005417,15.1048082 Z" id="Path" fill="#4A42EC" fill-rule="nonzero"></path>
        <path d="M30,24.0714286 C30,23.4796949 30.4477153,23 31,23 C31.5522847,23 32,23.4796949 32,24.0714286 L32,26.9285714 C32,27.5203051 31.5522847,28 31,28 C30.4477153,28 30,27.5203051 30,26.9285714 L30,24.0714286 Z" id="Path" fill="#4A42EC" fill-rule="nonzero"></path>
        <path d="M10,24.0714286 C10,23.4796949 10.4477153,23 11,23 C11.5522847,23 12,23.4796949 12,24.0714286 L12,26.9285714 C12,27.5203051 11.5522847,28 11,28 C10.4477153,28 10,27.5203051 10,26.9285714 L10,24.0714286 Z" id="Path" fill="#4A42EC" fill-rule="nonzero"></path>
        <path d="M26.8617199,30.0021633 C27.4505736,29.9662161 27.9591611,30.3825441 27.9976818,30.9320579 C28.0362025,31.4815718 27.5900694,31.9561817 27.0012156,31.992129 C26.9215886,31.9969899 26.8416508,31.9996047 26.7564436,31.9999696 L24.0685059,32 C23.4783935,32 23,31.553591 23,31.0029026 C23,30.4522142 23.4783677,30.0057877 24.06848,30.005781 L26.7513775,30.0057618 C26.7883705,30.0055986 26.8251587,30.0043952 26.8617199,30.0021633 Z" id="Path" fill="#4A42EC" fill-rule="nonzero"></path>
        <path d="M26.8617199,10.0021633 C27.4505736,9.96621608 27.9591611,10.3825441 27.9976818,10.9320579 C28.0362025,11.4815718 27.5900694,11.9561817 27.0012156,11.992129 C26.9215886,11.9969899 26.8416508,11.9996047 26.7564436,11.9999696 L24.0685059,12 C23.4783935,12 23,11.553591 23,11.0029026 C23,10.4522142 23.4783677,10.0057877 24.06848,10.005781 L26.7513775,10.0057618 C26.7883705,10.0055986 26.8251587,10.0043952 26.8617199,10.0021633 Z" id="Path" fill="#4A42EC" fill-rule="nonzero"></path>
        <path d="M17.8617199,30.0021633 C18.4505736,29.9662161 18.9591611,30.3825441 18.9976818,30.9320579 C19.0362025,31.4815718 18.5900694,31.9561817 18.0012156,31.992129 C17.9215886,31.9969899 17.8416508,31.9996047 17.7564436,31.9999696 L15.0685059,32 C14.4783935,32 14,31.553591 14,31.0029026 C14,30.4522142 14.4783677,30.0057877 15.06848,30.005781 L17.7513775,30.0057618 C17.7883705,30.0055986 17.8251587,30.0043952 17.8617199,30.0021633 Z" id="Path" fill="#4A42EC" fill-rule="nonzero"></path>
        <path d="M17.8617199,10.0021633 C18.4505736,9.96621608 18.9591611,10.3825441 18.9976818,10.9320579 C19.0362025,11.4815718 18.5900694,11.9561817 18.0012156,11.992129 C17.9215886,11.9969899 17.8416508,11.9996047 17.7564436,11.9999696 L15.0685059,12 C14.4783935,12 14,11.553591 14,11.0029026 C14,10.4522142 14.4783677,10.0057877 15.06848,10.005781 L17.7513775,10.0057618 C17.7883705,10.0055986 17.8251587,10.0043952 17.8617199,10.0021633 Z" id="Path" fill="#4A42EC" fill-rule="nonzero"></path>
    </g>
</svg>