<svg xmlns="http://www.w3.org/2000/svg" width="100" height="100" viewBox="0 0 100 100" fill="none">
  <g opacity="0.1">
    <path d="M90 50C90 27.9086 72.0914 10 50 10C27.9086 10 10 27.9086 10 50C10 72.0914 27.9086 90 50 90C72.0914 90 90 72.0914 90 50Z" fill="#7E32D2"/>
  </g>
  <g opacity="0.2">
    <path d="M79 50C79 33.9837 66.0163 21 50 21C33.9837 21 21 33.9837 21 50C21 66.0163 33.9837 79 50 79C66.0163 79 79 66.0163 79 50Z" fill="#7E32D2"/>
  </g>
  <path d="M35.99 15H63.51C65.16 15 66.5 16.34 66.5 17.99V79.5H33V17.99C33 16.34 34.34 15 35.99 15Z" fill="white" stroke="#8095AD" stroke-width="1.99" stroke-miterlimit="10"/>
  <path d="M31.99 18H67.51C69.16 18 70.5 19.34 70.5 20.99V79.5H29V20.99C29 19.34 30.34 18 31.99 18Z" fill="white" stroke="#7E32D2" stroke-width="1.99" stroke-miterlimit="10"/>
  <path d="M28.97 21H71.03C72.67 21 74 22.33 74 23.97V80H26V23.97C26 22.33 27.33 21 28.97 21Z" fill="white" stroke="#4C5866" stroke-width="1.98" stroke-miterlimit="10"/>
  <path d="M63 30H36C35.4477 30 35 30.4477 35 31V39C35 39.5523 35.4477 40 36 40H63C63.5523 40 64 39.5523 64 39V31C64 30.4477 63.5523 30 63 30Z" fill="#E7EEF5"/>
  <path d="M63 31V39H36V31H63ZM63 29H36C34.9 29 34 29.9 34 31V39C34 40.1 34.9 41 36 41H63C64.1 41 65 40.1 65 39V31C65 29.9 64.1 29 63 29Z" fill="#8095AD"/>
  <path d="M58 62C60.21 62 62 63.79 62 66C62 68.21 60.21 70 58 70C55.79 70 54 68.21 54 66C54 63.79 55.79 62 58 62ZM58 60C54.69 60 52 62.69 52 66C52 69.31 54.69 72 58 72C61.31 72 64 69.31 64 66C64 62.69 61.31 60 58 60Z" fill="#7E32D2"/>
  <path d="M54.9999 45.3899C54.7899 45.3899 54.6099 45.2199 54.6099 44.9999C54.6099 44.7799 54.7799 44.6099 54.9999 44.6099H61.9999C62.2099 44.6099 62.3899 44.7799 62.3899 44.9999C62.3899 45.2199 62.2199 45.3899 61.9999 45.3899H54.9999Z" fill="white"/>
  <path d="M62 44H55C54.45 44 54 44.45 54 45C54 45.55 54.45 46 55 46H62C62.55 46 63 45.55 63 45C63 44.45 62.55 44 62 44Z" fill="#4C5866"/>
  <path d="M54.9998 48.4098C54.7698 48.4098 54.5898 48.2298 54.5898 47.9998C54.5898 47.7698 54.7698 47.5898 54.9998 47.5898H63.4998C63.7298 47.5898 63.9098 47.7698 63.9098 47.9998C63.9098 48.2298 63.7298 48.4098 63.4998 48.4098H54.9998Z" fill="white"/>
  <path d="M63.5 47H55C54.45 47 54 47.45 54 48C54 48.55 54.45 49 55 49H63.5C64.05 49 64.5 48.55 64.5 48C64.5 47.45 64.05 47 63.5 47Z" fill="#8095AD"/>
  <path d="M55.0001 51.4201C54.7701 51.4201 54.5801 51.2301 54.5801 51.0001C54.5801 50.7701 54.7701 50.5801 55.0001 50.5801H63.0001C63.2301 50.5801 63.4201 50.7701 63.4201 51.0001C63.4201 51.2301 63.2301 51.4201 63.0001 51.4201H55.0001Z" fill="white"/>
  <path d="M63 50H55C54.45 50 54 50.45 54 51C54 51.55 54.45 52 55 52H63C63.55 52 64 51.55 64 51C64 50.45 63.55 50 63 50Z" fill="#BEC9D6"/>
  <path d="M55.0001 54.4201C54.7701 54.4201 54.5801 54.2301 54.5801 54.0001C54.5801 53.7701 54.7701 53.5801 55.0001 53.5801H61.0001C61.2301 53.5801 61.4201 53.7701 61.4201 54.0001C61.4201 54.2301 61.2301 54.4201 61.0001 54.4201H55.0001Z" fill="white"/>
  <path d="M61 53H55C54.45 53 54 53.45 54 54C54 54.55 54.45 55 55 55H61C61.55 55 62 54.55 62 54C62 53.45 61.55 53 61 53Z" fill="#E7EEF5"/>
  <path d="M46.1401 60.5801H40.8701C40.7099 60.5801 40.5801 60.7099 40.5801 60.8701V61.1401C40.5801 61.3002 40.7099 61.4301 40.8701 61.4301H46.1401C46.3002 61.4301 46.4301 61.3002 46.4301 61.1401V60.8701C46.4301 60.7099 46.3002 60.5801 46.1401 60.5801Z" fill="white"/>
  <path d="M46.1302 60H40.8602C40.3802 60 39.9902 60.39 39.9902 60.87V61.14C39.9902 61.62 40.3802 62.01 40.8602 62.01H46.1302C46.6102 62.01 47.0002 61.62 47.0002 61.14V60.87C47.0002 60.39 46.6102 60 46.1302 60Z" fill="#4C5866"/>
  <path d="M48.1401 65.5801H40.8701C40.7099 65.5801 40.5801 65.7099 40.5801 65.8701V66.1401C40.5801 66.3002 40.7099 66.4301 40.8701 66.4301H48.1401C48.3002 66.4301 48.4301 66.3002 48.4301 66.1401V65.8701C48.4301 65.7099 48.3002 65.5801 48.1401 65.5801Z" fill="#E7EEF5"/>
  <path d="M48.1302 65H40.8602C40.3802 65 39.9902 65.39 39.9902 65.87V66.14C39.9902 66.62 40.3802 67.01 40.8602 67.01H48.1302C48.6102 67.01 49.0002 66.62 49.0002 66.14V65.87C49.0002 65.39 48.6102 65 48.1302 65Z" fill="#8095AD"/>
  <path d="M44.1401 70.5801H40.8701C40.7099 70.5801 40.5801 70.7099 40.5801 70.8701V71.1401C40.5801 71.3002 40.7099 71.4301 40.8701 71.4301H44.1401C44.3002 71.4301 44.4301 71.3002 44.4301 71.1401V70.8701C44.4301 70.7099 44.3002 70.5801 44.1401 70.5801Z" fill="#E7EEF5"/>
  <path d="M44.1302 70H40.8602C40.3802 70 39.9902 70.39 39.9902 70.87V71.14C39.9902 71.62 40.3802 72.01 40.8602 72.01H44.1302C44.6102 72.01 45.0002 71.62 45.0002 71.14V70.87C45.0002 70.39 44.6102 70 44.1302 70Z" fill="#BEC9D6"/>
  <path d="M36.86 60H35.14C35.0627 60 35 60.0627 35 60.14V61.86C35 61.9373 35.0627 62 35.14 62H36.86C36.9373 62 37 61.9373 37 61.86V60.14C37 60.0627 36.9373 60 36.86 60Z" fill="white"/>
  <path d="M36.8598 59H35.1498C34.5198 59 34.0098 59.51 34.0098 60.14V61.85C34.0098 62.48 34.5198 62.99 35.1498 62.99H36.8598C37.4898 62.99 37.9998 62.48 37.9998 61.85V60.14C37.9998 59.51 37.4898 59 36.8598 59Z" fill="#7E32D2"/>
  <path d="M36.86 65H35.14C35.0627 65 35 65.0627 35 65.14V66.86C35 66.9373 35.0627 67 35.14 67H36.86C36.9373 67 37 66.9373 37 66.86V65.14C37 65.0627 36.9373 65 36.86 65Z" fill="white"/>
  <path d="M36.8598 64H35.1498C34.5198 64 34.0098 64.51 34.0098 65.14V66.85C34.0098 67.48 34.5198 67.99 35.1498 67.99H36.8598C37.4898 67.99 37.9998 67.48 37.9998 66.85V65.14C37.9998 64.51 37.4898 64 36.8598 64Z" fill="#8095AD"/>
  <path d="M36.86 70H35.14C35.0627 70 35 70.0627 35 70.14V71.86C35 71.9373 35.0627 72 35.14 72H36.86C36.9373 72 37 71.9373 37 71.86V70.14C37 70.0627 36.9373 70 36.86 70Z" fill="white"/>
  <path d="M36.8598 69H35.1498C34.5198 69 34.0098 69.51 34.0098 70.14V71.85C34.0098 72.48 34.5198 72.99 35.1498 72.99H36.8598C37.4898 72.99 37.9998 72.48 37.9998 71.85V70.14C37.9998 69.51 37.4898 69 36.8598 69Z" fill="#BEC9D6"/>
  <path d="M35.2603 55.0002L39.0003 48.7002L42.7403 55.0002H35.2603Z" fill="#E7EEF5"/>
  <path d="M39.0001 50.6602L40.9901 54.0002H37.0201L39.0001 50.6602ZM39.0001 47.2402C38.8301 47.2402 38.6601 47.3202 38.5601 47.4902L33.9601 55.2302C33.7601 55.5702 34.0001 56.0102 34.4001 56.0102H43.5901C43.9901 56.0102 44.2401 55.5802 44.0301 55.2302L39.4301 47.4902C39.3301 47.3202 39.1601 47.2402 38.9901 47.2402H39.0001Z" fill="#8095AD"/>
  <path d="M39.73 55.0005L45.25 45.4604L50.77 55.0005H39.73Z" fill="white"/>
  <path d="M45.2499 47.4602L49.0299 54.0002H41.4599L45.2399 47.4602M45.2399 43.9702C45.0699 43.9702 44.8999 44.0502 44.7999 44.2202L38.4299 55.2302C38.2299 55.5702 38.4799 56.0002 38.8699 56.0002H51.5999C51.9899 56.0002 52.2399 55.5702 52.0399 55.2302L45.6699 44.2202C45.5699 44.0502 45.3999 43.9702 45.2299 43.9702H45.2399Z" fill="#8095AD"/>
  <path d="M98.37 27.1196C98.37 27.1196 98.26 27.1196 98.19 27.0496L93.95 22.8096C93.85 22.7096 93.85 22.5496 93.95 22.4596C94.01 22.3996 94.09 22.3896 94.13 22.3896C94.17 22.3896 94.24 22.3896 94.31 22.4596L98.55 26.6996C98.65 26.7996 98.65 26.9596 98.55 27.0496C98.49 27.1096 98.41 27.1196 98.37 27.1196Z" fill="white"/>
  <path d="M94.1298 21.8799C93.9398 21.8799 93.7498 21.9499 93.5998 22.0999C93.3098 22.3899 93.3098 22.8699 93.5998 23.1599L97.8398 27.3999C97.9898 27.5499 98.1798 27.6199 98.3698 27.6199C98.5598 27.6199 98.7498 27.5499 98.8998 27.3999C99.1898 27.1099 99.1898 26.6299 98.8998 26.3399L94.6598 22.0999C94.5098 21.9499 94.3198 21.8799 94.1298 21.8799Z" fill="#E7EEF5"/>
  <path d="M94.13 27.1196C94.13 27.1196 94.02 27.1196 93.95 27.0496C93.85 26.9496 93.85 26.7896 93.95 26.6996L98.19 22.4596C98.25 22.3996 98.33 22.3896 98.37 22.3896C98.41 22.3896 98.48 22.3896 98.55 22.4596C98.65 22.5596 98.65 22.7196 98.55 22.8096L94.31 27.0496C94.25 27.1096 94.17 27.1196 94.13 27.1196Z" fill="white"/>
  <path d="M98.3698 21.8799C98.1798 21.8799 97.9898 21.9499 97.8398 22.0999L93.5998 26.3399C93.3098 26.6299 93.3098 27.1099 93.5998 27.3999C93.7498 27.5499 93.9398 27.6199 94.1298 27.6199C94.3198 27.6199 94.5098 27.5499 94.6598 27.3999L98.8998 23.1599C99.1898 22.8699 99.1898 22.3899 98.8998 22.0999C98.7498 21.9499 98.5598 21.8799 98.3698 21.8799Z" fill="#E7EEF5"/>
  <g opacity="0.9">
    <path d="M71.5 8.75C72.46 8.75 73.25 9.54 73.25 10.5C73.25 11.46 72.46 12.25 71.5 12.25C70.54 12.25 69.75 11.46 69.75 10.5C69.75 9.54 70.54 8.75 71.5 8.75ZM71.5 7C69.57 7 68 8.57 68 10.5C68 12.43 69.57 14 71.5 14C73.43 14 75 12.43 75 10.5C75 8.57 73.43 7 71.5 7Z" fill="#8095AD"/>
  </g>
  <path d="M14.4963 5.02955L11.0386 8.4873L14.4963 11.9451L17.9541 8.4873L14.4963 5.02955Z" fill="white"/>
  <path d="M14.4902 6.09018L16.8902 8.49018L14.4902 10.8902L12.0902 8.49018L14.4902 6.09018ZM14.4902 4.18018C14.3602 4.18018 14.2302 4.23018 14.1402 4.33018L10.3302 8.14018C10.1302 8.34018 10.1302 8.65018 10.3302 8.85018L14.1402 12.6602C14.2402 12.7602 14.3702 12.8102 14.4902 12.8102C14.6102 12.8102 14.7502 12.7602 14.8402 12.6602L18.6502 8.85018C18.8502 8.65018 18.8502 8.34018 18.6502 8.14018L14.8402 4.33018C14.7402 4.23018 14.6102 4.18018 14.4902 4.18018Z" fill="#E7EEF5"/>
  <path d="M18 79H16C15.4477 79 15 79.4477 15 80C15 80.5523 15.4477 81 16 81H18C18.5523 81 19 80.5523 19 80C19 79.4477 18.5523 79 18 79Z" fill="#8095AD"/>
  <path d="M12.11 79H11.89C11.3985 79 11 79.3985 11 79.89V80.11C11 80.6015 11.3985 81 11.89 81H12.11C12.6015 81 13 80.6015 13 80.11V79.89C13 79.3985 12.6015 79 12.11 79Z" fill="#7E32D2"/>
  <path d="M15.25 41.25C15.5261 41.25 15.75 41.0261 15.75 40.75C15.75 40.4739 15.5261 40.25 15.25 40.25C14.9739 40.25 14.75 40.4739 14.75 40.75C14.75 41.0261 14.9739 41.25 15.25 41.25Z" fill="white"/>
  <path d="M15.25 39.5C14.56 39.5 14 40.06 14 40.75C14 41.44 14.56 42 15.25 42C15.94 42 16.5 41.44 16.5 40.75C16.5 40.06 15.94 39.5 15.25 39.5Z" fill="#4C5866"/>
  <path d="M86.84 56.74C86.84 56.74 86.75 56.74 86.75 56.65V51.13C86.75 51.05 86.84 51.04 86.84 51.04L91.03 53.82V53.97L86.88 56.73L86.83 56.75L86.84 56.74Z" fill="white"/>
  <path d="M87.5 52.36L89.79 53.89L87.5 55.42V52.36ZM86.84 50.29C86.4 50.29 86 50.64 86 51.13V56.65C86 57.14 86.41 57.49 86.84 57.49C87 57.49 87.16 57.45 87.3 57.35L91.45 54.59C91.95 54.26 91.95 53.52 91.45 53.19L87.3 50.43C87.15 50.33 86.99 50.29 86.84 50.29Z" fill="#7E32D2"/>
  <path d="M88.06 79H82.94C82.4209 79 82 79.4209 82 79.94V80.06C82 80.5791 82.4209 81 82.94 81H88.06C88.5791 81 89 80.5791 89 80.06V79.94C89 79.4209 88.5791 79 88.06 79Z" fill="#8095AD"/>
  <path d="M79 79H22C21.4477 79 21 79.4477 21 80C21 80.5523 21.4477 81 22 81H79C79.5523 81 80 80.5523 80 80C80 79.4477 79.5523 79 79 79Z" fill="#4C5866"/>
</svg>