<svg width="100" height="100" viewBox="0 0 100 100" fill="none" xmlns="http://www.w3.org/2000/svg">
<g clip-path="url(#clip0_2980_3830)">
<g opacity="0.1">
<path d="M89.13 42.44C85.31 24.34 69.24 10.75 50 10.75C30.76 10.75 14.69 24.34 10.87 42.44C4.29 46.5 0 53.74 0 62C0 74.68 10.32 85 23 85C24.81 85 26.59 84.77 28.33 84.36C34.58 88.4 42.01 90.75 50 90.75C57.99 90.75 65.43 88.4 71.67 84.36C73.4 84.77 75.18 85 77 85C89.68 85 100 74.68 100 62C100 53.74 95.71 46.5 89.13 42.44Z" fill="#00B3EB"/>
</g>
<g opacity="0.2">
<path d="M78.58 45.08C76.24 31.41 64.34 21 50 21C35.66 21 23.76 31.41 21.42 45.08C12.77 45.88 6 53.14 6 62C6 71.39 13.61 79 23 79C27.44 79 31.47 77.29 34.49 74.5C38.98 77.35 44.29 79 50 79C55.71 79 61.02 77.35 65.51 74.5C68.54 77.28 72.57 79 77 79C86.39 79 94 71.39 94 62C94 53.14 87.23 45.88 78.58 45.08Z" fill="#00B3EB"/>
</g>
<path d="M47 75H26V19C26 17.34 27.34 16 29 16H42L47 21.15V75Z" fill="white" stroke="#4C5866" stroke-width="2" stroke-miterlimit="10"/>
<path d="M29 21H71C72.66 21 74 22.34 74 24V80H26V24C26 22.34 27.34 21 29 21Z" fill="white" stroke="#4C5866" stroke-width="2" stroke-miterlimit="10"/>
<path d="M63 30H36C35.4477 30 35 30.4477 35 31V39C35 39.5523 35.4477 40 36 40H63C63.5523 40 64 39.5523 64 39V31C64 30.4477 63.5523 30 63 30Z" fill="#E7EEF5"/>
<path d="M63 31V39H36V31H63ZM63 29H36C34.9 29 34 29.9 34 31V39C34 40.1 34.9 41 36 41H63C64.1 41 65 40.1 65 39V31C65 29.9 64.1 29 63 29Z" fill="#8095AD"/>
<path d="M58 62C60.21 62 62 63.79 62 66C62 68.21 60.21 70 58 70C55.79 70 54 68.21 54 66C54 63.79 55.79 62 58 62ZM58 60C54.69 60 52 62.69 52 66C52 69.31 54.69 72 58 72C61.31 72 64 69.31 64 66C64 62.69 61.31 60 58 60Z" fill="#00B3EB"/>
<path d="M55.0001 45.39C54.7901 45.39 54.6101 45.22 54.6101 45C54.6101 44.78 54.7801 44.61 55.0001 44.61H62.0001C62.2101 44.61 62.3901 44.78 62.3901 45C62.3901 45.22 62.2201 45.39 62.0001 45.39H55.0001Z" fill="white"/>
<path d="M62 44H55C54.45 44 54 44.45 54 45C54 45.55 54.45 46 55 46H62C62.55 46 63 45.55 63 45C63 44.45 62.55 44 62 44Z" fill="#4C5866"/>
<path d="M55.0001 48.41C54.7701 48.41 54.5901 48.23 54.5901 48C54.5901 47.77 54.7701 47.59 55.0001 47.59H63.5001C63.7301 47.59 63.9101 47.77 63.9101 48C63.9101 48.23 63.7301 48.41 63.5001 48.41H55.0001Z" fill="white"/>
<path d="M63.5 47H55C54.45 47 54 47.45 54 48C54 48.55 54.45 49 55 49H63.5C64.05 49 64.5 48.55 64.5 48C64.5 47.45 64.05 47 63.5 47Z" fill="#8095AD"/>
<path d="M55.0001 51.42C54.7701 51.42 54.5801 51.23 54.5801 51C54.5801 50.77 54.7701 50.58 55.0001 50.58H63.0001C63.2301 50.58 63.4201 50.77 63.4201 51C63.4201 51.23 63.2301 51.42 63.0001 51.42H55.0001Z" fill="white"/>
<path d="M63 50H55C54.45 50 54 50.45 54 51C54 51.55 54.45 52 55 52H63C63.55 52 64 51.55 64 51C64 50.45 63.55 50 63 50Z" fill="#BEC9D6"/>
<path d="M55.0001 54.42C54.7701 54.42 54.5801 54.23 54.5801 54C54.5801 53.77 54.7701 53.58 55.0001 53.58H61.0001C61.2301 53.58 61.4201 53.77 61.4201 54C61.4201 54.23 61.2301 54.42 61.0001 54.42H55.0001Z" fill="white"/>
<path d="M61 53H55C54.45 53 54 53.45 54 54C54 54.55 54.45 55 55 55H61C61.55 55 62 54.55 62 54C62 53.45 61.55 53 61 53Z" fill="#E7EEF5"/>
<path d="M46.1401 60.58H40.8701C40.7099 60.58 40.5801 60.7098 40.5801 60.87V61.14C40.5801 61.3001 40.7099 61.43 40.8701 61.43H46.1401C46.3002 61.43 46.4301 61.3001 46.4301 61.14V60.87C46.4301 60.7098 46.3002 60.58 46.1401 60.58Z" fill="white"/>
<path d="M46.13 60H40.86C40.38 60 39.99 60.39 39.99 60.87V61.14C39.99 61.62 40.38 62.01 40.86 62.01H46.13C46.61 62.01 47 61.62 47 61.14V60.87C47 60.39 46.61 60 46.13 60Z" fill="#4C5866"/>
<path d="M48.1401 65.58H40.8701C40.7099 65.58 40.5801 65.7098 40.5801 65.87V66.14C40.5801 66.3001 40.7099 66.43 40.8701 66.43H48.1401C48.3002 66.43 48.4301 66.3001 48.4301 66.14V65.87C48.4301 65.7098 48.3002 65.58 48.1401 65.58Z" fill="#E7EEF5"/>
<path d="M48.13 65H40.86C40.38 65 39.99 65.39 39.99 65.87V66.14C39.99 66.62 40.38 67.01 40.86 67.01H48.13C48.61 67.01 49 66.62 49 66.14V65.87C49 65.39 48.61 65 48.13 65Z" fill="#8095AD"/>
<path d="M44.1401 70.58H40.8701C40.7099 70.58 40.5801 70.7098 40.5801 70.87V71.14C40.5801 71.3001 40.7099 71.43 40.8701 71.43H44.1401C44.3002 71.43 44.4301 71.3001 44.4301 71.14V70.87C44.4301 70.7098 44.3002 70.58 44.1401 70.58Z" fill="#E7EEF5"/>
<path d="M44.13 70H40.86C40.38 70 39.99 70.39 39.99 70.87V71.14C39.99 71.62 40.38 72.01 40.86 72.01H44.13C44.61 72.01 45 71.62 45 71.14V70.87C45 70.39 44.61 70 44.13 70Z" fill="#BEC9D6"/>
<path d="M36.86 60H35.14C35.0627 60 35 60.0627 35 60.14V61.86C35 61.9373 35.0627 62 35.14 62H36.86C36.9373 62 37 61.9373 37 61.86V60.14C37 60.0627 36.9373 60 36.86 60Z" fill="white"/>
<path d="M36.86 59H35.15C34.52 59 34.01 59.51 34.01 60.14V61.85C34.01 62.48 34.52 62.99 35.15 62.99H36.86C37.49 62.99 38 62.48 38 61.85V60.14C38 59.51 37.49 59 36.86 59Z" fill="#00B3EB"/>
<path d="M36.86 65H35.14C35.0627 65 35 65.0627 35 65.14V66.86C35 66.9373 35.0627 67 35.14 67H36.86C36.9373 67 37 66.9373 37 66.86V65.14C37 65.0627 36.9373 65 36.86 65Z" fill="white"/>
<path d="M36.86 64H35.15C34.52 64 34.01 64.51 34.01 65.14V66.85C34.01 67.48 34.52 67.99 35.15 67.99H36.86C37.49 67.99 38 67.48 38 66.85V65.14C38 64.51 37.49 64 36.86 64Z" fill="#8095AD"/>
<path d="M36.86 70H35.14C35.0627 70 35 70.0627 35 70.14V71.86C35 71.9373 35.0627 72 35.14 72H36.86C36.9373 72 37 71.9373 37 71.86V70.14C37 70.0627 36.9373 70 36.86 70Z" fill="white"/>
<path d="M36.86 69H35.15C34.52 69 34.01 69.51 34.01 70.14V71.85C34.01 72.48 34.52 72.99 35.15 72.99H36.86C37.49 72.99 38 72.48 38 71.85V70.14C38 69.51 37.49 69 36.86 69Z" fill="#BEC9D6"/>
<path d="M35.26 55L39 48.7L42.74 55H35.26Z" fill="#E7EEF5"/>
<path d="M39.0001 50.66L40.9901 54H37.0201L39.0001 50.66ZM39.0001 47.24C38.8301 47.24 38.6601 47.32 38.5601 47.49L33.9601 55.23C33.7601 55.57 34.0001 56.01 34.4001 56.01H43.5901C43.9901 56.01 44.2401 55.58 44.0301 55.23L39.4301 47.49C39.3301 47.32 39.1601 47.24 38.9901 47.24H39.0001Z" fill="#8095AD"/>
<path d="M39.73 55L45.25 45.46L50.77 55H39.73Z" fill="white"/>
<path d="M45.2499 47.46L49.0299 54H41.4599L45.2399 47.46M45.2499 43.97C45.0799 43.97 44.9099 44.05 44.8099 44.22L38.4399 55.23C38.2399 55.57 38.4899 56 38.8799 56H51.6099C51.9999 56 52.2499 55.57 52.0499 55.23L45.6799 44.22C45.5799 44.05 45.4099 43.97 45.2399 43.97H45.2499Z" fill="#8095AD"/>
<path d="M83.32 99.47C83.32 99.47 83.2 99.47 83.13 99.39L78.61 94.87C78.54 94.8 78.53 94.72 78.53 94.68C78.53 94.64 78.53 94.56 78.61 94.49C78.69 94.42 78.76 94.41 78.8 94.41C78.84 94.41 78.92 94.41 78.99 94.49L83.51 99.01C83.58 99.08 83.59 99.16 83.59 99.2C83.59 99.24 83.59 99.32 83.51 99.39C83.44 99.46 83.36 99.47 83.32 99.47Z" fill="white"/>
<path d="M78.8001 93.88C78.6001 93.88 78.3901 93.96 78.2301 94.11C77.9201 94.42 77.9201 94.93 78.2301 95.24L82.7501 99.76C82.9101 99.92 83.1101 99.99 83.3201 99.99C83.5301 99.99 83.7301 99.91 83.8901 99.76C84.2001 99.45 84.2001 98.94 83.8901 98.63L79.3701 94.11C79.2101 93.95 79.0101 93.88 78.8001 93.88Z" fill="#E7EEF5"/>
<path d="M78.8 99.47C78.8 99.47 78.68 99.47 78.61 99.39C78.54 99.32 78.53 99.24 78.53 99.2C78.53 99.16 78.53 99.08 78.61 99.01L83.13 94.49C83.2 94.42 83.28 94.41 83.32 94.41C83.36 94.41 83.44 94.41 83.51 94.49C83.58 94.57 83.59 94.64 83.59 94.68C83.59 94.72 83.59 94.8 83.51 94.87L78.99 99.39C78.92 99.46 78.84 99.47 78.8 99.47Z" fill="white"/>
<path d="M83.3201 93.88C83.1201 93.88 82.9101 93.96 82.7501 94.11L78.2301 98.63C77.9201 98.94 77.9201 99.45 78.2301 99.76C78.3901 99.92 78.5901 99.99 78.8001 99.99C79.0101 99.99 79.2101 99.91 79.3701 99.76L83.8901 95.24C84.2001 94.93 84.2001 94.42 83.8901 94.11C83.7301 93.95 83.5301 93.88 83.3201 93.88Z" fill="#E7EEF5"/>
<path d="M65 5.25C66.2426 5.25 67.25 4.24264 67.25 3C67.25 1.75736 66.2426 0.75 65 0.75C63.7574 0.75 62.75 1.75736 62.75 3C62.75 4.24264 63.7574 5.25 65 5.25Z" fill="white"/>
<path d="M65 1.5C65.83 1.5 66.5 2.17 66.5 3C66.5 3.83 65.83 4.5 65 4.5C64.17 4.5 63.5 3.83 63.5 3C63.5 2.17 64.17 1.5 65 1.5ZM65 0C63.34 0 62 1.34 62 3C62 4.66 63.34 6 65 6C66.66 6 68 4.66 68 3C68 1.34 66.66 0 65 0Z" fill="#E7EEF5"/>
<path d="M14.4899 16.8001L16.1799 18.4901L14.4899 20.1801L12.7999 18.4901L14.4899 16.8001ZM14.4899 14.1801C14.3599 14.1801 14.2299 14.2301 14.1399 14.3301L10.3299 18.1401C10.1299 18.3401 10.1299 18.6501 10.3299 18.8501L14.1399 22.6601C14.2399 22.7601 14.3699 22.8101 14.4899 22.8101C14.6099 22.8101 14.7499 22.7601 14.8399 22.6601L18.6499 18.8501C18.8499 18.6501 18.8499 18.3401 18.6499 18.1401L14.8399 14.3301C14.7399 14.2301 14.6099 14.1801 14.4899 14.1801Z" fill="#00B3EB"/>
<path d="M17 79H15C14.4477 79 14 79.4477 14 80C14 80.5523 14.4477 81 15 81H17C17.5523 81 18 80.5523 18 80C18 79.4477 17.5523 79 17 79Z" fill="#8095AD"/>
<path d="M11.09 79H10.91C10.4074 79 10 79.4074 10 79.91V80.09C10 80.5926 10.4074 81 10.91 81H11.09C11.5926 81 12 80.5926 12 80.09V79.91C12 79.4074 11.5926 79 11.09 79Z" fill="#00B3EB"/>
<path d="M15.5 91.25C15.9142 91.25 16.25 90.9142 16.25 90.5C16.25 90.0858 15.9142 89.75 15.5 89.75C15.0858 89.75 14.75 90.0858 14.75 90.5C14.75 90.9142 15.0858 91.25 15.5 91.25Z" fill="white"/>
<path d="M15.5 89C14.67 89 14 89.67 14 90.5C14 91.33 14.67 92 15.5 92C16.33 92 17 91.33 17 90.5C17 89.67 16.33 89 15.5 89Z" fill="#4C5866"/>
<path d="M99.16 36.6901C99.16 36.6901 99.13 36.6901 99.11 36.6701L95.24 33.9601V33.8101L99.11 31.1001C99.11 31.1001 99.14 31.1001 99.16 31.1001C99.2 31.1001 99.25 31.1201 99.25 31.1801V36.6101C99.25 36.6101 99.2 36.7001 99.16 36.7001V36.6901Z" fill="white"/>
<path d="M98.5 32.4401V35.3301L96.44 33.8901L98.5 32.4501M99.16 30.3301C99 30.3301 98.83 30.3801 98.68 30.4801L94.81 33.1901C94.33 33.5201 94.33 34.2301 94.81 34.5601L98.68 37.2701C98.83 37.3801 99 37.4201 99.16 37.4201C99.6 37.4201 100 37.0701 100 36.5801V31.1501C100 30.6501 99.59 30.3101 99.16 30.3101V30.3301Z" fill="#4C5866"/>
<path d="M88.16 79H82.84C82.3761 79 82 79.3761 82 79.84V80.16C82 80.6239 82.3761 81 82.84 81H88.16C88.6239 81 89 80.6239 89 80.16V79.84C89 79.3761 88.6239 79 88.16 79Z" fill="#8095AD"/>
<path d="M79 79H21C20.4477 79 20 79.4477 20 80C20 80.5523 20.4477 81 21 81H79C79.5523 81 80 80.5523 80 80C80 79.4477 79.5523 79 79 79Z" fill="#4C5866"/>
</g>
<defs>
<clipPath id="clip0_2980_3830">
<rect width="100" height="100" fill="white"/>
</clipPath>
</defs>
</svg>
