<svg width="100" height="100" viewBox="0 0 100 100" fill="none" xmlns="http://www.w3.org/2000/svg">
<g clip-path="url(#clip0_2979_3744)">
<g opacity="0.1">
<path d="M90 50C90 27.9086 72.0914 10 50 10C27.9086 10 10 27.9086 10 50C10 72.0914 27.9086 90 50 90C72.0914 90 90 72.0914 90 50Z" fill="#0044FF"/>
</g>
<g opacity="0.2">
<path d="M50.0199 18.88H49.9899C32.8083 18.88 18.8799 32.8084 18.8799 49.99V50.02C18.8799 67.2016 32.8083 81.13 49.9899 81.13H50.0199C67.2015 81.13 81.1299 67.2016 81.1299 50.02V49.99C81.1299 32.8084 67.2015 18.88 50.0199 18.88Z" fill="#0044FF"/>
</g>
<path d="M29 21H71C72.66 21 74 22.34 74 24V80H26V24C26 22.34 27.34 21 29 21Z" fill="white" stroke="#4C5866" stroke-width="2" stroke-miterlimit="10"/>
<path d="M96.25 28C96.11 28 96 27.89 96 27.75V21.75C96 21.61 96.11 21.5 96.25 21.5C96.39 21.5 96.5 21.61 96.5 21.75V27.75C96.5 27.89 96.39 28 96.25 28Z" fill="white"/>
<path d="M96.25 21C95.84 21 95.5 21.34 95.5 21.75V27.75C95.5 28.16 95.84 28.5 96.25 28.5C96.66 28.5 97 28.16 97 27.75V21.75C97 21.34 96.66 21 96.25 21Z" fill="#E7EEF5"/>
<path d="M93.25 25C93.11 25 93 24.89 93 24.75C93 24.61 93.11 24.5 93.25 24.5H99.25C99.39 24.5 99.5 24.61 99.5 24.75C99.5 24.89 99.39 25 99.25 25H93.25Z" fill="white"/>
<path d="M99.25 24H93.25C92.84 24 92.5 24.34 92.5 24.75C92.5 25.16 92.84 25.5 93.25 25.5H99.25C99.66 25.5 100 25.16 100 24.75C100 24.34 99.66 24 99.25 24Z" fill="#E7EEF5"/>
<path d="M89 79H84C83.4477 79 83 79.4477 83 80C83 80.5523 83.4477 81 84 81H89C89.5523 81 90 80.5523 90 80C90 79.4477 89.5523 79 89 79Z" fill="#8095AD"/>
<path d="M12 80C12 79.4477 11.5523 79 11 79C10.4477 79 10 79.4477 10 80C10 80.5523 10.4477 81 11 81C11.5523 81 12 80.5523 12 80Z" fill="#0044FF"/>
<path d="M17 79H15C14.4477 79 14 79.4477 14 80C14 80.5523 14.4477 81 15 81H17C17.5523 81 18 80.5523 18 80C18 79.4477 17.5523 79 17 79Z" fill="#8095AD"/>
<path d="M79 79H21C20.4477 79 20 79.4477 20 80C20 80.5523 20.4477 81 21 81H79C79.5523 81 80 80.5523 80 80C80 79.4477 79.5523 79 79 79Z" fill="#4C5866"/>
<path d="M63 30H36C35.4477 30 35 30.4477 35 31V39C35 39.5523 35.4477 40 36 40H63C63.5523 40 64 39.5523 64 39V31C64 30.4477 63.5523 30 63 30Z" fill="#E7EEF5"/>
<path d="M63 31V39H36V31H63ZM63 29H36C34.9 29 34 29.9 34 31V39C34 40.1 34.9 41 36 41H63C64.1 41 65 40.1 65 39V31C65 29.9 64.1 29 63 29Z" fill="#8095AD"/>
<path d="M58 62C60.21 62 62 63.79 62 66C62 68.21 60.21 70 58 70C55.79 70 54 68.21 54 66C54 63.79 55.79 62 58 62ZM58 60C54.69 60 52 62.69 52 66C52 69.31 54.69 72 58 72C61.31 72 64 69.31 64 66C64 62.69 61.31 60 58 60Z" fill="#0044FF"/>
<path d="M55.0001 45.39C54.7901 45.39 54.6101 45.22 54.6101 45C54.6101 44.78 54.7801 44.61 55.0001 44.61H62.0001C62.2101 44.61 62.3901 44.78 62.3901 45C62.3901 45.22 62.2201 45.39 62.0001 45.39H55.0001Z" fill="white"/>
<path d="M62 44H55C54.45 44 54 44.45 54 45C54 45.55 54.45 46 55 46H62C62.55 46 63 45.55 63 45C63 44.45 62.55 44 62 44Z" fill="#4C5866"/>
<path d="M55.0001 48.41C54.7701 48.41 54.5901 48.23 54.5901 48C54.5901 47.77 54.7701 47.59 55.0001 47.59H63.5001C63.7301 47.59 63.9101 47.77 63.9101 48C63.9101 48.23 63.7301 48.41 63.5001 48.41H55.0001Z" fill="white"/>
<path d="M63.5 47H55C54.45 47 54 47.45 54 48C54 48.55 54.45 49 55 49H63.5C64.05 49 64.5 48.55 64.5 48C64.5 47.45 64.05 47 63.5 47Z" fill="#8095AD"/>
<path d="M55.0001 51.42C54.7701 51.42 54.5801 51.23 54.5801 51C54.5801 50.77 54.7701 50.58 55.0001 50.58H63.0001C63.2301 50.58 63.4201 50.77 63.4201 51C63.4201 51.23 63.2301 51.42 63.0001 51.42H55.0001Z" fill="white"/>
<path d="M63 50H55C54.45 50 54 50.45 54 51C54 51.55 54.45 52 55 52H63C63.55 52 64 51.55 64 51C64 50.45 63.55 50 63 50Z" fill="#BEC9D6"/>
<path d="M55.0001 54.42C54.7701 54.42 54.5801 54.23 54.5801 54C54.5801 53.77 54.7701 53.58 55.0001 53.58H61.0001C61.2301 53.58 61.4201 53.77 61.4201 54C61.4201 54.23 61.2301 54.42 61.0001 54.42H55.0001Z" fill="white"/>
<path d="M61 53H55C54.45 53 54 53.45 54 54C54 54.55 54.45 55 55 55H61C61.55 55 62 54.55 62 54C62 53.45 61.55 53 61 53Z" fill="#E7EEF5"/>
<path d="M46.1401 60.58H40.8701C40.7099 60.58 40.5801 60.7098 40.5801 60.87V61.14C40.5801 61.3001 40.7099 61.43 40.8701 61.43H46.1401C46.3002 61.43 46.4301 61.3001 46.4301 61.14V60.87C46.4301 60.7098 46.3002 60.58 46.1401 60.58Z" fill="white"/>
<path d="M46.13 60H40.86C40.38 60 39.99 60.39 39.99 60.87V61.14C39.99 61.62 40.38 62.01 40.86 62.01H46.13C46.61 62.01 47 61.62 47 61.14V60.87C47 60.39 46.61 60 46.13 60Z" fill="#4C5866"/>
<path d="M48.1401 65.58H40.8701C40.7099 65.58 40.5801 65.7098 40.5801 65.87V66.14C40.5801 66.3001 40.7099 66.43 40.8701 66.43H48.1401C48.3002 66.43 48.4301 66.3001 48.4301 66.14V65.87C48.4301 65.7098 48.3002 65.58 48.1401 65.58Z" fill="#E7EEF5"/>
<path d="M48.13 65H40.86C40.38 65 39.99 65.39 39.99 65.87V66.14C39.99 66.62 40.38 67.01 40.86 67.01H48.13C48.61 67.01 49 66.62 49 66.14V65.87C49 65.39 48.61 65 48.13 65Z" fill="#8095AD"/>
<path d="M44.1401 70.58H40.8701C40.7099 70.58 40.5801 70.7098 40.5801 70.87V71.14C40.5801 71.3001 40.7099 71.43 40.8701 71.43H44.1401C44.3002 71.43 44.4301 71.3001 44.4301 71.14V70.87C44.4301 70.7098 44.3002 70.58 44.1401 70.58Z" fill="#E7EEF5"/>
<path d="M44.13 70H40.86C40.38 70 39.99 70.39 39.99 70.87V71.14C39.99 71.62 40.38 72.01 40.86 72.01H44.13C44.61 72.01 45 71.62 45 71.14V70.87C45 70.39 44.61 70 44.13 70Z" fill="#BEC9D6"/>
<path d="M36.86 60H35.14C35.0627 60 35 60.0627 35 60.14V61.86C35 61.9373 35.0627 62 35.14 62H36.86C36.9373 62 37 61.9373 37 61.86V60.14C37 60.0627 36.9373 60 36.86 60Z" fill="white"/>
<path d="M36.86 59H35.15C34.52 59 34.01 59.51 34.01 60.14V61.85C34.01 62.48 34.52 62.99 35.15 62.99H36.86C37.49 62.99 38 62.48 38 61.85V60.14C38 59.51 37.49 59 36.86 59Z" fill="#0044FF"/>
<path d="M36.86 65H35.14C35.0627 65 35 65.0627 35 65.14V66.86C35 66.9373 35.0627 67 35.14 67H36.86C36.9373 67 37 66.9373 37 66.86V65.14C37 65.0627 36.9373 65 36.86 65Z" fill="white"/>
<path d="M36.86 64H35.15C34.52 64 34.01 64.51 34.01 65.14V66.85C34.01 67.48 34.52 67.99 35.15 67.99H36.86C37.49 67.99 38 67.48 38 66.85V65.14C38 64.51 37.49 64 36.86 64Z" fill="#8095AD"/>
<path d="M36.86 70H35.14C35.0627 70 35 70.0627 35 70.14V71.86C35 71.9373 35.0627 72 35.14 72H36.86C36.9373 72 37 71.9373 37 71.86V70.14C37 70.0627 36.9373 70 36.86 70Z" fill="white"/>
<path d="M36.86 69H35.15C34.52 69 34.01 69.51 34.01 70.14V71.85C34.01 72.48 34.52 72.99 35.15 72.99H36.86C37.49 72.99 38 72.48 38 71.85V70.14C38 69.51 37.49 69 36.86 69Z" fill="#BEC9D6"/>
<path d="M35.26 55L39 48.7L42.74 55H35.26Z" fill="#E7EEF5"/>
<path d="M39.0001 50.66L40.9901 54H37.0201L39.0001 50.66ZM39.0001 47.24C38.8301 47.24 38.6601 47.32 38.5601 47.49L33.9601 55.23C33.7601 55.57 34.0001 56.01 34.4001 56.01H43.5901C43.9901 56.01 44.2401 55.58 44.0301 55.23L39.4301 47.49C39.3301 47.32 39.1601 47.24 38.9901 47.24H39.0001Z" fill="#8095AD"/>
<path d="M39.73 55L45.25 45.46L50.77 55H39.73Z" fill="white"/>
<path d="M45.2499 47.46L49.0299 54H41.4599L45.2399 47.46M45.2499 43.97C45.0799 43.97 44.9099 44.05 44.8099 44.22L38.4399 55.23C38.2399 55.57 38.4899 56 38.8799 56H51.6099C51.9999 56 52.2499 55.57 52.0499 55.23L45.6799 44.22C45.5799 44.05 45.4099 43.97 45.2399 43.97H45.2499Z" fill="#8095AD"/>
<path d="M74 66H84" stroke="#4C5866" stroke-width="2" stroke-miterlimit="10" stroke-linecap="round"/>
<path d="M74 55H79" stroke="#4C5866" stroke-width="2" stroke-miterlimit="10" stroke-linecap="round"/>
<path d="M74 45H89" stroke="#4C5866" stroke-width="2" stroke-miterlimit="10" stroke-linecap="round"/>
<path d="M74 34H79" stroke="#4C5866" stroke-width="2" stroke-miterlimit="10" stroke-linecap="round"/>
<path d="M85 34C85 32.3431 83.6569 31 82 31C80.3431 31 79 32.3431 79 34C79 35.6569 80.3431 37 82 37C83.6569 37 85 35.6569 85 34Z" fill="white" stroke="#4C5866" stroke-width="2.4" stroke-miterlimit="10" stroke-linecap="round"/>
<path d="M95 45C95 43.3431 93.6569 42 92 42C90.3431 42 89 43.3431 89 45C89 46.6569 90.3431 48 92 48C93.6569 48 95 46.6569 95 45Z" fill="white" stroke="#4C5866" stroke-width="2.4" stroke-miterlimit="10" stroke-linecap="round"/>
<path d="M85 55C85 53.3431 83.6569 52 82 52C80.3431 52 79 53.3431 79 55C79 56.6569 80.3431 58 82 58C83.6569 58 85 56.6569 85 55Z" fill="white" stroke="#4C5866" stroke-width="2.4" stroke-miterlimit="10" stroke-linecap="round"/>
<path d="M90 66C90 64.3431 88.6569 63 87 63C85.3431 63 84 64.3431 84 66C84 67.6569 85.3431 69 87 69C88.6569 69 90 67.6569 90 66Z" fill="white" stroke="#4C5866" stroke-width="2.4" stroke-miterlimit="10" stroke-linecap="round"/>
<path d="M26 34H21" stroke="#4C5866" stroke-width="2" stroke-miterlimit="10" stroke-linecap="round"/>
<path d="M26 45H16" stroke="#4C5866" stroke-width="2" stroke-miterlimit="10" stroke-linecap="round"/>
<path d="M26 55H21" stroke="#4C5866" stroke-width="2" stroke-miterlimit="10" stroke-linecap="round"/>
<path d="M26 67H11" stroke="#4C5866" stroke-width="2" stroke-miterlimit="10" stroke-linecap="round"/>
<path d="M5 67C5 68.6569 6.34315 70 8 70C9.65685 70 11 68.6569 11 67C11 65.3431 9.65685 64 8 64C6.34315 64 5 65.3431 5 67Z" fill="white" stroke="#4C5866" stroke-width="2.4" stroke-miterlimit="10" stroke-linecap="round"/>
<path d="M15 55C15 56.6569 16.3431 58 18 58C19.6569 58 21 56.6569 21 55C21 53.3431 19.6569 52 18 52C16.3431 52 15 53.3431 15 55Z" fill="white" stroke="#4C5866" stroke-width="2.4" stroke-miterlimit="10" stroke-linecap="round"/>
<path d="M10 45C10 46.6569 11.3431 48 13 48C14.6569 48 16 46.6569 16 45C16 43.3431 14.6569 42 13 42C11.3431 42 10 43.3431 10 45Z" fill="white" stroke="#4C5866" stroke-width="2.4" stroke-miterlimit="10" stroke-linecap="round"/>
<path d="M15 34C15 35.6569 16.3431 37 18 37C19.6569 37 21 35.6569 21 34C21 32.3431 19.6569 31 18 31C16.3431 31 15 32.3431 15 34Z" fill="white" stroke="#4C5866" stroke-width="2.4" stroke-miterlimit="10" stroke-linecap="round"/>
<path d="M63 20.5V15.5" stroke="#4C5866" stroke-width="2" stroke-miterlimit="10" stroke-linecap="round"/>
<path d="M50 20.5V10.5" stroke="#4C5866" stroke-width="2" stroke-miterlimit="10" stroke-linecap="round"/>
<path d="M37 21V18" stroke="#4C5866" stroke-width="2" stroke-miterlimit="10" stroke-linecap="round"/>
<path d="M37 11.5C35.3431 11.5 34 12.8431 34 14.5C34 16.1569 35.3431 17.5 37 17.5C38.6569 17.5 40 16.1569 40 14.5C40 12.8431 38.6569 11.5 37 11.5Z" fill="white" stroke="#4C5866" stroke-width="2.4" stroke-miterlimit="10" stroke-linecap="round"/>
<path d="M50 4C48.3431 4 47 5.34315 47 7C47 8.65685 48.3431 10 50 10C51.6569 10 53 8.65685 53 7C53 5.34315 51.6569 4 50 4Z" fill="white" stroke="#4C5866" stroke-width="2.4" stroke-miterlimit="10" stroke-linecap="round"/>
<path d="M63 9C61.3431 9 60 10.3431 60 12C60 13.6569 61.3431 15 63 15C64.6569 15 66 13.6569 66 12C66 10.3431 64.6569 9 63 9Z" fill="white" stroke="#4C5866" stroke-width="2.4" stroke-miterlimit="10" stroke-linecap="round"/>
<path d="M14.3499 10.3999C14.0499 9.57994 13.4199 8.94994 12.5999 8.64994L12.1899 8.49994L12.5999 8.34994C13.4199 8.04994 14.0499 7.41994 14.3499 6.59994L14.4999 6.18994L14.6499 6.59994C14.9499 7.41994 15.5799 8.04994 16.3999 8.34994L16.8099 8.49994L16.3999 8.64994C15.5799 8.94994 14.9499 9.57994 14.6499 10.3999L14.4999 10.8099L14.3499 10.3999Z" fill="white"/>
<path d="M14.5 7.87C14.68 8.11 14.9 8.32 15.13 8.5C14.89 8.68 14.68 8.9 14.5 9.13C14.32 8.89 14.1 8.68 13.87 8.5C14.11 8.32 14.32 8.1 14.5 7.87ZM14.5 4L13.65 6.35C13.43 6.95 12.95 7.43 12.35 7.65L10 8.5L12.35 9.35C12.95 9.57 13.43 10.05 13.65 10.65L14.5 13L15.35 10.65C15.57 10.05 16.05 9.57 16.65 9.35L19 8.5L16.65 7.65C16.05 7.43 15.57 6.95 15.35 6.35L14.5 4Z" fill="#E7EEF5"/>
<path d="M79.54 10.71L80.25 8.75L80.96 10.71C81.14 11.21 81.54 11.61 82.04 11.79L84 12.5L82.04 13.21C81.54 13.39 81.14 13.79 80.96 14.29L80.25 16.25L79.54 14.29C79.36 13.79 78.96 13.39 78.46 13.21L76.5 12.5L78.46 11.79C78.96 11.61 79.36 11.21 79.54 10.71Z" fill="#0044FF"/>
</g>
<defs>
<clipPath id="clip0_2979_3744">
<rect width="100" height="100" fill="white"/>
</clipPath>
</defs>
</svg>
