<svg xmlns="http://www.w3.org/2000/svg" viewBox="0 0 28 28" style="fill: #97d000;">
	<path d="M14 4C8.477 4 4 8.477 4 14s4.477 10 10 10 10-4.477 10-10S19.523 4 14 4zm.01 18c-4.411 0-8-3.589-8-8 0-.783.118-1.539.329-2.255.258.507.628.965.995 1.38.958 1.083.883 1.267.883 1.267.577 1.658 3.275.854 3.627 2.076s1.328.859.906 2.437c-.438 1.636.683 2.553 1.491 3.083-.077.003-.153.012-.231.012zm6.406-3.228c-.025-.011-.047-.027-.072-.037-1.754-.721-2.514-2.467-3.884-2.467s-2.113.532-2.882.436-.723-.917-1.276-1.373c-.553-.457-.457-.312-1.49-.697-1.033-.385-.24-2.307.481-1.971.721.336 1.304-.324 1.52.229.216.553.695 1.298.647.577-.048-.721.189-1.431.79-1.984s.096-.649.216-1.538 2.211.505 2.211-.312.361-.721.961-1.394c.528-.591.368-.882-.217-1.465a8.04 8.04 0 0 1 3.317 2.914c-1.041.174-1.418.809-1.953 1.92-.951 1.975 1.465 3.142 2.808 3.96.08.049.157.08.234.118a7.963 7.963 0 0 1-1.411 3.084z"/>
</svg>
