<?xml version="1.0" encoding="UTF-8" standalone="no"?>
<svg xmlns="http://www.w3.org/2000/svg" viewBox="0 0 32 32" version="1.1">
	<path
		d="M1 24h6a1 1 0 0 1 1 1v6a1 1 0 0 1-1 1H1a1 1 0 0 1-1-1v-6a1 1 0 0 1 1-1zM25 0h6a1 1 0 0 1 1 1v6a1 1 0 0 1-1 1h-6a1 1 0 0 1-1-1V1a1 1 0 0 1 1-1zM1 12h30a1 1 0 0 1 1 1v6a1 1 0 0 1-1 1H1a1 1 0 0 1-1-1v-6a1 1 0 0 1 1-1zM13 24h18a1 1 0 0 1 1 1v6a1 1 0 0 1-1 1H13a1 1 0 0 1-1-1v-6a1 1 0 0 1 1-1zM1 0h18a1 1 0 0 1 1 1v6a1 1 0 0 1-1 1H1a1 1 0 0 1-1-1V1a1 1 0 0 1 1-1z"
		id="path2"
		style="fill:#e7eef5;fill-opacity:1;stroke:none;stroke-opacity:1"/>
</svg>
