<?xml version="1.0" encoding="utf-8"?>
<!-- Generator: Adobe Illustrator 19.1.0, SVG Export Plug-In . SVG Version: 6.00 Build 0)  -->
<!DOCTYPE svg PUBLIC "-//W3C//DTD SVG 1.1//EN" "http://www.w3.org/Graphics/SVG/1.1/DTD/svg11.dtd">
<svg version="1.1" id="Layer_1" xmlns="http://www.w3.org/2000/svg" xmlns:xlink="http://www.w3.org/1999/xlink" x="0px" y="0px"
	 viewBox="0 0 118.8 32" style="enable-background:new 0 0 118.8 32;" xml:space="preserve">
<style type="text/css">
	.st0{fill:#40A878;}
	.st1{fill:#61FFB6;}
	.st2{fill:#FFFFFF;}
</style>
<g>
	<path class="st0" d="M39.6,26.5v3.6c0,1.2-0.9,1.9-2,1.9H2c-1.1,0-2-0.8-2-1.9v-3.6"/>
	<path class="st1" d="M37.5,30.1H2c-1.1,0-2-0.9-2-2.1V2.2C0,1,0.9,0,2,0h35.6c1.1,0,2,1.1,2,2.2v25.7C39.6,29,38.7,30.1,37.5,30.1z
		 M35.9,9.7V3.6H4v3.3h3.4v15.4H4v3.3h31.9l0,0v-6.1h-3.4v2.8H10.8v-6.1h13.7v2.2h3.4v-7.7h-3.4V13H10.8V6.9h21.6v2.8H35.9z"/>
</g>
<g>
	<path class="st2" d="M57.1,24.8H45.5V7.3h11.6v3h-7.9v3.8h6.4v3h-6.4v4.5h7.9V24.8z"/>
	<path class="st2" d="M82.3,24.8h-3.7V10.4h-5.3l-1.9-3.1h15.6v3.1h-4.8V24.8z"/>
	<path class="st2" d="M101.2,24.1l6.4-16.9h4.5l6.7,17.6h-4l-5-13.9l-5,13.9"/>
	<polygon class="st2" points="62.7,24.8 58.5,24.8 71.5,7.3 74.2,9.3 	"/>
	<polygon class="st2" points="71.5,24.8 75.7,24.8 62.7,7.3 58.5,7.3 	"/>
	<path class="st2" d="M96,7.3h-7.2v17.5h3.7v-6.7H96v0c3,0,5.4-2.4,5.4-5.4C101.4,9.7,98.9,7.3,96,7.3z M95.5,15l-3,0v-4.7h3v0
		c1.3,0,2.3,1,2.3,2.3C97.8,14,96.8,15,95.5,15z"/>
	<path class="st2" d="M94.1,16.6c-0.4,0-0.8,0-1.1-0.1l6.1,8.2h5.7l-2.4-1.2l-5.4-7.3C96.1,16.5,95.2,16.6,94.1,16.6z"/>
	<rect x="106.5" y="16.6" class="st2" width="7.1" height="3.2"/>
</g>
</svg>
