<?xml version="1.0" encoding="utf-8"?>
<!-- Generator: Adobe Illustrator 18.1.1, SVG Export Plug-In . SVG Version: 6.00 Build 0)  -->
<!DOCTYPE svg PUBLIC "-//W3C//DTD SVG 1.1//EN" "http://www.w3.org/Graphics/SVG/1.1/DTD/svg11.dtd">
<svg version="1.1" id="Layer_1" xmlns="http://www.w3.org/2000/svg" xmlns:xlink="http://www.w3.org/1999/xlink" x="0px" y="0px"
	 width="627px" height="376px" viewBox="0 0 627 376" enable-background="new 0 0 627 376" xml:space="preserve">
<rect fill="#EAEAEA" width="627" height="376"/>
<g>
	<path fill="#C6C6C5" d="M341.2,165h-55.4c-2.2,0-4-1.8-4-4l0,0c0-2.2,1.8-4,4-4h55.4c2.2,0,4,1.8,4,4l0,0
		C345.2,163.2,343.4,165,341.2,165z"/>
	<path fill="#C6C6C5" d="M330.7,183h-44.9c-2.2,0-4-1.8-4-4l0,0c0-2.2,1.8-4,4-4h44.9c2.2,0,4,1.8,4,4l0,0
		C334.6,181.2,332.8,183,330.7,183z"/>
	<path fill="#C6C6C5" d="M324.1,219h-38.3c-2.2,0-4-1.8-4-4l0,0c0-2.2,1.8-4,4-4h38.3c2.2,0,4,1.8,4,4l0,0
		C328,217.2,326.2,219,324.1,219z"/>
	<path fill="#C6C6C5" d="M341.2,201h-55.4c-2.2,0-4-1.8-4-4l0,0c0-2.2,1.8-4,4-4h55.4c2.2,0,4,1.8,4,4l0,0
		C345.2,199.2,343.4,201,341.2,201z"/>
</g>
</svg>
