<?xml version="1.0" encoding="utf-8"?>
<!-- Generator: Adobe Illustrator 18.1.1, SVG Export Plug-In . SVG Version: 6.00 Build 0)  -->
<!DOCTYPE svg PUBLIC "-//W3C//DTD SVG 1.1//EN" "http://www.w3.org/Graphics/SVG/1.1/DTD/svg11.dtd">
<svg version="1.1" id="Layer_1" xmlns="http://www.w3.org/2000/svg" xmlns:xlink="http://www.w3.org/1999/xlink" x="0px" y="0px"
	 width="627px" height="376px" viewBox="0 0 627 376" enable-background="new 0 0 627 376" xml:space="preserve">
<rect fill="#EAEAEA" width="627" height="376"/>
<g>
	<path fill="#C6C6C5" d="M300.8,163.1c-0.7-0.6-1.3-1-1.8-1.3c0,0,0,0-0.1,0c0,0-0.1,0-0.1,0c-0.8-0.4-1.3-0.6-1.3-0.6l0,0.1
		c-1.3-0.5-2.6-0.9-4.1-0.9c-6.4,0-11.6,5.4-11.6,12.1c0,5.5,3.6,10.2,8.4,11.6l-0.1,0c0,0,11,2.2,2.5,14.8
		c-2.3,3.1-5.3,6.4-9.4,9.7c-1.7,1.4-2,3.9-0.7,5.6c0.8,1,1.9,1.5,3,1.5c0.8,0,1.6-0.3,2.3-0.8c14.6-11.9,18.3-24,18.8-32.2
		c0.8-10.4-2.3-15.9-5.2-18.7C301.4,163.7,301.1,163.4,300.8,163.1z"/>
	<path fill="#C6C6C5" d="M339.1,163.1c-0.7-0.6-1.3-1-1.8-1.3c0,0,0,0-0.1,0c0,0-0.1,0-0.1,0c-0.8-0.4-1.3-0.6-1.3-0.6l0,0.1
		c-1.3-0.5-2.6-0.9-4.1-0.9c-6.4,0-11.6,5.4-11.6,12.1c0,5.5,3.6,10.2,8.4,11.6l-0.1,0c0,0,11,2.2,2.5,14.8
		c-2.3,3.1-5.3,6.4-9.4,9.7c-1.7,1.4-2,3.9-0.7,5.6c0.8,1,1.9,1.5,3,1.5c0.8,0,1.6-0.3,2.3-0.8c14.6-11.9,18.3-24,18.8-32.2
		c0.8-10.4-2.3-15.9-5.2-18.7C339.6,163.7,339.4,163.4,339.1,163.1z"/>
</g>
</svg>
