<?xml version="1.0" encoding="utf-8"?>
<!-- Generator: Adobe Illustrator 18.1.1, SVG Export Plug-In . SVG Version: 6.00 Build 0)  -->
<!DOCTYPE svg PUBLIC "-//W3C//DTD SVG 1.1//EN" "http://www.w3.org/Graphics/SVG/1.1/DTD/svg11.dtd">
<svg version="1.1" id="Layer_1" xmlns="http://www.w3.org/2000/svg" xmlns:xlink="http://www.w3.org/1999/xlink" x="0px" y="0px"
	 width="627px" height="376px" viewBox="0 0 627 376" enable-background="new 0 0 627 376" xml:space="preserve">
<rect fill="#EAEAEA" width="627" height="376"/>
<g>
	<path fill="#C6C6C5" d="M343.9,157.6c-1.7-1.6-4.3-1.6-6,0l-8.4,8.4l-3-3c-5.1-5.1-14-5.1-19.1,0L288.4,182
		c-5.3,5.3-5.3,13.8,0,19.1l3,3l-8.4,8.4c-1.6,1.7-1.6,4.3,0,6c0.8,0.8,1.9,1.2,3,1.2s2.2-0.4,3-1.2l8.4-8.4l3,3
		c2.6,2.5,5.9,4,9.5,4c3.6,0,7-1.4,9.6-4l19.1-19.1c5.3-5.3,5.3-13.8,0-19.1l-3-3l8.4-8.4C345.6,161.9,345.6,159.2,343.9,157.6z
		 M332.6,180.9c2,2,2,5.2,0,7.2l-19.1,19.1c-1.9,1.9-5.2,1.9-7.2,0l-3-3l7.1-7.1c1.6-1.6,1.6-4.3,0-6c-1.6-1.7-4.3-1.7-6,0l-7.1,7.1
		l-3-3c-2-2-2-5.2,0-7.2l19.1-19.1c1-1,2.2-1.5,3.6-1.5c1.4,0,2.6,0.5,3.6,1.5l3,3l-7.1,7.1c-1.6,1.6-1.6,4.3,0,6
		c0.8,0.8,1.9,1.2,3,1.2c1.1,0,2.2-0.4,3-1.2l7.1-7.1L332.6,180.9z"/>
</g>
</svg>
