<?xml version="1.0" encoding="utf-8"?>
<!-- Generator: Adobe Illustrator 18.1.1, SVG Export Plug-In . SVG Version: 6.00 Build 0)  -->
<!DOCTYPE svg PUBLIC "-//W3C//DTD SVG 1.1//EN" "http://www.w3.org/Graphics/SVG/1.1/DTD/svg11.dtd">
<svg version="1.1" id="Layer_1" xmlns="http://www.w3.org/2000/svg" xmlns:xlink="http://www.w3.org/1999/xlink" x="0px" y="0px"
	 width="627px" height="376px" viewBox="0 0 627 376" enable-background="new 0 0 627 376" xml:space="preserve">
<rect fill="#EAEAEA" width="627" height="376"/>
<path fill="#C6C6C5" d="M343.5,159.3c0-2.2-1.4-3.4-3.6-2.8l-36.6,6.7c-2.2,0.7-3.8,3-3.8,5.2v23.7c0,3.8-3,3.9-3,3.9
	c-2.6,0.2-5.3,1.2-7.6,3.1c-5.5,4.4-7.1,12-3.5,16.8c3.6,4.8,10.9,5.1,16.4,0.7c3.6-2.9,5.7-7.3,5.7-12.3V184c0-5.6,3.4-6.4,3.4-6.4
	l21.1-3.8c1.1-0.2,3.5-0.6,3.5,3.8v6.6c0,3.7-2.3,3.9-2.3,3.9c-2.6,0.2-5.3,1.2-7.6,3.1c-5.5,4.4-7.1,12-3.5,16.8
	c3.6,4.8,10.9,5.1,16.4,0.7c3.6-2.9,5-6.8,5-12.5V159.3L343.5,159.3z"/>
</svg>
