<svg width="200" height="200" viewBox="0 0 200 200" fill="none" xmlns="http://www.w3.org/2000/svg">
<g clip-path="url(#clip0_3005_3598)">
<path d="M200 0H0V200H200V0Z" fill="white"/>
<g opacity="0.1">
<path d="M180 100C180 55.8172 144.183 20 100 20C55.8172 20 20 55.8172 20 100C20 144.183 55.8172 180 100 180C144.183 180 180 144.183 180 100Z" fill="#17C5A9"/>
</g>
<g opacity="0.2">
<path d="M160.42 100C160.42 66.1947 133.015 38.79 99.21 38.79C65.4046 38.79 38 66.1947 38 100C38 133.805 65.4046 161.21 99.21 161.21C133.015 161.21 160.42 133.805 160.42 100Z" fill="#17C5A9"/>
</g>
<path d="M58 41H142C145.31 41 148 43.69 148 47V159H52V47C52 43.69 54.69 41 58 41Z" fill="white" stroke="#4C5866" stroke-width="4" stroke-miterlimit="10"/>
<path d="M31.49 34.24C31.41 34.24 31.26 34.22 31.14 34.09L22.65 25.6C22.52 25.47 22.5 25.32 22.5 25.25C22.5 25.18 22.52 25.02 22.65 24.9C22.78 24.78 22.93 24.75 23 24.75C23.07 24.75 23.23 24.77 23.35 24.9L31.84 33.39C31.97 33.52 31.99 33.67 31.99 33.74C31.99 33.81 31.97 33.97 31.84 34.09C31.71 34.21 31.56 34.24 31.49 34.24Z" fill="white"/>
<path d="M23.0001 23.7598C22.6201 23.7598 22.2301 23.9098 21.9401 24.1998C21.3501 24.7898 21.3501 25.7398 21.9401 26.3198L30.4301 34.8098C30.7201 35.0998 31.1101 35.2498 31.4901 35.2498C31.8701 35.2498 32.2601 35.0998 32.5501 34.8098C33.1401 34.2198 33.1401 33.2698 32.5501 32.6898L24.0601 24.1998C23.7701 23.9098 23.3801 23.7598 23.0001 23.7598Z" fill="#E7EEF5"/>
<path d="M23 34.24C22.92 34.24 22.77 34.22 22.65 34.09C22.52 33.96 22.5 33.81 22.5 33.74C22.5 33.67 22.52 33.51 22.65 33.39L31.14 24.9C31.27 24.77 31.42 24.75 31.49 24.75C31.56 24.75 31.72 24.77 31.84 24.9C31.96 25.03 31.99 25.18 31.99 25.25C31.99 25.32 31.97 25.48 31.84 25.6L23.35 34.09C23.22 34.22 23.07 34.24 23 34.24Z" fill="white"/>
<path d="M31.4901 23.7598C31.1101 23.7598 30.7201 23.9098 30.4301 24.1998L21.9401 32.6898C21.3501 33.2798 21.3501 34.2298 21.9401 34.8098C22.2301 35.0998 22.6201 35.2498 23.0001 35.2498C23.3801 35.2498 23.7701 35.0998 24.0601 34.8098L32.5501 26.3198C33.1401 25.7298 33.1401 24.7798 32.5501 24.1998C32.2601 23.9098 31.8701 23.7598 31.4901 23.7598Z" fill="#E7EEF5"/>
<g opacity="0.9">
<path d="M178 95C179.65 95 181 96.35 181 98C181 99.65 179.65 101 178 101C176.35 101 175 99.65 175 98C175 96.35 176.35 95 178 95ZM178 92C174.69 92 172 94.69 172 98C172 101.31 174.69 104 178 104C181.31 104 184 101.31 184 98C184 94.69 181.31 92 178 92Z" fill="#8095AD"/>
</g>
<path d="M188.979 129.596L182.063 136.511L188.979 143.427L195.894 136.511L188.979 129.596Z" fill="white"/>
<path d="M188.98 131.71L193.77 136.5L188.98 141.29L184.19 136.5L188.98 131.71ZM188.98 127.88C188.72 127.88 188.47 127.98 188.27 128.17L180.65 135.79C180.26 136.18 180.26 136.81 180.65 137.2L188.27 144.82C188.47 145.02 188.72 145.11 188.98 145.11C189.24 145.11 189.49 145.01 189.69 144.82L197.31 137.2C197.7 136.81 197.7 136.18 197.31 135.79L189.69 128.17C189.49 127.97 189.24 127.88 188.98 127.88Z" fill="#E7EEF5"/>
<path d="M175 159C175 160.105 175.895 161 177 161C178.105 161 179 160.105 179 159C179 157.895 178.105 157 177 157C175.895 157 175 157.895 175 159Z" fill="#17C5A9"/>
<path d="M147 17.5C147.552 17.5 148 17.0523 148 16.5C148 15.9477 147.552 15.5 147 15.5C146.448 15.5 146 15.9477 146 16.5C146 17.0523 146.448 17.5 147 17.5Z" fill="white"/>
<path d="M147 14C145.62 14 144.5 15.12 144.5 16.5C144.5 17.88 145.62 19 147 19C148.38 19 149.5 17.88 149.5 16.5C149.5 15.12 148.38 14 147 14Z" fill="#4C5866"/>
<path d="M141.25 141.75L57.75 58.25" stroke="#E7EEF5" stroke-width="3" stroke-miterlimit="10" stroke-linecap="round"/>
<path d="M12.3199 93.4698C12.3199 93.4698 12.2699 93.4698 12.2299 93.4398L3.93986 87.9198C3.93986 87.9198 3.85986 87.8698 3.85986 87.7698C3.85986 87.6698 3.91986 87.6298 3.93986 87.6198L12.2299 82.0998C12.2299 82.0998 12.2999 82.0698 12.3199 82.0698C12.3199 82.0698 12.4999 82.0798 12.4999 82.2498V93.2998C12.4999 93.3898 12.3999 93.4798 12.3199 93.4798V93.4698Z" fill="white"/>
<path d="M11.0001 84.7098V90.8198L6.4101 87.7598L11.0001 84.6998M12.3201 80.5598C12.0101 80.5598 11.6901 80.6498 11.3901 80.8398L3.1001 86.3598C2.1001 87.0198 2.1001 88.4898 3.1001 89.1598L11.3901 94.6798C11.6801 94.8798 12.0001 94.9598 12.3201 94.9598C13.1901 94.9598 14.0001 94.2698 14.0001 93.2798V82.2298C14.0001 81.2398 13.1901 80.5498 12.3201 80.5498V80.5598Z" fill="#17C5A9"/>
<path d="M141.25 58.25L57.75 141.75" stroke="#E7EEF5" stroke-width="3" stroke-miterlimit="10" stroke-linecap="round"/>
<path d="M65.5 47.5V152.5" stroke="#BEC9D6" stroke-width="3" stroke-miterlimit="10" stroke-linecap="round"/>
<path d="M57.5 66.5H141.5" stroke="#BEC9D6" stroke-width="3" stroke-miterlimit="10" stroke-linecap="round"/>
<path d="M132.5 47.5V152.5" stroke="#BEC9D6" stroke-width="3" stroke-miterlimit="10" stroke-linecap="round"/>
<path d="M57.5 133.5H141.5" stroke="#BEC9D6" stroke-width="3" stroke-miterlimit="10" stroke-linecap="round"/>
<path d="M158 157H42C40.8954 157 40 157.895 40 159C40 160.105 40.8954 161 42 161H158C159.105 161 160 160.105 160 159C160 157.895 159.105 157 158 157Z" fill="#4C5866"/>
<path d="M99.5 47.5V152.5" stroke="#E7EEF5" stroke-width="3" stroke-miterlimit="10" stroke-linecap="round"/>
<path d="M57.5 100.5H141.5" stroke="#E7EEF5" stroke-width="3" stroke-miterlimit="10" stroke-linecap="round"/>
<path d="M23 161H32C33.1046 161 34 160.105 34 159C34 157.895 33.1046 157 32 157H23C21.8954 157 21 157.895 21 159C21 160.105 21.8954 161 23 161Z" fill="#8095AD"/>
<path d="M166 161H169C170.105 161 171 160.105 171 159C171 157.895 170.105 157 169 157H166C164.895 157 164 157.895 164 159C164 160.105 164.895 161 166 161Z" fill="#8095AD"/>
<path d="M163 161H38V189H163V161Z" fill="white"/>
<path d="M99 68C116.64 68 131 82.36 131 100C131 117.64 116.64 132 99 132C81.36 132 67 117.64 67 100C67 82.36 81.36 68 99 68ZM99 65C79.67 65 64 80.67 64 100C64 119.33 79.67 135 99 135C118.33 135 134 119.33 134 100C134 80.67 118.33 65 99 65Z" fill="#8095AD"/>
<path d="M35.5 88.5L107.5 88.5C108.605 88.5 109.5 87.6046 109.5 86.5V57.5C109.5 56.3954 108.605 55.5 107.5 55.5L35.5 55.5C34.3954 55.5 33.5 56.3954 33.5 57.5V86.5C33.5 87.6046 34.3954 88.5 35.5 88.5Z" fill="white" stroke="#17C5A9" stroke-width="3" stroke-miterlimit="10"/>
<path d="M45 63.5H85" stroke="#4C5866" stroke-width="3" stroke-miterlimit="10" stroke-linecap="round"/>
<path d="M45 71.5H95" stroke="#8095AD" stroke-width="3" stroke-miterlimit="10" stroke-linecap="round"/>
<path d="M45 79.5H65" stroke="#BEC9D6" stroke-width="3" stroke-miterlimit="10" stroke-linecap="round"/>
<path d="M90.5 145.5H162.5C163.605 145.5 164.5 144.605 164.5 143.5V114.5C164.5 113.395 163.605 112.5 162.5 112.5H90.5C89.3954 112.5 88.5 113.395 88.5 114.5V143.5C88.5 144.605 89.3954 145.5 90.5 145.5Z" fill="white" stroke="#17C5A9" stroke-width="3" stroke-miterlimit="10"/>
<path d="M100.5 121.5H140.5" stroke="#4C5866" stroke-width="3" stroke-miterlimit="10" stroke-linecap="round"/>
<path d="M100.5 129.5H150.5" stroke="#8095AD" stroke-width="3" stroke-miterlimit="10" stroke-linecap="round"/>
<path d="M100.5 137.5H120.5" stroke="#BEC9D6" stroke-width="3" stroke-miterlimit="10" stroke-linecap="round"/>
</g>
<defs>
<clipPath id="clip0_3005_3598">
<rect width="200" height="200" fill="white"/>
</clipPath>
</defs>
</svg>
