<svg width="200" height="200" viewBox="0 0 200 200" fill="none" xmlns="http://www.w3.org/2000/svg">
<g clip-path="url(#clip0_3005_3562)">
<path d="M200 0H0V200H200V0Z" fill="white"/>
<g opacity="0.1">
<path d="M180 100C180 55.8172 144.183 20 100 20C55.8172 20 20 55.8172 20 100C20 144.183 55.8172 180 100 180C144.183 180 180 144.183 180 100Z" fill="#2385DD"/>
</g>
<g opacity="0.2">
<path d="M160.42 100C160.42 66.1947 133.015 38.79 99.21 38.79C65.4046 38.79 38 66.1947 38 100C38 133.805 65.4046 161.21 99.21 161.21C133.015 161.21 160.42 133.805 160.42 100Z" fill="#2385DD"/>
</g>
<path d="M148.5 83.1498C148.5 81.3998 148.81 79.6598 149.43 78.0198L153.69 66.6298C154.38 65.0498 156.62 65.0498 157.31 66.6298L161.57 78.0198C162.18 79.6598 162.5 81.3998 162.5 83.1498V147.5C162.5 149.71 160.71 151.5 158.5 151.5H152.5C150.29 151.5 148.5 149.71 148.5 147.5V83.1498Z" fill="white" stroke="#2385DD" stroke-width="3" stroke-miterlimit="10" stroke-linecap="round"/>
<path d="M54.5798 81.2599L79.3198 110.68C81.5798 113.37 84.8198 115.12 88.3198 115.32C92.1198 115.53 95.8298 117.26 98.4798 120.4C101.86 124.42 102.65 129.75 101.03 134.37C100.8 135.03 99.9398 135.2 99.4898 134.66L94.3798 128.59C92.3498 126.18 88.7598 125.6 86.2198 127.47C83.4398 129.52 82.9998 133.45 85.1898 136.05L90.4298 142.28C90.8798 142.82 90.5698 143.64 89.8798 143.75C85.0498 144.55 79.9298 142.86 76.5498 138.84C73.8998 135.69 72.8498 131.75 73.2898 127.96C73.6998 124.47 72.5298 120.98 70.2698 118.29L45.5298 88.8699C43.2698 86.1799 40.0298 84.4299 36.5298 84.2299C32.7298 84.0199 29.0198 82.2899 26.3698 79.1499C22.9898 75.1299 22.1998 69.7999 23.8198 65.1799C24.0498 64.5199 24.9098 64.3499 25.3598 64.8899L30.4698 70.9599C32.4998 73.3699 36.0898 73.9499 38.6298 72.0799C41.4098 70.0299 41.8498 66.0999 39.6598 63.4999L34.4198 57.2699C33.9698 56.7299 34.2798 55.9099 34.9698 55.7999C39.7998 54.9999 44.9198 56.6899 48.2998 60.7099C50.9498 63.8599 51.9998 67.7999 51.5598 71.5899C51.1498 75.0799 52.3198 78.5699 54.5798 81.2599Z" fill="white" stroke="#BEC9D6" stroke-width="3" stroke-miterlimit="10" stroke-linecap="round"/>
<path d="M58 41H142C145.31 41 148 43.69 148 47V159H52V47C52 43.69 54.69 41 58 41Z" fill="white" stroke="#4C5866" stroke-width="4" stroke-miterlimit="10"/>
<path d="M31.49 34.24C31.41 34.24 31.26 34.22 31.14 34.09L22.65 25.6C22.52 25.47 22.5 25.32 22.5 25.25C22.5 25.18 22.52 25.02 22.65 24.9C22.78 24.78 22.93 24.75 23 24.75C23.07 24.75 23.23 24.77 23.35 24.9L31.84 33.39C31.97 33.52 31.99 33.67 31.99 33.74C31.99 33.81 31.97 33.97 31.84 34.09C31.71 34.21 31.56 34.24 31.49 34.24Z" fill="white"/>
<path d="M23.0001 23.7598C22.6201 23.7598 22.2301 23.9098 21.9401 24.1998C21.3501 24.7898 21.3501 25.7398 21.9401 26.3198L30.4301 34.8098C30.7201 35.0998 31.1101 35.2498 31.4901 35.2498C31.8701 35.2498 32.2601 35.0998 32.5501 34.8098C33.1401 34.2198 33.1401 33.2698 32.5501 32.6898L24.0601 24.1998C23.7701 23.9098 23.3801 23.7598 23.0001 23.7598Z" fill="#E7EEF5"/>
<path d="M23 34.24C22.92 34.24 22.77 34.22 22.65 34.09C22.52 33.96 22.5 33.81 22.5 33.74C22.5 33.67 22.52 33.51 22.65 33.39L31.14 24.9C31.27 24.77 31.42 24.75 31.49 24.75C31.56 24.75 31.72 24.77 31.84 24.9C31.96 25.03 31.99 25.18 31.99 25.25C31.99 25.32 31.97 25.48 31.84 25.6L23.35 34.09C23.22 34.22 23.07 34.24 23 34.24Z" fill="white"/>
<path d="M31.4901 23.7598C31.1101 23.7598 30.7201 23.9098 30.4301 24.1998L21.9401 32.6898C21.3501 33.2798 21.3501 34.2298 21.9401 34.8098C22.2301 35.0998 22.6201 35.2498 23.0001 35.2498C23.3801 35.2498 23.7701 35.0998 24.0601 34.8098L32.5501 26.3198C33.1401 25.7298 33.1401 24.7798 32.5501 24.1998C32.2601 23.9098 31.8701 23.7598 31.4901 23.7598Z" fill="#E7EEF5"/>
<g opacity="0.9">
<path d="M178 95C179.65 95 181 96.35 181 98C181 99.65 179.65 101 178 101C176.35 101 175 99.65 175 98C175 96.35 176.35 95 178 95ZM178 92C174.69 92 172 94.69 172 98C172 101.31 174.69 104 178 104C181.31 104 184 101.31 184 98C184 94.69 181.31 92 178 92Z" fill="#8095AD"/>
</g>
<path d="M188.979 129.596L182.063 136.511L188.979 143.427L195.894 136.511L188.979 129.596Z" fill="white"/>
<path d="M188.98 131.71L193.77 136.5L188.98 141.29L184.19 136.5L188.98 131.71ZM188.98 127.88C188.72 127.88 188.47 127.98 188.27 128.17L180.65 135.79C180.26 136.18 180.26 136.81 180.65 137.2L188.27 144.82C188.47 145.02 188.72 145.11 188.98 145.11C189.24 145.11 189.49 145.01 189.69 144.82L197.31 137.2C197.7 136.81 197.7 136.18 197.31 135.79L189.69 128.17C189.49 127.97 189.24 127.88 188.98 127.88Z" fill="#E7EEF5"/>
<path d="M175 159C175 160.105 175.895 161 177 161C178.105 161 179 160.105 179 159C179 157.895 178.105 157 177 157C175.895 157 175 157.895 175 159Z" fill="#2385DD"/>
<path d="M147 17.5C147.552 17.5 148 17.0523 148 16.5C148 15.9477 147.552 15.5 147 15.5C146.448 15.5 146 15.9477 146 16.5C146 17.0523 146.448 17.5 147 17.5Z" fill="white"/>
<path d="M147 14C145.62 14 144.5 15.12 144.5 16.5C144.5 17.88 145.62 19 147 19C148.38 19 149.5 17.88 149.5 16.5C149.5 15.12 148.38 14 147 14Z" fill="#4C5866"/>
<path d="M141.25 141.75L57.75 58.25" stroke="#E7EEF5" stroke-width="3" stroke-miterlimit="10" stroke-linecap="round"/>
<path d="M12.3199 93.4698C12.3199 93.4698 12.2699 93.4698 12.2299 93.4398L3.93986 87.9198C3.93986 87.9198 3.85986 87.8698 3.85986 87.7698C3.85986 87.6698 3.91986 87.6298 3.93986 87.6198L12.2299 82.0998C12.2299 82.0998 12.2999 82.0698 12.3199 82.0698C12.3199 82.0698 12.4999 82.0798 12.4999 82.2498V93.2998C12.4999 93.3898 12.3999 93.4798 12.3199 93.4798V93.4698Z" fill="white"/>
<path d="M11.0001 84.7098V90.8198L6.4101 87.7598L11.0001 84.6998M12.3201 80.5598C12.0101 80.5598 11.6901 80.6498 11.3901 80.8398L3.1001 86.3598C2.1001 87.0198 2.1001 88.4898 3.1001 89.1598L11.3901 94.6798C11.6801 94.8798 12.0001 94.9598 12.3201 94.9598C13.1901 94.9598 14.0001 94.2698 14.0001 93.2798V82.2298C14.0001 81.2398 13.1901 80.5498 12.3201 80.5498V80.5598Z" fill="#2385DD"/>
<path d="M141.25 58.25L57.75 141.75" stroke="#E7EEF5" stroke-width="3" stroke-miterlimit="10" stroke-linecap="round"/>
<path d="M65.5 47.5V152.5" stroke="#BEC9D6" stroke-width="3" stroke-miterlimit="10" stroke-linecap="round"/>
<path d="M57.5 66.5H141.5" stroke="#BEC9D6" stroke-width="3" stroke-miterlimit="10" stroke-linecap="round"/>
<path d="M57.5 133.5H141.5" stroke="#BEC9D6" stroke-width="3" stroke-miterlimit="10" stroke-linecap="round"/>
<path d="M132.5 47.5V152.5" stroke="#BEC9D6" stroke-width="3" stroke-miterlimit="10" stroke-linecap="round"/>
<path d="M158 157H42C40.8954 157 40 157.895 40 159C40 160.105 40.8954 161 42 161H158C159.105 161 160 160.105 160 159C160 157.895 159.105 157 158 157Z" fill="#4C5866"/>
<path d="M99.5 47.5V152.5" stroke="#E7EEF5" stroke-width="3" stroke-miterlimit="10" stroke-linecap="round"/>
<path d="M57.5 100.5H141.5" stroke="#E7EEF5" stroke-width="3" stroke-miterlimit="10" stroke-linecap="round"/>
<path d="M67.5 133.5H97.5C98.6046 133.5 99.5 132.605 99.5 131.5V102.5C99.5 101.395 98.6046 100.5 97.5 100.5H67.5C66.3954 100.5 65.5 101.395 65.5 102.5V131.5C65.5 132.605 66.3954 133.5 67.5 133.5Z" stroke="#2385DD" stroke-width="3" stroke-miterlimit="10"/>
<path d="M130.54 66.5H101.46C100.355 66.5 99.46 67.3954 99.46 68.5V98.5C99.46 99.6046 100.355 100.5 101.46 100.5H130.54C131.645 100.5 132.54 99.6046 132.54 98.5V68.5C132.54 67.3954 131.645 66.5 130.54 66.5Z" fill="#E7EEF5" stroke="#8095AD" stroke-width="3" stroke-miterlimit="10"/>
<path d="M23 161H32C33.1046 161 34 160.105 34 159C34 157.895 33.1046 157 32 157H23C21.8954 157 21 157.895 21 159C21 160.105 21.8954 161 23 161Z" fill="#8095AD"/>
<path d="M166 161H169C170.105 161 171 160.105 171 159C171 157.895 170.105 157 169 157H166C164.895 157 164 157.895 164 159C164 160.105 164.895 161 166 161Z" fill="#8095AD"/>
<path d="M163 161H38V189H163V161Z" fill="white"/>
</g>
<defs>
<clipPath id="clip0_3005_3562">
<rect width="200" height="200" fill="white"/>
</clipPath>
</defs>
</svg>
