<svg width="200" height="200" viewBox="0 0 200 200" fill="none" xmlns="http://www.w3.org/2000/svg">
<g clip-path="url(#clip0_3005_3639)">
<path d="M200 0H0V200H200V0Z" fill="white"/>
<path d="M127.83 8.4101L130.89 13.0001H124.78L127.84 8.4101M127.83 4.3501C127.3 4.3501 126.76 4.6001 126.43 5.1001L120.91 13.3901C120.17 14.5101 120.97 16.0001 122.31 16.0001H133.36C134.7 16.0001 135.5 14.5101 134.76 13.3901L129.24 5.1001C128.91 4.6001 128.37 4.3501 127.84 4.3501H127.83Z" fill="#7E32D2"/>
<g opacity="0.1">
<path d="M180.19 100C180.19 55.8172 144.373 20 100.19 20C56.0072 20 20.1899 55.8172 20.1899 100C20.1899 144.183 56.0072 180 100.19 180C144.373 180 180.19 144.183 180.19 100Z" fill="#7E32D2"/>
</g>
<g opacity="0.2">
<path d="M100.79 38H99.21C65.4046 38 38 65.4046 38 99.21V100.79C38 134.595 65.4046 162 99.21 162H100.79C134.595 162 162 134.595 162 100.79V99.21C162 65.4046 134.595 38 100.79 38Z" fill="#7E32D2"/>
</g>
<path d="M74 29.5H126C129.31 29.5 132 32.19 132 35.5V158.5H68V35.5C68 32.19 70.69 29.5 74 29.5Z" fill="white" stroke="#BEC9D6" stroke-width="3" stroke-miterlimit="10" stroke-linecap="round"/>
<path d="M64 35.5H136C139.31 35.5 142 38.19 142 41.5V158.5H58V41.5C58 38.19 60.69 35.5 64 35.5Z" fill="white" stroke="#7E32D2" stroke-width="3" stroke-miterlimit="10"/>
<path d="M149 159H51V48C51 44.69 53.69 42 57 42H143C146.31 42 149 44.69 149 48V159Z" fill="white" stroke="#4C5866" stroke-width="4" stroke-miterlimit="10"/>
<path d="M132 55.5H66C65.7239 55.5 65.5 55.7239 65.5 56V74C65.5 74.2761 65.7239 74.5 66 74.5H132C132.276 74.5 132.5 74.2761 132.5 74V56C132.5 55.7239 132.276 55.5 132 55.5Z" fill="#E7EEF5"/>
<path d="M131 57V73H67V57H131ZM132 54H66C64.9 54 64 54.9 64 56V74C64 75.1 64.9 76 66 76H132C133.1 76 134 75.1 134 74V56C134 54.9 133.1 54 132 54Z" fill="#8095AD"/>
<path d="M129.5 89H111.5C110.672 89 110 89.6716 110 90.5C110 91.3284 110.672 92 111.5 92H129.5C130.328 92 131 91.3284 131 90.5C131 89.6716 130.328 89 129.5 89Z" fill="white"/>
<path d="M129.5 89H111.5C110.67 89 110 89.67 110 90.5C110 91.33 110.67 92 111.5 92H129.5C130.33 92 131 91.33 131 90.5C131 89.67 130.33 89 129.5 89Z" fill="#4C5866"/>
<path d="M134.5 95H111.5C110.672 95 110 95.6716 110 96.5C110 97.3284 110.672 98 111.5 98H134.5C135.328 98 136 97.3284 136 96.5C136 95.6716 135.328 95 134.5 95Z" fill="white"/>
<path d="M134.5 95H111.5C110.67 95 110 95.67 110 96.5C110 97.33 110.67 98 111.5 98H134.5C135.33 98 136 97.33 136 96.5C136 95.67 135.33 95 134.5 95Z" fill="#8095AD"/>
<path d="M134.5 101H111.5C110.672 101 110 101.672 110 102.5C110 103.328 110.672 104 111.5 104H134.5C135.328 104 136 103.328 136 102.5C136 101.672 135.328 101 134.5 101Z" fill="white"/>
<path d="M134.5 101H111.5C110.67 101 110 101.67 110 102.5C110 103.33 110.67 104 111.5 104H134.5C135.33 104 136 103.33 136 102.5C136 101.67 135.33 101 134.5 101Z" fill="#BEC9D6"/>
<path d="M127.5 107H111.5C110.672 107 110 107.672 110 108.5C110 109.328 110.672 110 111.5 110H127.5C128.328 110 129 109.328 129 108.5C129 107.672 128.328 107 127.5 107Z" fill="white"/>
<path d="M127.5 107H111.5C110.67 107 110 107.67 110 108.5C110 109.33 110.67 110 111.5 110H127.5C128.33 110 129 109.33 129 108.5C129 107.67 128.33 107 127.5 107Z" fill="#E7EEF5"/>
<path d="M95.5 123H79.5C78.6716 123 78 123.672 78 124.5C78 125.328 78.6716 126 79.5 126H95.5C96.3284 126 97 125.328 97 124.5C97 123.672 96.3284 123 95.5 123Z" fill="white"/>
<path d="M95.5 123H79.5C78.67 123 78 123.67 78 124.5C78 125.33 78.67 126 79.5 126H95.5C96.33 126 97 125.33 97 124.5C97 123.67 96.33 123 95.5 123Z" fill="#4C5866"/>
<path d="M99.5 132H79.5C78.6716 132 78 132.672 78 133.5C78 134.328 78.6716 135 79.5 135H99.5C100.328 135 101 134.328 101 133.5C101 132.672 100.328 132 99.5 132Z" fill="#E7EEF5"/>
<path d="M99.5 132H79.5C78.67 132 78 132.67 78 133.5C78 134.33 78.67 135 79.5 135H99.5C100.33 135 101 134.33 101 133.5C101 132.67 100.33 132 99.5 132Z" fill="#8095AD"/>
<path d="M91.5 141H79.5C78.6716 141 78 141.672 78 142.5C78 143.328 78.6716 144 79.5 144H91.5C92.3284 144 93 143.328 93 142.5C93 141.672 92.3284 141 91.5 141Z" fill="#E7EEF5"/>
<path d="M91.5 141H79.5C78.67 141 78 141.67 78 142.5C78 143.33 78.67 144 79.5 144H91.5C92.33 144 93 143.33 93 142.5C93 141.67 92.33 141 91.5 141Z" fill="#BEC9D6"/>
<path d="M72 122.5H69C68.7239 122.5 68.5 122.724 68.5 123V126C68.5 126.276 68.7239 126.5 69 126.5H72C72.2761 126.5 72.5 126.276 72.5 126V123C72.5 122.724 72.2761 122.5 72 122.5Z" fill="white"/>
<path d="M71 124V125H70V124H71ZM72 121H69C67.9 121 67 121.9 67 123V126C67 127.1 67.9 128 69 128H72C73.1 128 74 127.1 74 126V123C74 121.9 73.1 121 72 121Z" fill="#7E32D2"/>
<path d="M72 131.5H69C68.7239 131.5 68.5 131.724 68.5 132V135C68.5 135.276 68.7239 135.5 69 135.5H72C72.2761 135.5 72.5 135.276 72.5 135V132C72.5 131.724 72.2761 131.5 72 131.5Z" fill="white"/>
<path d="M71 133V134H70V133H71ZM72 130H69C67.9 130 67 130.9 67 132V135C67 136.1 67.9 137 69 137H72C73.1 137 74 136.1 74 135V132C74 130.9 73.1 130 72 130Z" fill="#8095AD"/>
<path d="M72 140.5H69C68.7239 140.5 68.5 140.724 68.5 141V144C68.5 144.276 68.7239 144.5 69 144.5H72C72.2761 144.5 72.5 144.276 72.5 144V141C72.5 140.724 72.2761 140.5 72 140.5Z" fill="white"/>
<path d="M71 142V143H70V142H71ZM72 139H69C67.9 139 67 139.9 67 141V144C67 145.1 67.9 146 69 146H72C73.1 146 74 145.1 74 144V141C74 139.9 73.1 139 72 139Z" fill="#BEC9D6"/>
<path d="M66.71 109.5L75.29 95.8501L83.87 109.5H66.71Z" fill="#E7EEF5"/>
<path d="M75.29 98.6698L81.15 108H69.43L75.29 98.6698ZM75.29 93.0298L64 111H86.58L75.29 93.0298Z" fill="#8095AD"/>
<path d="M74.75 109.5L87.55 88.25L100.35 109.5H74.75Z" fill="white"/>
<path d="M87.5501 91.1599L97.6901 108H77.4001L87.5401 91.1599M87.5501 85.3398L72.1001 111H103L87.5501 85.3398Z" fill="#8095AD"/>
<path d="M11.8102 146C11.7402 146 11.6102 145.98 11.5002 145.87L3.37018 137.74C3.20018 137.57 3.20018 137.29 3.37018 137.12C3.48018 137.01 3.61018 136.99 3.68018 136.99C3.75018 136.99 3.88018 137.01 3.99018 137.12L12.1202 145.25C12.2902 145.42 12.2902 145.7 12.1202 145.87C12.0102 145.98 11.8802 146 11.8102 146Z" fill="white"/>
<path d="M3.68023 136C3.31023 136 2.94023 136.14 2.66023 136.42C2.10023 136.98 2.10023 137.89 2.66023 138.45L10.7902 146.58C11.0702 146.86 11.4402 147 11.8102 147C12.1802 147 12.5502 146.86 12.8302 146.58C13.3902 146.02 13.3902 145.11 12.8302 144.55L4.70023 136.42C4.42023 136.14 4.05023 136 3.68023 136Z" fill="#E7EEF5"/>
<path d="M3.68018 146C3.61018 146 3.48018 145.98 3.37018 145.87C3.20018 145.7 3.20018 145.42 3.37018 145.25L11.5002 137.12C11.6102 137.01 11.7402 136.99 11.8102 136.99C11.8802 136.99 12.0102 137.01 12.1202 137.12C12.2902 137.29 12.2902 137.57 12.1202 137.74L3.99018 145.87C3.88018 145.98 3.75018 146 3.68018 146Z" fill="white"/>
<path d="M11.8102 136C11.4402 136 11.0702 136.14 10.7902 136.42L2.66023 144.55C2.10023 145.11 2.10023 146.02 2.66023 146.58C2.94023 146.86 3.31023 147 3.68023 147C4.05023 147 4.42023 146.86 4.70023 146.58L12.8302 138.45C13.3902 137.89 13.3902 136.98 12.8302 136.42C12.5502 136.14 12.1802 136 11.8102 136Z" fill="#E7EEF5"/>
<path d="M17 57.5C19.4853 57.5 21.5 55.4853 21.5 53C21.5 50.5147 19.4853 48.5 17 48.5C14.5147 48.5 12.5 50.5147 12.5 53C12.5 55.4853 14.5147 57.5 17 57.5Z" fill="white"/>
<path d="M17 50C18.65 50 20 51.35 20 53C20 54.65 18.65 56 17 56C15.35 56 14 54.65 14 53C14 51.35 15.35 50 17 50ZM17 47C13.69 47 11 49.69 11 53C11 56.31 13.69 59 17 59C20.31 59 23 56.31 23 53C23 49.69 20.31 47 17 47Z" fill="#4C5866"/>
<path d="M190.623 67.71L183.708 74.6255L190.623 81.541L197.539 74.6255L190.623 67.71Z" fill="white"/>
<path d="M190.62 69.83L195.41 74.62L190.62 79.41L185.83 74.62L190.62 69.83ZM190.62 66C190.36 66 190.11 66.1 189.91 66.29L182.29 73.91C181.9 74.3 181.9 74.93 182.29 75.32L189.91 82.94C190.11 83.14 190.36 83.23 190.62 83.23C190.88 83.23 191.13 83.13 191.33 82.94L198.95 75.32C199.34 74.93 199.34 74.3 198.95 73.91L191.33 66.29C191.13 66.09 190.88 66 190.62 66Z" fill="#E7EEF5"/>
<path d="M26 159C26 157.895 25.1046 157 24 157C22.8954 157 22 157.895 22 159C22 160.105 22.8954 161 24 161C25.1046 161 26 160.105 26 159Z" fill="#BEC9D6"/>
<path d="M35 157H32C30.8954 157 30 157.895 30 159C30 160.105 30.8954 161 32 161H35C36.1046 161 37 160.105 37 159C37 157.895 36.1046 157 35 157Z" fill="#8095AD"/>
<path d="M179.5 145.5C180.052 145.5 180.5 145.052 180.5 144.5C180.5 143.948 180.052 143.5 179.5 143.5C178.948 143.5 178.5 143.948 178.5 144.5C178.5 145.052 178.948 145.5 179.5 145.5Z" fill="white"/>
<path d="M179.5 142C178.12 142 177 143.12 177 144.5C177 145.88 178.12 147 179.5 147C180.88 147 182 145.88 182 144.5C182 143.12 180.88 142 179.5 142Z" fill="#4C5866"/>
<path d="M176 157H165C163.895 157 163 157.895 163 159C163 160.105 163.895 161 165 161H176C177.105 161 178 160.105 178 159C178 157.895 177.105 157 176 157Z" fill="#7E32D2"/>
<path d="M157 157H43C41.8954 157 41 157.895 41 159C41 160.105 41.8954 161 43 161H157C158.105 161 159 160.105 159 159C159 157.895 158.105 157 157 157Z" fill="#4C5866"/>
<path d="M123 143C117.49 143 113 138.51 113 133C113 127.49 117.49 123 123 123C128.51 123 133 127.49 133 133C133 138.51 128.51 143 123 143Z" fill="white"/>
<path d="M123 124.5C127.69 124.5 131.5 128.31 131.5 133C131.5 137.69 127.69 141.5 123 141.5C118.31 141.5 114.5 137.69 114.5 133C114.5 128.31 118.31 124.5 123 124.5ZM123 121.5C116.65 121.5 111.5 126.65 111.5 133C111.5 139.35 116.65 144.5 123 144.5C129.35 144.5 134.5 139.35 134.5 133C134.5 126.65 129.35 121.5 123 121.5Z" fill="#7E32D2"/>
<path d="M163 161H38V189H163V161Z" fill="white"/>
</g>
<defs>
<clipPath id="clip0_3005_3639">
<rect width="200" height="200" fill="white"/>
</clipPath>
</defs>
</svg>
