<?xml version="1.0" standalone="no"?>
<!DOCTYPE svg PUBLIC "-//W3C//DTD SVG 1.1//EN" "http://www.w3.org/Graphics/SVG/1.1/DTD/svg11.dtd" >
<svg xmlns="http://www.w3.org/2000/svg">
<metadata>Generated by IcoMoon</metadata>
<defs>
<font id="ET-Extra" horiz-adv-x="1024">
<font-face units-per-em="1024" ascent="960" descent="-64" />
<missing-glyph horiz-adv-x="1024" />
<glyph unicode="&#x20;" horiz-adv-x="512" d="" />
<glyph unicode="&#xe050;" glyph-name="plus-circle" d="M544 896c-265.088 0-480-214.912-480-480s214.912-480 480-480 480 214.912 480 480-214.912 480-480 480zM800 384h-224v-224c0-17.664-14.336-32-32-32s-32 14.336-32 32v224h-224c-17.664 0-32 14.336-32 32s14.336 32 32 32h224v224c0 17.664 14.336 32 32 32s32-14.336 32-32v-224h224c17.664 0 32-14.336 32-32s-14.336-32-32-32z" />
<glyph unicode="&#xe600;" glyph-name="blinklist" d="M0 631.36v-369.536l320 184.768zM576 896c-171.968 0-320-97.6-395.072-239.808l110.528-63.808c52.8 103.936 159.936 175.616 284.544 175.616 176.704 0 320-143.296 320-320s-143.296-320-320-320c-123.712 0-230.080 70.784-283.264 173.504l-110.656-63.872c75.392-140.992 222.848-237.632 393.92-237.632 247.424 0 448 200.576 448 448s-200.576 448-448 448zM576 256c106.048 0 192 85.952 192 192s-85.952 192-192 192c-77.248 0-142.72-46.144-173.12-112l141.12-81.408-140.096-80.896c30.784-64.64 95.744-109.696 172.096-109.696z" />
<glyph unicode="&#xe601;" glyph-name="buffer" d="M45.568 705.664l445.376-224.896c13.248-6.656 28.864-6.656 42.112 0l445.376 224.896c10.048 5.056 10.048 19.392 0 24.448l-445.376 224.896c-13.248 6.656-28.864 6.656-42.112 0l-445.376-224.896c-10.048-5.056-10.048-19.392 0-24.448zM45.568 435.776l445.376-224.896c13.248-6.656 28.864-6.656 42.112 0l445.376 224.896c10.048 5.056 10.048 19.392 0 24.448l-88.384 44.608c-13.248 6.656-28.864 6.656-42.112 0l-314.88-158.976c-13.248-6.656-28.864-6.656-42.112 0l-314.944 158.976c-13.248 6.656-28.864 6.656-42.112 0l-88.32-44.608c-10.048-5.056-10.048-19.392 0-24.448zM978.432 190.336l-88.384 44.608c-13.248 6.656-28.864 6.656-42.112 0l-314.944-159.040c-13.248-6.656-28.864-6.656-42.112 0l-314.88 159.040c-13.248 6.656-28.864 6.656-42.112 0l-88.384-44.608c-10.048-5.056-10.048-19.392 0-24.448l445.376-224.896c13.248-6.656 28.864-6.656 42.112 0l445.376 224.896c10.112 5.056 10.112 19.392 0.064 24.448z" />
<glyph unicode="&#xe602;" glyph-name="friendfeed" d="M829.312 640v57.344c0 46.016 4.992 70.656 71.040 70.656 57.024 0 121.024-32 121.024-32v160c0 0-72 64-173.952 64-169.536 0-207.424-87.616-207.424-231.552v-88.448h-321.024v57.344c0 46.016 4.992 70.656 71.040 70.656 57.024 0 121.024-32 121.024-32v160c0 0-72 64-173.888 64-169.6 0-210.176-87.616-210.176-231.552v-88.448l-126.976-0.064v-191.936h128.704v-512h190.336v512h320.96v-512h189.312v512l176 0.064 18.688 191.936h-194.688z" />
<glyph unicode="&#xe603;" glyph-name="livejournal" d="M874.752 387.52l-451.84 566.144-11.584 2.432c-5.44 1.152-129.728 24.128-230.656-56.448-115.328-92.032-106.56-210.688-106.112-215.68l0.832-9.92 450.688-564.736 423.616-173.312-74.944 451.52zM486.912 768c-40.704-7.744-94.656-25.728-147.136-67.648-54.976-43.84-84.288-89.984-100.224-126.464l-35.2 44.032c4.672 23.232 22.72 80.192 92.608 136 61.696 49.28 127.040 57.664 154.176 58.88l35.776-44.8zM534.976 707.776l257.408-322.496c-80.576-34.112-136.32-16.192-154.304-8.064l-231.296 289.728c53.376 33.152 104.832 39.808 128.192 40.832zM652.224 304.192c38.784-8.064 96.512-9.152 166.272 20.48l38.72-233.024-36.864-31.616-214.080 87.552c21.696 32.704 47.168 85.888 45.952 156.608zM221.696 848.192c61.632 49.152 136.576 48.256 165.248 45.056l16.128-20.224c-40.704-7.744-94.656-25.792-147.136-67.648-54.912-43.84-84.224-89.984-100.224-126.464l-15.616 19.584c0.896 24.128 9.984 92.544 81.6 149.696zM288.192 512.896c4.032 20.096 18.368 65.088 67.072 113.088l226.816-284.224c13.888-74.624-11.2-129.088-30.912-158.336l-262.976 329.472z" />
<glyph unicode="&#xe604;" glyph-name="netvibes" d="M1024 576h-384v384h-256v-384h-384v-256h384v-384h256v384h384z" />
<glyph unicode="&#xe605;" glyph-name="newsvine" d="M512.064 274.752l147.072 147.072c9.024-3.52 18.688-5.824 28.928-5.824 44.16 0 80 35.84 80 80s-35.84 80-80 80-80-35.84-80-80c0-10.24 2.304-19.904 5.824-28.928l-101.824-101.824v165.504l147.072 147.072c9.024-3.52 18.688-5.824 28.928-5.824 44.16 0 80 35.84 80 80s-35.84 80-80 80-80-35.84-80-80c0-10.24 2.304-19.904 5.824-28.928l-101.824-101.824v338.752h-64v-210.752l-101.824 101.824c3.52 9.024 5.824 18.688 5.824 28.928 0 44.16-35.84 80-80 80s-80-35.84-80-80 35.84-80 80-80c10.24 0 19.904 2.304 28.928 5.824l147.072-147.072v-165.504l-101.824 101.824c3.52 9.024 5.824 18.688 5.824 28.928 0 44.16-35.84 80-80 80s-80-35.84-80-80 35.84-80 80-80c10.24 0 19.904 2.304 28.928 5.824l147.072-147.072v-165.504l-101.824 101.824c3.52 9.024 5.824 18.688 5.824 28.928 0 44.16-35.84 80-80 80s-80-35.84-80-80 35.84-80 80-80c10.24 0 19.904 2.304 28.928 5.824l147.072-147.072v-210.752h64v82.752l147.072 147.072c9.024-3.52 18.688-5.824 28.928-5.824 44.16 0 80 35.84 80 80s-35.84 80-80 80-80-35.84-80-80c0-10.24 2.304-19.904 5.824-28.928l-101.824-101.824v165.504z" />
<glyph unicode="&#xe606;" glyph-name="soundcloud" d="M432.96 604.8c-15.232 7.168-31.808 11.456-48.96 14.272v-363.072h64v368.96c-5.376-6.464-10.432-13.184-15.040-20.16zM0 378.88c0-46.4 26.048-86.336 64-107.2v214.4c-37.952-20.864-64-60.8-64-107.2zM256 592.576v-336.576h64v362.688c-23.296-4.48-44.8-13.632-64-26.112zM178.56 487.872c-15.296 7.808-32.384 12.416-50.56 13.248v-245.12h64v265.536c-5.44-10.688-10.176-21.824-13.44-33.664zM894.272 515.392c-17.408 0-33.984-3.584-49.152-9.792-12.16 112.96-107.712 200.896-223.936 200.896-39.616 0.064-76.864-10.24-109.184-28.224v-422.272h382.272c71.68 0 129.728 58.048 129.728 129.728 0 71.616-58.048 129.664-129.728 129.664z" />
<glyph unicode="&#xe607;" glyph-name="vkontakte" d="M866.688 128.192c-40.384 0-84.48 52.864-114.688 89.536-17.088 20.736-78.592 95.232-109.312 87.552-28.032-6.912-26.688-49.28-26.688-133.312 0-45.312-58.688-43.84-162.56-43.84-206.784 0-453.184 529.152-453.184 600.256 0 29.888 134.080 27.584 165.376 7.808 13.12-8.32 131.456-291.392 186.368-291.392 30.080 0 67.968 15.232 67.968 144.576 0 112-8 108.032-71.488 136.768 17.344 37.76 71.68 41.472 129.088 41.472 48.192 0 93.824 3.84 117.12-27.648 22.016-29.76 16.192-60.032 16.192-148.8 0-129.856 6.528-141.888 34.496-141.888 25.28 0 82.56 108.032 125.952 211.392 10.432 24.832 27.008 83.648 46.016 91.392 28.928 11.84 190.016 12.16 201.152-13.824 9.28-21.504-163.84-299.584-162.176-331.2 1.28-24 167.872-192.448 167.872-252.416 0.064-30.656-69.888-26.432-157.504-26.432z" />
<glyph unicode="&#xe608;" glyph-name="baidu" d="M150.848 438.4c-54.784 0-101.76 58.88-106.944 133.952-5.376 77.696 36.16 144.064 92.608 147.968 0.064 0 0.192 0 0.256 0 59.776 0 106.624-58.752 111.872-133.76 5.376-77.696-36.16-144.064-92.608-147.968l-5.184-0.192zM377.984 677.632c-56.512 1.408-100.992 65.856-99.072 143.68 1.856 76.48 48.576 138.688 104.128 138.688 58.432-1.408 102.976-65.856 101.056-143.68-1.92-76.48-48.64-138.688-104.256-138.688h-1.856zM664 660.672c-6.848 0-13.696 0.96-20.224 2.752-54.464 15.168-81.856 88.512-60.928 163.584 17.92 64.448 66.944 111.232 116.544 111.232 6.848 0 13.696-0.96 20.224-2.752 54.528-15.168 81.856-88.576 60.992-163.584-18.048-64.448-67.072-111.232-116.608-111.232v0zM877.44 377.6c-56.768 0-103.616 59.328-104.384 132.352-0.768 73.6 45.12 134.016 102.336 134.656 57.536 0 104.384-59.392 105.216-132.416 0.768-73.6-45.12-133.952-102.336-134.592h-0.832zM750.4-64c-32.64 0-71.104 7.168-111.808 14.784-50.624 9.472-108.096 20.16-169.152 20.16-25.856 0-51.2-1.984-75.2-5.888-50.56-8.192-91.2-12.16-124.352-12.16-95.424 0-139.84 30.912-158.592 110.272-25.728 109.056 17.728 164.672 107.008 229.12 53.632 38.72 91.904 84.992 125.76 125.824 52.352 63.232 93.632 113.152 168.96 113.152 71.936 0 98.496-34.368 146.88-96.768 34.304-44.352 77.12-99.456 151.232-159.616 68.672-55.744 102.336-118.4 97.472-181.12-5.312-68.416-53.952-119.872-94.016-143.232-17.024-9.856-37.504-14.528-64.192-14.528v0z" />
<glyph unicode="&#xe609;" glyph-name="behance" d="M640 704h320v-64h-320v64zM301.76 768c30.592 0 58.24-2.624 83.52-8.128 25.088-5.312 46.528-14.208 64.64-26.432 17.792-12.16 31.808-28.416 41.792-48.832 9.664-20.032 14.592-45.248 14.592-75.008 0-32.192-7.296-59.136-21.952-80.64-14.72-21.504-36.352-39.104-65.28-52.8 39.424-11.328 68.544-31.232 87.936-59.584 19.456-28.544 28.928-62.72 28.928-102.72 0-32.448-6.208-60.416-18.624-83.904-12.544-23.808-29.568-43.072-50.624-57.984-21.248-15.040-45.568-26.048-72.832-33.216-26.944-7.168-54.976-10.752-83.648-10.752h-310.208v640h301.76zM283.52 512c24.96 0 45.632 3.328 62.016 15.36 16.192 11.84 24.064 31.36 24.064 58.176 0 14.912-2.624 27.2-7.872 36.736-5.44 9.6-12.608 17.088-21.696 22.336-9.024 5.44-19.2 9.216-31.040 11.264-11.584 2.24-23.744 3.136-36.224 3.136h-131.84v-147.008h142.592zM291.264 236.992c13.888 0 27.072 1.216 39.488 4.032 12.608 2.752 23.808 7.104 33.216 13.568 9.408 6.208 17.216 14.72 22.912 25.536 5.696 10.752 8.448 24.64 8.448 41.472 0 32.96-9.28 56.384-27.712 70.656-18.496 14.016-43.136 20.992-73.472 20.992h-153.216v-176.256h150.336zM725.12 247.488c18.752-18.304 45.888-27.52 81.024-27.52 25.28 0 47.104 6.4 65.408 19.136 18.176 12.736 29.184 26.304 33.472 40.448h110.336c-17.728-54.912-44.608-94.080-81.344-117.696-36.288-23.68-80.512-35.52-132.032-35.52-35.904 0-68.224 5.824-97.28 17.28-28.992 11.584-53.248 27.84-73.664 49.024-19.904 21.312-35.328 46.464-46.336 76.032-10.88 29.376-16.384 61.888-16.384 97.152 0 34.112 5.696 65.984 16.832 95.424 11.392 29.568 27.072 55.040 47.744 76.416 20.736 21.504 45.312 38.464 73.92 50.88 28.608 12.352 60.16 18.56 95.104 18.56 38.592 0 72.384-7.424 101.376-22.528 28.864-14.912 52.544-35.136 71.104-60.416s31.808-54.144 40.064-86.592c8.256-32.384 11.072-82.176 8.768-117.568h-329.088c-0.064-36.032 12.16-54.208 30.976-72.512zM869.056 487.104c-14.848 16.448-40.128 25.408-70.848 25.408-20.032 0-36.608-3.392-49.856-10.24-12.992-6.784-23.616-15.232-31.744-25.152-8.064-10.112-13.568-20.736-16.768-32.128-3.2-11.072-5.12-21.184-5.696-30.080h203.84c-3.072 32-14.016 55.616-28.928 72.192z" />
<glyph unicode="&#xe60a;" glyph-name="delicious" d="M512.704 446.528v-510.528h465.664c25.152 0 45.632 20.48 45.632 45.632v464.896h-511.296zM0 914.368v-464.96h511.296v510.592h-465.728c-25.088 0-45.568-20.48-45.568-45.632z" />
<glyph unicode="&#xe60b;" glyph-name="digg" d="M320 576h64v-256h-64v256zM192 576h-128v-256h192v384h-64v-128zM192 384h-64v128h64v-128zM512 576h-64v-256h128v-64h-128v-64h192v384h-128zM576 384h-64v128h64v-128zM832 576h-128v-256h128v-64h-128v-64h192v384h-64zM832 384h-64v128h64v-128zM320 704h64v-64h-64v64z" />
<glyph unicode="&#xe60c;" glyph-name="evernote" d="M320 716.416c0 0 0 96.576 0 155.584v24.96c0 12.096 0 19.712 0 19.712l-217.216-212.672h202.688c7.488 0 14.528 5.056 14.528 12.416zM960 320.256v320c0 96-41.344 256-192 256h-128c-4.16 28.352-28.032 37.76-50.24 46.72-59.264 23.872-117.76 18.112-141.248 11.52-18.752-5.248-39.424-15.936-50.944-32.448-7.68-11.008-13.504-25.152-13.568-44.864 0 0 0-88.96 0-188.928 0-33.984-14.016-48-46.016-48h-209.984c-20.48 0-64-3.968-64-78.592 0-26.816 36.8-182.336 64.192-238.784 0 0 15.808-48.64 78.848-66.624 0 0 108.096-27.968 145.024-32 33.728-3.648 96 0 96 96v64c0 17.664 14.336 32 32 32s31.936-14.336 31.936-32v-32c0-96 96-94.976 96-94.976h67.968c60.032 0 88.32-33.024 88.32-97.024 0-109.824-35.456-125.696-93.76-128h-61.312c-17.216 0-33.216 13.952-33.216 31.168v32.768c0 32.768 32 32 32 32s30.976 0 32 0c17.664 0 32 14.336 32 32s-14.336 32-32 32h-62.016c-36.48 0.064-65.984-29.504-65.984-65.92v-62.080c0-96 74.688-128 128-128 0 0 50.304 0 78.656 0 0 0.064 241.344-0.192 241.344 384.064zM832 448h-192v32c0 52.992 43.008 96 96 96s96-43.008 96-96v-32z" />
<glyph unicode="&#xe60d;" glyph-name="github" d="M511.936 960c-282.688 0-511.936-229.248-511.936-512 0-226.176 146.688-418.112 350.144-485.824 25.6-4.672 34.944 11.136 34.944 24.704 0 12.16-0.448 44.352-0.704 87.104-142.4-30.912-172.48 68.608-172.48 68.608-23.296 59.136-56.832 74.88-56.832 74.88-46.464 31.744 3.52 31.104 3.52 31.104 51.392-3.648 78.4-52.736 78.4-52.736 45.696-78.272 119.808-55.68 148.992-42.56 4.672 33.088 17.856 55.68 32.512 68.416-113.664 12.928-233.216 56.832-233.216 253.056 0 55.872 19.968 101.568 52.672 137.408-5.184 12.928-22.784 65.024 5.12 135.488 0 0 43.008 13.76 140.8-52.48 40.832 11.328 84.608 17.024 128.128 17.216 43.456-0.192 87.296-5.888 128.192-17.216 97.728 66.24 140.672 52.48 140.672 52.48 27.904-70.464 10.368-122.56 5.12-135.488 32.832-35.776 52.608-81.472 52.608-137.408 0-196.672-119.68-240-233.792-252.672 18.368-15.808 34.752-47.040 34.752-94.784 0-68.416-0.64-123.648-0.64-140.48 0-13.696 9.216-29.632 35.2-24.64 203.328 67.904 349.888 259.648 349.888 485.824 0 282.752-229.248 512-512.064 512z" />
<glyph unicode="&#xe60e;" glyph-name="hackernews" d="M770.624 960l-257.28-448.32-258.688 448.32h-126.656l321.344-576v-448h126.656v448l320 576z" />
<glyph unicode="&#xe60f;" glyph-name="instagram" d="M977.792 960h-931.584c-25.472 0-46.208-20.672-46.208-46.144v-931.712c0-25.408 20.736-46.144 46.208-46.144h931.584c25.472 0 46.208 20.736 46.208 46.144v931.712c0 25.472-20.736 46.144-46.208 46.144zM690.688 448c0-98.688-80-178.688-178.688-178.688s-178.688 80-178.688 178.688c0 22.656 4.672 44.096 12.288 64 25.856 66.944 90.368 114.688 166.4 114.688s140.544-47.744 166.336-114.688c7.68-19.904 12.352-41.344 12.352-64zM896 64h-768v448h84.288c-4.416-20.672-6.976-42.048-6.976-64 0-169.088 137.6-306.688 306.688-306.688s306.688 137.6 306.688 306.688c0 21.952-2.56 43.328-6.976 64h84.288v-448zM896 640h-146.816c-13.504 16.64-28.544 31.68-45.184 45.184v146.816h192v-192z" />
<glyph unicode="&#xe610;" glyph-name="linkedin" d="M130.048 0h189.952v704h-189.952v-704zM709.568 703.936c-69.568 0-104.256-33.152-133.568-55.616v55.68h-190.976v-704h190.976v443.2c0 0-6.976 88.256 98.816 88.256 63.744 0 93.184-36.288 93.184-88.256v-443.2h192v436.992c0 240-184 266.944-250.432 266.944zM320 864c0-52.992-43.008-96-96-96s-96 43.008-96 96 43.008 96 96 96 96-43.008 96-96z" />
<glyph unicode="&#xe611;" glyph-name="myspace" d="M1018.944 655.040c0-85.22-69.342-154.304-154.88-154.304s-154.88 69.084-154.88 154.304c0 85.22 69.342 154.304 154.88 154.304s154.88-69.084 154.88-154.304zM620.608 608.768c0-77.373-62.952-140.096-140.608-140.096s-140.608 62.723-140.608 140.096c0 77.373 62.952 140.096 140.608 140.096s140.608-62.723 140.608-140.096zM249.92 555.072c0-67.087-54.585-121.472-121.92-121.472s-121.92 54.385-121.92 121.472c0 67.087 54.585 121.472 121.92 121.472s121.92-54.385 121.92-121.472zM128 384c-73.856 0-128-66.048-128-134.272v-109.888c0-6.528 5.248-11.84 11.648-11.84h232.704c6.464 0 11.648 5.312 11.648 11.84v0 109.888c0 68.224-54.144 134.272-128 134.272zM480 416c-92.288 0-160-88.064-160-179.008v-93.248c0-8.64 6.528-15.744 14.528-15.744h290.88c8.064 0 14.592 7.104 14.592 15.744v0 93.248c0 90.944-67.648 179.008-160 179.008zM864 448c-92.288 0-160-88.064-160-179.008v-125.248c0-8.64 6.528-15.744 14.528-15.744h290.88c8.064 0 14.592 7.104 14.592 15.744v0 125.248c0 90.944-67.648 179.008-160 179.008z" />
<glyph unicode="&#xe612;" glyph-name="reddit" d="M1024 453.632c0 70.72-57.28 128-128 128-29.888 0-57.024-10.688-78.784-27.84-71.104 47.36-163.584 78.464-266.24 84.8l57.024 193.408 81.024-26.048c5.12-57.088 52.544-101.952 110.976-101.952 61.824 0 112 50.176 112 112s-50.176 112-112 112c-35.2 0-66.24-16.576-86.784-41.984l-115.968 37.312c-11.904 3.904-25.6 2.816-37.056-3.2-11.392-5.952-20.032-16.448-23.616-28.608l-76.864-253.888c-97.344-8.064-184.896-38.528-252.928-83.84-21.76 17.152-48.896 27.84-78.784 27.84-70.72 0-128-57.28-128-128 0-47.936 26.624-89.152 65.6-111.104-0.768-7.488-1.6-14.912-1.6-22.528 0-176.704 200.576-320 448-320s448 143.296 448 320c0 7.616-0.832 15.040-1.6 22.528 38.976 21.888 65.6 63.168 65.6 111.104zM256 416c0 52.992 43.008 96 96 96s96-43.008 96-96c0-52.992-43.008-96-96-96s-96 43.008-96 96zM718.72 188.992c-40.768-42.56-119.168-68.992-204.736-68.992s-163.968 26.432-204.736 68.992c-16.32 17.216-15.744 44.48 1.344 60.864 16.448 15.744 45.12 15.104 60.864-1.344 20.16-21.12 72.128-42.432 142.528-42.432s122.368 21.312 142.464 42.432c16.192 16.448 44.416 17.088 60.928 1.344 17.088-16.384 17.728-43.648 1.344-60.864zM674.368 319.872c-53.824 0-97.472 43.648-97.472 97.472s43.648 97.472 97.472 97.472 97.472-43.648 97.472-97.472c0-53.824-43.648-97.472-97.472-97.472z" />
<glyph unicode="&#xe613;" glyph-name="spotify" d="M512 960c-282.752 0-512-229.248-512-512s229.248-512 512-512 512 229.248 512 512-229.248 512-512 512zM748.544 147.84c-6.4-11.648-18.432-18.24-30.848-18.24-5.76 0-11.52 1.408-16.96 4.352-81.984 45.12-175.104 69.056-269.184 69.056-56.384 0-112.064-8.384-165.376-24.896-18.56-5.76-38.272 4.672-43.968 23.232-5.76 18.56 4.608 57.92 23.232 63.68 60.096 18.56 122.752 28.032 186.176 28.032 105.92 0 210.752-26.88 303.104-77.76 17.024-9.344 23.232-50.432 13.824-67.456zM813.568 340.736c-7.296-14.080-21.632-36.928-36.48-36.928-6.4 0-12.864 1.472-18.88 4.672-101.568 52.736-211.456 79.488-326.592 79.488-63.424 0-126.4-8.384-187.2-25.024-21.952-5.952-44.48 6.912-50.432 28.8-5.888 21.824 6.976 59.2 28.864 65.152 67.84 18.496 138.112 27.904 208.768 27.904 126.656 0 252.672-30.72 364.416-88.768 20.096-10.432 27.968-35.2 17.536-55.296zM840.768 495.168c-7.040 0-14.144 1.6-20.864 4.928-121.28 60.48-251.904 91.072-388.288 91.072-71.040 0-141.824-8.64-210.496-25.6-25.152-6.208-50.56 9.088-56.768 34.24-6.272 25.088 9.088 55.488 34.24 61.696 75.968 18.88 154.368 28.416 233.024 28.416 151.040 0 295.744-33.984 430.080-100.928 23.168-11.52 32.576-39.744 21.056-62.912-8.192-16.448-24.768-30.912-41.984-30.912z" />
<glyph unicode="&#xe614;" glyph-name="youtube" d="M885.504 798.528c-233.152 15.68-509.568 19.968-747.008 0-73.728-8.256-124.224-97.984-129.728-166.144-11.648-143.168-11.648-224.64 0-367.808 5.568-68.16 54.784-158.4 129.792-167.872 240.256-15.744 515.264-17.92 747.008 0 72.576 12.608 124.224 99.712 129.792 167.872 11.648 143.168 11.648 233.536 0 376.768-5.632 68.16-46.336 154.112-129.856 157.184zM384 266.88v367.040l320-183.552-320-183.488z" />
<glyph unicode="&#xe615;" glyph-name="email" d="M1024 660.544v107.456c0 35.328-28.672 64-64 64h-896c-35.328 0-64-28.672-64-64v-107.456l512-204.8 512 204.8zM512 351.168l-512 204.8v-427.968c0-35.328 28.672-64 64-64h896c35.328 0 64 28.672 64 64v428.032l-512-204.864z" />
<glyph unicode="&#xe616;" glyph-name="blogger" d="M957.824 576h-57.408c-35.136 0-65.984 29.76-68.416 64v0c0 182.656-147.264 320-331.2 320h-167.808c-183.808 0-332.864-148.032-332.992-330.688v-362.816c0-182.592 149.184-330.496 332.992-330.496h358.4c183.936 0 332.608 147.904 332.608 330.56v234.368c0 36.48-29.44 75.072-66.176 75.072zM320 704h192c35.2 0 64-28.8 64-64s-28.8-64-64-64h-192c-35.2 0-64 28.8-64 64s28.8 64 64 64zM704 192h-384c-35.2 0-64 28.8-64 64s28.8 64 64 64h384c35.2 0 64-28.8 64-64s-28.8-64-64-64z" />
<glyph unicode="&#xe617;" glyph-name="deviantart" d="M561.856 553.088c-39.040 2.304-84.096-0.064-136.256-8.96l120.32-216.896 478.080 131.264c-5.184 12.288-12.672 24.256-22.656 35.776-49.472 57.28-156.736 108.352-273.6 131.392v0c-114.624 26.88-238.784 25.728-365.952 6.528-4.608-0.704-9.152-1.408-13.696-2.176l-42.24 78.272c-41.152-5.504-79.808-14.080-115.584-25.472l40.256-84.224c-65.792-25.472-119.744-61.76-158.656-105.408-64.256-72.96-89.664-164.8-58.816-254.272 6.208-18.048 14.592-35.136 24.96-51.2l478.080 131.328-132.736 245.824c4.544 0.896 9.216 1.792 13.952 2.624 214.656 38.272 332.096-20.864 396.416-83.84l-163.584-39.68-68.288 109.12zM174.72 333.696c-14.784 67.328-3.008 142.528 90.432 192.576l73.152-152.96-163.584-39.616z" />
<glyph unicode="&#xe618;" glyph-name="dribbble" d="M512-64c-282.304 0-512 229.696-512 512s229.696 512 512 512 512-229.696 512-512-229.696-512-512-512zM943.808 377.92c-14.976 4.736-135.36 40.64-272.384 18.688 57.216-157.184 80.448-285.184 84.928-311.808 98.112 66.368 167.936 171.456 187.456 293.12zM682.816 44.736c-6.528 38.4-31.872 172.096-93.312 331.648-0.96-0.32-1.92-0.64-2.88-0.96-246.656-85.952-335.232-257.024-343.104-273.088 74.176-57.792 167.36-92.288 268.416-92.288 60.672-0.064 118.4 12.352 170.88 34.688zM187.072 154.944c9.92 16.96 129.92 215.68 355.456 288.576 5.696 1.856 11.456 3.584 17.216 5.184-11.008 24.832-22.912 49.728-35.456 74.24-218.368-65.344-430.336-62.656-449.472-62.208-0.128-4.416-0.192-8.896-0.192-13.376 0.064-112.32 42.624-214.912 112.448-292.416zM83.904 536.896c19.584-0.256 199.744-1.024 404.288 53.312-72.448 128.832-150.592 237.12-162.112 252.928-122.368-57.728-213.824-170.496-242.176-306.24zM409.536 872.512c12.096-16.192 91.52-124.352 163.2-256 155.52 58.304 221.312 146.752 229.184 157.952-77.248 68.544-178.752 110.208-289.92 110.208-35.264 0-69.568-4.224-102.464-12.16zM850.496 723.904c-9.216-12.48-82.496-106.432-244.224-172.416 10.176-20.864 19.904-42.048 28.992-63.36 3.2-7.552 6.336-15.104 9.408-22.592 145.536 18.304 290.112-11.008 304.512-14.080-0.896 103.232-37.76 198.016-98.688 272.448z" />
<glyph unicode="&#xe619;" glyph-name="print" d="M960 652.8h-64v256c0 35.328-28.672 64-64 64h-640c-35.328 0-64-28.672-64-64v-256h-64c-35.328 0-64-28.672-64-64v-320c0-35.328 28.672-64 64-64h64v-192c0-35.328 28.672-64 64-64h640c35.328 0 64 28.672 64 64v192h64c35.328 0 64 28.672 64 64v320c0 35.328-28.672 64-64 64zM192 908.8h640v-256h-640v256zM768 524.8v-64h-64v64h64zM128 460.8v64h64v-64h-64zM832 12.8h-640v320h640v-320zM896 460.8h-64v64h64v-64z" />
<glyph unicode="&#xe61a;" glyph-name="facebook" d="M576-64h-190.336v512h-128.704v191.936l127.040 0.064v88.448c0 143.936 40.512 231.552 210.048 231.552h173.952v-192h-120.96c-66.112 0-71.040-24.64-71.040-70.656v-57.344h194.688l-18.688-191.936-176-0.064v-512z" />
<glyph unicode="&#xe61b;" glyph-name="flickr" d="M213.312 238.144c-117.824 0-213.312 95.488-213.312 213.312s95.488 213.312 213.312 213.312 213.312-95.488 213.312-213.312-95.424-213.312-213.312-213.312zM810.688 238.144c-117.824 0-213.312 95.488-213.312 213.312s95.488 213.312 213.312 213.312 213.312-95.424 213.312-213.312-95.488-213.312-213.312-213.312z" />
<glyph unicode="&#xe61c;" glyph-name="googleplus" d="M657.728 960c0 0-236.416 0-315.264 0-141.248 0-274.24-107.712-274.24-232.448 0-127.488 96.32-230.464 240.128-230.464 9.984 0 19.712 0.256 29.184 0.896-9.28-17.92-16-38.144-16-59.2 0-35.456 19.008-64.192 42.944-87.616-18.048 0-35.648-0.512-54.656-0.512-175.104 0-309.824-112.192-309.824-228.48 0-114.496 147.776-186.176 322.752-186.176 199.552 0 309.76 113.92 309.76 228.48 0 91.84-26.944 146.88-110.208 206.144-28.48 20.288-83.008 69.568-83.008 98.56 0 33.984 9.664 50.752 60.544 90.752 52.096 41.024 89.024 98.624 89.024 165.632 0 79.744-35.328 157.568-101.632 183.168h99.904l70.592 51.264zM547.648 184.192c2.496-10.624 3.84-21.504 3.84-32.704 0-92.544-59.264-164.928-229.376-164.928-121.024 0-208.384 77.056-208.384 169.6 0 90.752 108.352 166.208 229.376 164.928 28.224-0.32 54.592-4.864 78.464-12.672 65.728-45.824 112.832-71.808 126.080-124.224zM353.92 529.408c-81.28 2.432-158.464 91.456-172.416 198.72-14.016 107.328 40.448 189.44 121.6 187.008s158.4-88.512 172.416-195.776c14.080-107.392-40.448-192.384-121.6-189.952zM896 704v128h-64v-128h-128v-64h128v-128h64v128h128v64z" />
<glyph unicode="&#xe61d;" glyph-name="picassa" d="M704 565.76l-364.48 364.416c53.888 19.264 111.936 29.824 172.48 29.824 67.904 0 132.672-13.248 192-37.248v-356.992zM768 256v635.456c153.024-88.512 256-253.952 256-443.456 0-67.904-13.248-132.672-37.248-192h-218.752zM320 192h635.456c-88.512-153.024-253.952-256-443.456-256-67.904 0-132.736 13.248-192 37.248v218.752zM426.24 736l-411.264-411.264c-9.792 39.488-14.976 80.768-14.976 123.264 0 193.408 107.2 361.728 265.472 448.832l160.768-160.832zM256 458.24v-453.696c-94.592 54.72-170.048 138.816-213.888 239.872l213.888 213.824z" />
<glyph unicode="&#xe61e;" glyph-name="pinterest" d="M578.56 217.344c-62.336 4.8-88.512 35.712-137.408 65.472-26.816-141.056-59.712-276.224-156.992-346.816-30.016 213.056 44.096 373.056 78.464 542.976-58.688 98.816 7.040 297.6 130.816 248.576 152.32-60.224-131.904-367.232 58.88-405.568 199.168-40.064 280.512 345.6 156.992 471.040-178.496 181.056-519.488 4.096-477.568-255.104 10.24-63.424 75.648-82.624 26.176-170.112-114.24 25.28-148.288 115.392-143.936 235.456 7.040 196.608 176.64 334.208 346.752 353.28 215.168 24.128 416.96-78.912 444.864-281.28 31.488-228.352-97.024-475.776-327.040-457.92z" />
<glyph unicode="&#xe61f;" glyph-name="rss" d="M384.064 192c0-70.692-57.308-128-128-128s-128 57.308-128 128c0 70.692 57.308 128 128 128s128-57.308 128-128zM128.064 960v-128c424.128 0 768-343.872 768-768h128c0 494.848-401.152 896-896 896zM128.064 640v-128c247.424 0 448-200.576 448-448h128c0 318.144-257.856 576-576 576z" />
<glyph unicode="&#xe620;" glyph-name="skype" d="M975.296 382.080c2.816 20.8 4.416 41.92 4.416 63.488 0 258.304-210.56 467.776-470.208 467.776-25.792 0-51.136-2.112-75.712-6.144-44.16 28.8-96.704 45.504-153.216 45.504-155.072-0.064-280.576-125.696-280.576-280.64 0-56.384 16.576-108.864 45.184-152.768-3.84-24.064-5.824-48.64-5.824-73.728 0-258.368 210.432-467.776 470.144-467.776 29.312 0 57.856 2.88 85.568 7.872 43.072-26.752 93.888-42.304 148.288-42.304 155.072 0 280.64 125.632 280.64 280.64 0 58.56-17.92 113.024-48.704 158.080zM553.472 100.8c-149.44-7.808-219.328 25.28-283.392 85.376-71.552 67.136-42.816 143.68 15.488 147.584 58.24 3.904 93.184-66.048 124.288-85.44 31.040-19.392 149.184-63.552 211.584 7.808 67.968 77.632-45.184 117.824-128.128 129.984-118.4 17.536-267.904 81.6-256.256 207.808 11.648 126.080 107.136 190.784 207.68 199.872 128.128 11.648 211.584-19.392 277.568-75.712 76.288-65.088 35.008-137.792-13.568-143.616-48.448-5.824-102.784 107.008-209.6 108.672-110.080 1.728-184.448-114.496-48.576-147.584 135.936-33.024 281.472-46.592 333.952-170.816 52.48-124.16-81.472-256.192-231.040-263.936z" />
<glyph unicode="&#xe621;" glyph-name="stumbleupon" d="M512 640c-35.264 0-64-28.736-64-64v-256c0-105.856-86.144-192-192-192s-192 86.144-192 192v128h128v-128c0-35.264 28.736-64 64-64s64 28.736 64 64v256c0 105.856 86.144 192 192 192s192-86.144 192-177.984v-62.016l-67.968-24-60.032 24v62.016c0 21.248-28.736 49.984-64 49.984zM960 320c0-105.856-86.144-192-192-192s-192 86.144-192 206.016v124.032l60.032-24 67.968 24v-124.032c0-49.28 28.736-78.016 64-78.016s64 28.736 64 64v128h128v-128z" />
<glyph unicode="&#xe622;" glyph-name="tumblr" d="M575.936 512l-0.064-234.176c0-59.456-0.768-93.696 5.568-110.528 6.272-16.704 21.888-34.112 38.976-44.16 22.72-13.632 48.576-20.416 77.696-20.416 51.84 0 82.496 6.848 133.76 40.576v-153.984c-43.712-20.544-81.856-32.576-117.312-40.896-35.52-8.256-73.856-12.416-115.072-12.416-46.848 0-74.432 5.888-110.4 17.664-35.968 11.84-66.688 28.8-92.032 50.56-25.472 21.888-43.008 45.184-52.864 69.824-9.792 24.64-14.72 60.416-14.72 107.2v330.752h-137.408v173.376c40.192 13.056 85.184 31.808 113.792 56.192 28.736 24.448 51.776 53.696 69.12 87.936 17.344 34.112 29.312 77.696 35.84 130.496h165.12v-256h255.936v-192h-255.936z" />
<glyph unicode="&#xe623;" glyph-name="twitter" d="M1024.128 765.504c-37.696-16.704-78.144-28.032-120.64-33.088 43.392 25.984 76.672 67.2 92.352 116.224-40.576-24.064-85.568-41.536-133.44-51.008-38.336 40.896-92.928 66.368-153.344 66.368-116.032 0-210.112-94.080-210.112-210.048 0-16.448 1.856-32.512 5.44-47.872-174.592 8.832-329.408 92.48-433.024 219.52-18.112-31.040-28.416-67.136-28.416-105.6 0-72.896 37.12-137.216 93.44-174.848-34.432 1.152-66.816 10.624-95.168 26.368 0-0.896 0-1.728 0-2.624 0-101.76 72.448-186.688 168.512-206.016-17.6-4.8-36.16-7.36-55.36-7.36-13.568 0-26.688 1.344-39.552 3.776 26.752-83.456 104.32-144.192 196.224-145.92-71.872-56.32-162.496-89.92-260.928-89.92-16.96 0-33.664 1.024-50.112 2.944 92.992-59.584 203.392-94.4 322.048-94.4 386.432 0 597.76 320.128 597.76 597.76 0 9.088-0.192 18.176-0.64 27.2 41.152 29.504 76.8 66.432 104.96 108.544z" />
<glyph unicode="&#xe624;" glyph-name="vimeo" d="M0 651.648l41.6-54.528c0 0 85.76 67.584 114.368 33.792s137.728-441.984 174.144-517.248c31.808-66.048 119.488-153.344 215.744-91.008 96.128 62.336 415.808 335.296 473.088 657.6 57.152 322.24-384.704 254.72-431.552-25.984 116.992 70.208 179.456-28.544 119.552-140.352-59.776-111.744-114.368-184.576-142.976-184.576-28.544 0-50.496 74.752-83.2 205.44-33.792 135.104-33.6 378.432-174.144 350.848-132.48-26.048-306.624-233.984-306.624-233.984z" />
<glyph unicode="&#xe625;" glyph-name="link" d="M973.248 909.248c-25.024 25.024-65.472 25.024-90.496 0l-126.656-126.656-45.824 45.824c-77.312 77.312-212.096 77.312-289.408 0l-289.28-289.28c-79.744-79.808-79.744-209.6 0-289.408l45.824-45.824-126.656-126.656c-25.024-25.024-25.024-65.472 0-90.496 12.48-12.48 28.864-18.752 45.248-18.752s32.768 6.272 45.248 18.752l126.656 126.656 45.824-45.824c38.656-38.656 90.048-59.904 144.704-59.904s106.048 21.312 144.704 59.968l289.28 289.28c79.744 79.808 79.744 209.6 0 289.408l-45.824 45.824 126.656 126.656c25.024 24.96 25.024 65.408 0 90.432zM801.856 555.776c29.888-29.888 29.888-78.528 0-108.416l-289.28-289.216c-28.928-28.928-79.488-28.992-108.416 0l-45.76 45.76 108.352 108.352c25.024 25.024 25.024 65.472 0 90.496s-65.472 25.024-90.496 0l-108.288-108.288-45.824 45.76c-29.888 29.888-29.888 78.528 0 108.416l289.28 289.216c14.4 14.528 33.664 22.464 54.144 22.464s39.744-8 54.208-22.464l45.824-45.76-108.352-108.352c-25.024-25.024-25.024-65.472 0-90.496 12.48-12.48 28.864-18.752 45.248-18.752s32.768 6.272 45.248 18.752l108.288 108.288 45.824-45.76z" />
<glyph unicode="&#xe626;" glyph-name="note" d="M960 912.576c0 35.328-28.672 55.296-64 44.48l-576-108.864c-35.328-10.752-64-48.192-64-83.52v-382.912c0-61.76-45.184-63.104-45.184-63.104-41.728-2.88-85.056-18.688-123.072-49.28-88.96-71.744-114.496-193.216-57.088-271.296s176.128-83.2 265.088-11.456c57.408 46.336 88.256 118.4 88.256 199.36v326.016c0 89.984 58.88 103.424 58.88 103.424l324.096 61.568c17.024 3.008 65.024 9.024 65.024-60.992v-105.984c0-60.032-44.672-63.296-44.672-63.296-41.728-2.88-85.056-18.688-123.072-49.28-88.96-71.808-114.496-193.28-57.088-271.36s176.128-83.2 265.088-11.456c58.688 47.296 87.744 109.376 87.744 201.344v596.608z" />
<glyph unicode="&#xe627;" glyph-name="pause" d="M384 128c0-35.328-28.672-64-64-64h-64c-35.328 0-64 28.672-64 64v640c0 35.328 28.672 64 64 64h64c35.328 0 64-28.672 64-64v-640zM768 128c0-35.328-28.672-64-64-64h-64c-35.328 0-64 28.672-64 64v640c0 35.328 28.672 64 64 64h64c35.328 0 64-28.672 64-64v-640z" />
<glyph unicode="&#xe628;" glyph-name="play_alt" d="M512 832c211.712 0 384-172.288 384-384s-172.288-384-384-384-384 172.288-384 384 172.288 384 384 384zM512 960c-282.752 0-512-229.248-512-512s229.248-512 512-512 512 229.248 512 512-229.248 512-512 512v0zM467.136 268.288l206.592 163.136c11.584 9.088 11.584 23.808 0 32.896-0.32 0.256-0.768 0.32-1.088 0.576l-205.504 162.816c-11.584 9.088-30.336 9.088-41.92 0-0.064-0.128-0.064-0.192-0.192-0.32-5.504-4.224-9.024-10.048-9.024-16.576v-325.568c0-6.656 3.648-12.544 9.344-16.832l-0.128-0.064c11.584-9.088 30.4-9.088 41.92-0.064z" />
<glyph unicode="&#xe629;" glyph-name="play" d="M320 812.096l427.456-321.344c27.456-21.888 27.456-63.552 0-85.504l-427.456-321.344c-35.904-28.672-64-29.056-64 16.832v694.528c0 45.888 28.096 45.504 64 16.832z" />
<glyph unicode="&#xe62a;" glyph-name="quote" d="M307.008 849.984c-11.072 9.472-20.992 16.064-29.696 21.12-0.384 0.256-0.64 0.576-1.024 0.768-0.576 0.32-1.28 0.448-1.92 0.768-12.544 6.976-21.632 10.368-21.632 10.368l0.64-1.536c-20.544 8.384-42.112 14.528-65.536 14.528-103.744 0-187.84-87.808-187.84-196.16 0-89.536 57.792-164.288 136.32-187.776l-0.896-0.32c0 0 178.496-35.584 40.64-238.976-36.992-50.88-85.504-103.808-151.424-157.248-26.944-21.888-31.872-62.4-10.944-90.56 12.224-16.384 30.464-24.96 48.896-24.96 13.184 0 26.56 4.416 37.824 13.568 236.288 191.616 295.296 388.608 303.232 520.128 13.504 168.32-37.376 256.704-83.648 302.912-4.288 4.48-8.256 9.344-12.992 13.376zM925.184 849.984c-11.072 9.472-20.992 16.128-29.696 21.184-0.384 0.192-0.64 0.512-1.024 0.768-0.576 0.32-1.28 0.448-1.92 0.768-12.544 6.976-21.696 10.368-21.696 10.368l0.64-1.536c-20.544 8.32-42.112 14.464-65.536 14.464-103.744 0-187.84-87.808-187.84-196.16 0-89.536 57.792-164.288 136.32-187.776l-0.896-0.32c0 0 178.496-35.584 40.64-238.976-36.992-50.88-85.504-103.808-151.424-157.248-26.944-21.888-31.872-62.4-10.944-90.56 12.16-16.384 30.4-24.96 48.896-24.96 13.184 0 26.56 4.416 37.824 13.568 236.288 191.616 295.296 388.608 303.232 520.128 13.504 168.32-37.376 256.704-83.712 302.912-4.224 4.48-8.192 9.344-12.864 13.376z" />
<glyph unicode="&#xe62b;" glyph-name="speaker" d="M704 812.096l-228.928-172.096h-155.072c-35.328 0-64-28.672-64-64v-256c0-35.328 28.672-64 64-64h155.072l228.928-172.096c35.904-28.672 64-29.056 64 16.832v694.528c0 45.888-28.096 45.504-64 16.832z" />
<glyph unicode="&#xe62c;" glyph-name="wordpress" d="M0 448c0-202.624 117.76-377.792 288.576-460.736l-244.224 669.056c-28.416-63.616-44.352-134.144-44.352-208.32zM857.6 473.856c0 63.232-22.72 107.072-42.24 141.248-25.92 42.24-50.24 77.888-50.24 120.128 0 47.040 35.648 90.88 86.016 90.88 2.304 0 4.416-0.256 6.656-0.448-91.136 83.328-212.48 134.336-345.792 134.336-178.88 0-336.192-91.84-427.776-230.784 12.032-0.32 23.36-0.64 32.96-0.64 53.504 0 136.448 6.464 136.448 6.464 27.584 1.6 30.784-38.912 3.264-42.24 0 0-27.712-3.264-58.624-4.8l186.432-554.56 112.064 336-79.808 218.624c-27.584 1.536-53.696 4.8-53.696 4.8-27.584 1.664-24.32 43.776 3.264 42.24 0 0 84.544-6.464 134.848-6.464 53.504 0 136.448 6.464 136.448 6.464 27.584 1.6 30.912-38.912 3.264-42.24 0 0-27.84-3.264-58.624-4.8l185.152-550.4 51.136 170.56c22.016 70.912 38.848 121.792 38.848 165.632zM520.96 403.2l-153.6-446.4c45.888-13.44 94.4-20.8 144.64-20.8 59.648 0 116.8 10.24 169.984 28.992-1.344 2.176-2.624 4.544-3.648 7.104l-157.376 431.104zM961.28 693.632c2.24-16.32 3.392-33.792 3.392-52.672 0-51.968-9.728-110.272-38.912-183.36l-156.416-452.096c152.256 88.704 254.656 253.632 254.656 442.496 0 89.024-22.784 172.672-62.72 245.632z" />
<glyph unicode="&#xe62d;" glyph-name="carrot_down" d="M758.016 583.040c-13.376 13.376-35.008 13.376-48.32 0l-197.696-197.696-197.632 197.696c-13.376 13.376-35.008 13.376-48.32 0-13.376-13.376-13.376-35.008 0-48.32l221.632-221.76c6.72-6.72 15.488-10.048 24.32-9.984 8.768-0.064 17.6 3.264 24.32 9.984l221.696 221.696c13.312 13.376 13.312 35.008 0 48.384z" />
<glyph unicode="&#xe62e;" glyph-name="carrot_left" horiz-adv-x="386" d="M23.168 417.6l278.784-277.12c16.768-16.704 44.032-16.704 60.8 0s16.768 43.712 0 60.416l-248.512 247.104 248.576 247.040c16.768 16.704 16.768 43.712 0 60.416s-44.032 16.704-60.8 0l-278.784-277.12c-8.448-8.32-12.672-19.328-12.608-30.336-0.064-11.008 4.16-22.016 12.544-30.4z" />
<glyph unicode="&#xe62f;" glyph-name="carrot_right" horiz-adv-x="384" d="M361.856 478.4l-278.784 277.12c-16.768 16.704-44.032 16.704-60.8 0s-16.768-43.712 0-60.416l248.512-247.104-248.576-247.040c-16.768-16.704-16.768-43.712 0-60.416s44.032-16.704 60.8 0l278.784 277.12c8.448 8.32 12.672 19.328 12.608 30.336 0.064 11.008-4.16 22.016-12.544 30.4z" />
<glyph unicode="&#xe630;" glyph-name="carrot_up" d="M536.32 583.040c-6.72 6.656-15.552 9.984-24.32 9.984s-17.6-3.328-24.32-9.984l-221.696-221.696c-13.376-13.376-13.376-35.008 0-48.32 13.376-13.376 35.008-13.376 48.32 0l197.696 197.632 197.632-197.632c13.376-13.376 35.008-13.376 48.32 0 13.376 13.376 13.376 35.008 0 48.32l-221.632 221.696z" />
<glyph unicode="&#xe631;" glyph-name="cart" d="M320 128c0-35.346-28.654-64-64-64s-64 28.654-64 64c0 35.346 28.654 64 64 64s64-28.654 64-64zM896 128c0-35.346-28.654-64-64-64s-64 28.654-64 64c0 35.346 28.654 64 64 64s64-28.654 64-64zM256 384h583.36c35.328 0 56.64 6.976 73.664 48l103.936 318.848c18.048 57.152-21.568 81.152-56.96 81.152h-768c-4.992 0-9.344-1.728-14.016-2.816l-24.832 106.112c-3.392 14.464-16.256 24.704-31.168 24.704h-91.84c-17.664 0-32-14.336-32-32s14.272-32 32-32h66.496l39.744-169.856 55.616-278.144c0-2.304 1.088-4.288 1.344-6.528l-32.576-146.56c-2.112-9.472 0.192-19.392 6.272-26.944s15.232-11.968 24.96-11.968h726.016c17.664 0 32 14.336 32 32s-14.336 32-32 32h-686.080l14.656 65.92c3.2-0.512 6.080-1.92 9.408-1.92zM193.28 768h761.92l-102.144-313.472c-1.216-2.752-2.24-4.736-3.008-6.080-2.112-0.256-5.44-0.448-10.688-0.448h-583.36v6.336l-1.216 6.208-61.504 307.456z" />
<glyph unicode="&#xe632;" glyph-name="check" d="M512 896c-247.424 0-448-200.576-448-448s200.576-448 448-448 448 200.576 448 448c0 247.424-200.576 448-448 448zM781.248 512l-288.64-283.2c-25.024-25.024-65.536-25.024-90.496 0l-140.608 141.952c-25.024 25.024-25.024 65.536 0 90.496 25.024 25.024 65.536 25.024 90.496 0l96-96.896 242.752 238.144c25.024 25.024 65.536 25.024 90.496 0 25.024-24.96 25.024-65.472 0-90.496z" />
<glyph unicode="&#xe633;" glyph-name="eye" d="M511.296 832c-172.288 0-400.512-140.288-500.608-339.2-14.272-28.416-14.272-61.184 0-89.536 100.096-198.912 328.32-339.2 500.608-339.2 174.336 0 406.016 143.68 504.128 346.432 11.392 23.552 11.392 51.584 0 75.136-98.112 202.688-329.792 346.368-504.128 346.368zM512 256c-106.048 0-192 85.952-192 192s85.952 192 192 192 192-85.952 192-192-85.952-192-192-192z" />
<glyph unicode="&#xe634;" glyph-name="gear" d="M982.4 514.496l-101.184 26.496c-19.456 5.12-35.456 18.944-43.072 37.568-1.088 2.624-2.176 5.248-3.264 7.808-7.744 18.56-6.272 39.616 3.904 56.96l52.8 90.24c12.672 21.696 8.832 48.896-8.512 67.072-6.016 6.336-12.16 12.48-18.496 18.496-18.176 17.28-45.376 21.184-67.072 8.512l-90.24-52.8c-17.344-10.176-38.464-11.648-56.96-3.904-2.56 1.088-5.184 2.176-7.744 3.264-18.624 7.616-32.448 23.616-37.568 43.008l-26.496 101.184c-6.336 24.32-28.288 40.768-53.44 41.408-8.704 0.192-17.408 0.192-26.176 0-25.088-0.64-47.040-17.088-53.376-41.408l-26.496-101.184c-5.12-19.392-18.944-35.392-37.568-43.008-2.56-1.088-5.184-2.176-7.808-3.264-18.56-7.744-39.616-6.272-56.96 3.904l-90.24 52.8c-21.696 12.672-48.896 8.832-67.136-8.512-6.336-6.016-12.48-12.16-18.496-18.496-17.28-18.176-21.12-45.376-8.448-67.072l52.8-90.24c10.176-17.344 11.648-38.464 3.904-56.96-1.088-2.624-2.176-5.248-3.264-7.808-7.616-18.624-23.616-32.448-43.008-37.568l-101.184-26.496c-24.32-6.336-40.768-28.288-41.408-53.44-0.192-8.704-0.192-17.408 0-26.176 0.64-25.088 17.088-47.040 41.408-53.376l101.184-26.496c19.456-5.056 35.456-18.944 43.072-37.504 1.088-2.624 2.176-5.248 3.264-7.808 7.744-18.56 6.272-39.68-3.904-57.024l-52.8-90.24c-12.736-21.696-8.896-48.896 8.448-67.072 6.016-6.336 12.16-12.48 18.496-18.496 18.24-17.28 45.376-21.184 67.072-8.512l90.24 52.8c17.344 10.176 38.464 11.648 56.96 3.904 2.624-1.088 5.248-2.176 7.808-3.264 18.624-7.616 32.448-23.616 37.568-43.072l26.496-101.184c6.336-24.32 28.352-40.768 53.44-41.408 8.704-0.192 17.408-0.192 26.176 0 25.088 0.64 47.104 17.152 53.44 41.408l26.496 101.184c5.12 19.456 19.008 35.456 37.568 43.072 2.624 1.088 5.248 2.176 7.808 3.264 18.496 7.744 39.616 6.208 56.96-3.904l90.24-52.8c21.696-12.672 48.896-8.832 67.072 8.512 6.336 6.016 12.48 12.16 18.496 18.496 17.28 18.24 21.184 45.376 8.512 67.072l-52.8 90.24c-10.176 17.344-11.648 38.464-3.904 57.024 1.088 2.56 2.176 5.184 3.264 7.808 7.616 18.624 23.616 32.448 43.072 37.504l101.184 26.496c24.32 6.336 40.768 28.352 41.408 53.44 0.192 8.704 0.192 17.408 0 26.176-0.768 25.088-17.216 47.040-41.536 53.376zM512 256c-106.048 0-192 85.952-192 192s85.952 192 192 192 192-85.952 192-192-85.952-192-192-192z" />
<glyph unicode="&#xe635;" glyph-name="grid" d="M384 640c0-35.328-28.672-64-64-64h-256c-35.328 0-64 28.672-64 64v256c0 35.328 28.672 64 64 64h256c35.328 0 64-28.672 64-64v-256zM1024 640c0-35.328-28.672-64-64-64h-256c-35.328 0-64 28.672-64 64v256c0 35.328 28.672 64 64 64h256c35.328 0 64-28.672 64-64v-256zM384 0c0-35.328-28.672-64-64-64h-256c-35.328 0-64 28.672-64 64v256c0 35.328 28.672 64 64 64h256c35.328 0 64-28.672 64-64v-256zM1024 0c0-35.328-28.672-64-64-64h-256c-35.328 0-64 28.672-64 64v256c0 35.328 28.672 64 64 64h256c35.328 0 64-28.672 64-64v-256z" />
<glyph unicode="&#xe636;" glyph-name="menu" d="M832 480c0-17.664-14.336-32-32-32h-576c-17.664 0-32 14.336-32 32v0c0 17.664 14.336 32 32 32h576c17.664 0 32-14.336 32-32v0zM832 672c0-17.664-14.336-32-32-32h-576c-17.664 0-32 14.336-32 32v0c0 17.664 14.336 32 32 32h576c17.664 0 32-14.336 32-32v0zM832 288c0-17.664-14.336-32-32-32h-576c-17.664 0-32 14.336-32 32v0c0 17.664 14.336 32 32 32h576c17.664 0 32-14.336 32-32v0z" />
<glyph unicode="&#xe637;" glyph-name="pin" d="M918.272 500.032c2.048 16.512 3.392 33.216 3.392 50.304 0.064 226.24-183.424 409.664-409.664 409.664s-409.728-183.424-409.728-409.728c0-17.28 1.408-34.24 3.52-50.944 35.008-319.936 379.648-545.408 379.648-545.408 6.144-6.784 12.032-11.2 17.728-14.272 0.128-0.064 0.192-0.064 0.32-0.128 3.904-1.984 7.808-3.52 11.456-3.52 3.712 0 7.552 1.536 11.456 3.584 0.128 0.064 0.192 0.064 0.32 0.128 5.696 3.072 11.584 7.488 17.728 14.272 0.064 0 339.712 225.92 373.824 546.048zM512 768c123.52 0 224-100.48 224-224s-100.48-224-224-224-224 100.48-224 224c0 123.52 100.48 224 224 224z" />
<glyph unicode="&#xe638;" glyph-name="plus" d="M800 448h-224v224c0 17.664-14.336 32-32 32s-32-14.336-32-32v-224h-224c-17.664 0-32-14.336-32-32s14.336-32 32-32h224v-224c0-17.664 14.336-32 32-32s32 14.336 32 32v224h224c17.664 0 32 14.336 32 32s-14.336 32-32 32z" />
<glyph unicode="&#xe639;" glyph-name="et-extra-icon_star_empty" d="M0 573.099l21.333-20.651v23.808zM874.667 595.286v-167.936l21.333 20.821v143.957zM21.333 576.256v-23.808l21.333-20.651v47.616zM832 601.6v-215.893l21.333 20.821v191.915zM789.333-8.448l21.333-11.179v95.829l-21.333 128.768zM789.333 608v-263.936l21.333 20.821v239.872zM746.667 614.315v-600.32l21.333-11.179v608.341zM917.333 588.971v-119.979l21.333 20.821v96zM213.333 604.758l-21.333-3.157v-214.443l21.333-20.651zM195.925-28.842l17.408 9.131v92.501zM149.333 595.286v-166.827l21.333-20.651v190.635zM704 620.63v-584.192l21.333-11.264v592.299zM64 582.571v-71.424l21.333-20.736v95.403zM106.667 588.971v-119.211l21.333-20.651v143.019zM960 582.571v-71.936l21.333 20.821v47.957zM1002.667 552.278l21.333 20.821-21.333 3.157zM256 325.12v286.037l-21.333-3.157v-262.229zM234.667 197.376v-205.909l21.333 11.093v319.317zM405.333 730.027v-649.472l21.333 11.179v681.216zM448 815.958v-713.045l21.333 11.093v744.875zM490.667 901.803v-776.619l21.333 11.093v808.448zM576 818.347v-714.581l21.333-11.264v682.411zM362.667 644.182v-585.899l21.333 11.179v617.643zM533.333 905.302v-779.179l21.333-11.179v746.923zM320 620.63v-584.619l21.333 11.179v576.597zM277.333 614.315v-600.576l21.333 11.093v592.64zM670.549 625.579l-9.216 18.859v-585.557l21.333-11.264v576.171zM618.667 731.392v-650.069l21.333-11.264v617.899z" />
<glyph unicode="&#xe63a;" glyph-name="search" d="M608 960c-229.76 0-416-186.24-416-416 0-98.88 34.688-189.632 92.288-261.056l-274.944-274.944c-17.28-17.28-17.28-45.376 0-62.656s45.376-17.28 62.656 0l274.944 274.944c71.424-57.6 162.176-92.288 261.056-92.288 229.76 0 416 186.24 416 416s-186.24 416-416 416zM608 192c-194.112 0-352 157.888-352 352s157.888 352 352 352 352-157.888 352-352-157.888-352-352-352z" />
<glyph unicode="&#xe63b;" glyph-name="et-extra-icon_comments" d="M799.232 481.622c0 179.371-178.944 324.693-399.616 324.693s-399.616-145.323-399.616-324.693c0-93.525 48.981-177.579 126.805-236.8-14.592-37.803-39.424-87.211-81.579-137.813 79.872 0 182.613 10.496 261.803 59.051 29.781-5.717 60.672-9.131 92.587-9.131 220.757 0 399.616 145.408 399.616 324.693zM1002.667 397.056v-163.413c11.008 26.112 21.333 53.419 21.333 82.261 0 28.501-10.581 55.296-21.333 81.152zM960 41.899c7.168-0.256 14.421-0.512 21.333-0.512v5.461c-8.021 9.131-14.763 18.176-21.333 27.051v-32zM960 465.067v-300.288c8.107 9.301 14.677 19.2 21.333 29.184v245.248c-6.144 9.045-13.909 17.323-21.333 25.856zM924.245 129.536c5.376 4.437 9.472 9.557 14.421 14.251v344.917c-6.485 5.973-14.251 11.008-21.333 16.64v-460.885c7.168-0.597 14.336-1.365 21.333-1.792v62.72c-4.949 8.107-10.496 16.555-14.421 24.149zM874.667 340.651v-290.816c7.083-1.109 14.251-2.475 21.333-3.328v390.315c-1.963-33.365-9.387-65.451-21.333-96.171zM896 486.742v35.243c-2.475 1.621-4.352 3.755-6.912 5.376 3.157-13.312 5.376-26.88 6.912-40.619zM832 260.694v-202.155c7.083-1.792 14.165-3.925 21.333-5.376v242.773c-6.741-11.947-13.141-24.064-21.333-35.243zM789.333 212.054v-151.552c5.632 1.707 11.776 2.56 17.323 4.437 1.28-0.427 2.731-0.597 4.011-1.024v171.861c-6.912-8.021-13.653-16.128-21.333-23.723zM746.667 175.616v-126.037c7.339 1.451 14.165 3.669 21.333 5.461v137.387c-6.741-5.888-14.165-11.264-21.333-16.811zM704 145.835v-102.315c7.083 0.768 14.421 0.683 21.333 1.792v113.493c-6.827-4.608-14.251-8.619-21.333-12.971zM661.333 122.027v-82.005c7.253 0.085 14.165 1.28 21.333 1.707v92.16c-7.168-3.925-13.909-8.192-21.333-11.861zM618.667 104.022v-61.867c7.168-0.512 13.995-1.707 21.333-1.877v71.765c-6.827-2.987-14.251-5.291-21.333-8.021zM576 87.979v-41.984c6.912-1.109 14.251-1.109 21.333-1.877v51.883c-7.253-2.56-13.909-5.803-21.333-8.021zM533.333 78.080v-22.187c7.168-1.877 13.995-4.267 21.333-5.888v32.768c-6.997-1.877-14.251-3.072-21.333-4.693zM490.667 68.694v-1.024c6.741-2.475 14.336-3.669 21.333-5.888v11.605c-7.253-1.365-13.995-3.584-21.333-4.693z" />
<glyph unicode="&#xe63c;" glyph-name="et-extra-icon_star_full" d="M1024 573.099l-254.549-248.405 58.624-353.451-315.051 165.632-317.099-165.632 60.587 353.451-256.512 248.405 353.451 52.48 159.573 321.109 157.525-321.109 353.451-52.48z" />
<glyph unicode="&#xe63d;" glyph-name="minus" d="M288 384h512c17.664 0 32 14.336 32 32s-14.336 32-32 32h-512c-17.664 0-32-14.336-32-32s14.336-32 32-32z" />
<glyph unicode="&#xe63e;" glyph-name="et-extra-icon_star_half" d="M746.667 614.315v-600.32l21.333-11.179v608.341zM704 620.63v-584.192l21.333-11.264v592.299zM960 582.571v-71.936l21.333 20.821v47.957zM1002.667 552.278l21.333 20.821-21.333 3.157zM917.333 588.971v-119.979l21.333 20.821v96zM789.333-8.448l21.333-11.179v95.829l-21.333 128.768zM789.333 608v-263.936l21.333 20.821v239.872zM874.667 595.286v-167.936l21.333 20.821v143.957zM832 601.6v-215.893l21.333 20.821v191.915zM670.549 625.579l-9.216 18.859v-585.557l21.333-11.264v576.171zM353.451 625.579l-353.451-52.48 256.512-248.405-60.587-353.536 316.075 165.12v808.448zM576 818.347v-714.581l21.333-11.264v682.411zM618.667 731.392v-650.069l21.333-11.264v617.899zM533.333 905.302v-779.179l21.333-11.179v746.923z" />
<glyph unicode="&#xe63f;" glyph-name="link-circle" d="M512 960c-282.752 0-512-229.248-512-512s229.248-512 512-512 512 229.248 512 512-229.248 512-512 512zM742.656 633.344l-63.36-63.36 22.912-22.912c39.872-39.872 39.872-104.832 0-144.704l-144.64-144.64c-19.328-19.264-44.992-29.888-72.32-29.888s-52.992 10.624-72.32 29.952l-22.912 22.912-63.36-63.36c-6.272-6.208-14.464-9.344-22.656-9.344s-16.384 3.136-22.656 9.344c-12.48 12.48-12.48 32.768 0 45.248l63.36 63.36-22.912 22.912c-39.872 39.872-39.872 104.832 0 144.704l144.64 144.64c38.656 38.656 106.048 38.656 144.704 0l22.912-22.912 63.36 63.36c12.48 12.48 32.768 12.48 45.248 0s12.48-32.768 0-45.312zM634.048 524.8l-54.144-54.144c-6.272-6.272-14.464-9.408-22.656-9.408s-16.384 3.136-22.592 9.408c-12.48 12.48-12.48 32.768 0 45.248l54.144 54.144-22.912 22.912c-7.232 7.232-16.896 11.2-27.136 11.2s-19.904-3.968-27.136-11.264l-144.64-144.64c-14.912-14.912-14.912-39.296 0-54.208l22.976-22.848 54.144 54.144c12.48 12.48 32.768 12.48 45.248 0s12.48-32.768 0-45.248l-54.144-54.144 22.912-22.912c14.464-14.464 39.744-14.464 54.208 0l144.64 144.64c14.912 14.912 14.912 39.296 0 54.208l-22.912 22.912z" />
<glyph unicode="&#xe640;" glyph-name="quote-circle" d="M512 960c-282.752 0-512-229.248-512-512s229.248-512 512-512 512 229.248 512 512-229.248 512-512 512zM457.856 490.816c-3.968-65.728-33.536-164.224-151.616-260.032-5.632-4.608-12.352-6.784-18.944-6.784-9.216 0-18.368 4.288-24.448 12.48-10.496 14.080-8 34.368 5.44 45.248 32.96 26.688 57.216 53.184 75.712 78.656 68.992 101.696-20.288 119.488-20.288 119.488l0.448 0.128c-39.232 11.776-68.16 49.152-68.16 93.888 0 54.208 42.048 98.112 93.888 98.112 11.712 0 22.528-3.072 32.768-7.232l-0.32 0.704c0 0 4.544-1.664 10.816-5.184 0.32-0.192 0.64-0.256 0.96-0.384 0.192-0.064 0.384-0.256 0.576-0.32 4.288-2.56 9.28-5.888 14.848-10.624 2.304-1.984 4.288-4.416 6.464-6.656 23.168-23.104 48.576-67.328 41.856-151.488zM766.912 490.816c-3.968-65.792-33.472-164.224-151.616-260.096-5.632-4.544-12.288-6.72-18.944-6.72-9.216 0-18.368 4.288-24.448 12.48-10.496 14.080-8 34.368 5.44 45.248 32.96 26.688 57.216 53.184 75.712 78.656 68.928 101.696-20.288 119.488-20.288 119.488l0.448 0.128c-39.232 11.776-68.16 49.152-68.16 93.888 0 54.144 42.048 98.112 93.888 98.112 11.712 0 22.528-3.072 32.768-7.232l-0.32 0.768c0 0 4.544-1.664 10.816-5.184 0.32-0.192 0.64-0.256 0.96-0.384 0.192-0.128 0.32-0.256 0.512-0.384 4.352-2.496 9.28-5.824 14.848-10.56 2.368-2.048 4.352-4.416 6.464-6.656 23.232-23.168 48.64-67.392 41.92-151.552z" />
<glyph unicode="&#xe641;" glyph-name="extra-logo" horiz-adv-x="1390" d="M1389.714 646.096v292.571h-1389.714v-146.286h146.286v-731.429h-146.286v-146.286h1389.714v292.571h-146.286v-146.286h-950.857v292.571h585.143v-146.286h146.286v438.857h-146.286v-146.286h-585.143v292.571h950.857v-146.286h146.286z" />
</font>
</defs>
</svg>
